<?xml version="1.0" encoding="UTF-8" standalone="no"?>
<svg
   xmlns:dc="http://purl.org/dc/elements/1.1/"
   xmlns:cc="http://creativecommons.org/ns#"
   xmlns:rdf="http://www.w3.org/1999/02/22-rdf-syntax-ns#"
   xmlns:svg="http://www.w3.org/2000/svg"
   xmlns="http://www.w3.org/2000/svg"
   xmlns:sodipodi="http://sodipodi.sourceforge.net/DTD/sodipodi-0.dtd"
   xmlns:inkscape="http://www.inkscape.org/namespaces/inkscape"
   id="ICONS"
   viewBox="0 0 400 140"
   version="1.1"
   sodipodi:docname="disa-framework-bots-custom-keyboard.svg"
   inkscape:version="0.92.1 r15371">
  <metadata
     id="metadata77">
    <rdf:RDF>
      <cc:Work
         rdf:about="">
        <dc:format>image/svg+xml</dc:format>
        <dc:type
           rdf:resource="http://purl.org/dc/dcmitype/StillImage" />
      </cc:Work>
    </rdf:RDF>
  </metadata>
  <sodipodi:namedview
     pagecolor="#ffffff"
     bordercolor="#666666"
     borderopacity="1"
     objecttolerance="10"
     gridtolerance="10"
     guidetolerance="10"
     inkscape:pageopacity="0"
     inkscape:pageshadow="2"
     inkscape:window-width="1903"
     inkscape:window-height="1096"
     id="namedview75"
     showgrid="false"
     inkscape:zoom="3.39"
     inkscape:cx="186.22889"
     inkscape:cy="57.698434"
     inkscape:window-x="2489"
     inkscape:window-y="-9"
     inkscape:window-maximized="1"
     inkscape:current-layer="ICONS" />
  <defs
     id="defs4">
    <style
       id="style2">.cls-1,.cls-11,.cls-2{fill:none;}.cls-1,.cls-2{stroke:#414042;stroke-miterlimit:10;}.cls-2{stroke-dasharray:3.02 3.02;}.cls-3{fill:#80bceb;}.cls-4{fill:#aad2f2;}.cls-5{fill:#009580;}.cls-6{fill:#fff;}.cls-7{fill:#939598;}.cls-8{fill:#0050c5;}.cls-9{fill:#acacac;}.cls-10{fill:#464646;}.cls-11{stroke:#6d6e71;stroke-linecap:round;stroke-linejoin:round;stroke-width:4px;}.cls-12{fill:#0078d7;}.cls-13{fill:#558ad8;}.cls-14{fill:#4d4e4e;}.cls-15{fill:#55a5e4;}.cls-16{fill:#808285;}.cls-17{fill:#2b6942;}</style>
    <clipPath
       id="clipPath140"
       clipPathUnits="userSpaceOnUse">
      <path
         inkscape:connector-curvature="0"
         id="path138"
         d="m 4040.38,1358.71 c 0,-52.26 -42.77,-95.01 -95,-95.01 H 1042.82 c -52.257,0 -95.004,42.75 -95.004,95.01 v 4713.06 c 0,52.25 42.747,95 95.004,95 h 2902.56 c 52.23,0 95,-42.75 95,-95 z" />
    </clipPath>
    <radialGradient
       id="radialGradient146"
       spreadMethod="pad"
       gradientTransform="matrix(2049.5053,0,0,-2049.5053,2494.0909,3715.2321)"
       gradientUnits="userSpaceOnUse"
       r="1"
       cy="0"
       cx="0"
       fy="0"
       fx="0">
      <stop
         id="stop142"
         offset="0"
         style="stop-opacity:1;stop-color:#bbe9f4" />
      <stop
         id="stop144"
         offset="1"
         style="stop-opacity:1;stop-color:#98d4f4" />
    </radialGradient>
  </defs>
  <title
     id="title6">bot-framework-intelligence-smarter</title>
  <path
     class="cls-2"
     d="M157.14,85.52V92a30.09,30.09,0,0,0,30,30h3a30.09,30.09,0,0,0,30-30L220,89l1-43c0-16.5,14-35.5,30.5-35.5h3C271,10.5,283,29.5,283,46V93"
     id="path10" />
  <path
     class="cls-16"
     d="M188.29,112.24a1.57,1.57,0,0,0,1.47,1.08l3.3-.1a1.69,1.69,0,0,0,1.35-1.71l.19-4a2.34,2.34,0,0,1,1.63-2.46c.53-.48,1.3-.7,1.83-1.18a2.83,2.83,0,0,1,2.77.38l3.69,2.45a1.92,1.92,0,0,0,1.78-.17l2.4-2.68a1.76,1.76,0,0,0-.41-2l-2.89-3.17A2.06,2.06,0,0,1,205,96l-.24-.26A2.74,2.74,0,0,0,205.6,94c0-1,.6-2,2.38-2.17l3.83-.59a2,2,0,0,0,1.34-1.71L212.81,86a1.24,1.24,0,0,0-1.47-1.08l-4-.19a2.41,2.41,0,0,1-2.46-1.63c-.48-.53-.7-1.3-1.18-1.83a4.06,4.06,0,0,1,.14-3L206.22,75a1.83,1.83,0,0,0-.15-2.29l-2.7-1.9a1.54,1.54,0,0,0-2-.09l-2.93,3.16a2.58,2.58,0,0,1-2.82.63,7.83,7.83,0,0,0-2-.6l-.24-.26a2.66,2.66,0,0,1-1.93-2.11l-.56-4.33a1.57,1.57,0,0,0-1.47-1.08l-3.57.35A1.24,1.24,0,0,0,184.75,68l-.45,4.29c-.07,1.52-.6,2-1.37,2.22-.53.48-1.3.7-1.83,1.19a2.66,2.66,0,0,1-3-.14l-3.42-2.69a2,2,0,0,0-2,.41L170.19,76a2.24,2.24,0,0,0,.42,2l2.89,3.17c1,1.06,1.18,1.83.39,2.55,0,.51-.31,1.25-.36,2.27-.29.75-.58,1.49-2.36,1.67l-4.09.83A1.58,1.58,0,0,0,166,90l.34,3.56a1.61,1.61,0,0,0,1.21,1.32l4.31-.06c1.52.07,2,.6,2.22,1.37a22.63,22.63,0,0,1,1.16,2.33,2.27,2.27,0,0,1,.12,2.79l-2.69,3.43a2,2,0,0,0,.41,2l2.44,2.14a1.54,1.54,0,0,0,2,.09l2.93-3.16a2.58,2.58,0,0,1,2.82-.63l2.24.86c1,0,1.49.58,1.93,2.11l.83,4.09m9.93-23.12a8.9,8.9,0,0,1-8,9.27,8.26,8.26,0,0,1-9.26-8,8.5,8.5,0,0,1,7.76-9,8.61,8.61,0,0,1,9.52,7.78"
     id="path70" />
  <path
     class="cls-17"
     d="M249,43.58l1.18-2.29c.5-.84.89-1.07,1.5-.93l1.48-.13a1.59,1.59,0,0,1,1.56.83l1.21,2.37a1,1,0,0,0,1.22.29l1.81-.86a1.21,1.21,0,0,0,.59-1.14l-1-2.49a1.4,1.4,0,0,1,.53-1.6,14,14,0,0,1,1.08-1.19c.26-.44.64-.66,1.55-.44l2.55.76a1,1,0,0,0,.94-.58l.81-2.06a1,1,0,0,0-.39-1.06l-2.29-1.19c-1-.39-1.12-.9-1.12-1.39a10.52,10.52,0,0,0,.17-1.41c-.34-.56-.09-1,.66-1.45l2.26-1.39a1.38,1.38,0,0,0,.59-1.15l-1-2a1.22,1.22,0,0,0-1.15-.59l-2.49,1a1.64,1.64,0,0,1-1.83-.43c-.24-.36-.66-.62-.89-1-.44-.26-.66-.64-.44-1.55l.46-2.62v0a.77.77,0,0,0-.36-1L256.1,16a1,1,0,0,0-1.06.39l-1,2.47c-.28.57-1.72,1.06-1.72,1.06A4.84,4.84,0,0,0,251,20a1.6,1.6,0,0,1-1.57-.85l-1.19-2.36a1,1,0,0,0-1.22-.29l-1.93.67a1.13,1.13,0,0,0-.48,1.33l.9,2.3a2.5,2.5,0,0,1-.38,1.84c-.36.23-.62.65-1,.88a1.49,1.49,0,0,1-1.74.55l-2.44-.58-.05,0a.77.77,0,0,0-1,.41l-.81,2.06a1.24,1.24,0,0,0,.51,1.24l2.17,1c1,.4,1,3,1,3a1.27,1.27,0,0,1-.67,1.45L238.89,34a1,1,0,0,0-.59,1.15l1,2a1.18,1.18,0,0,0,1,.41l2.61-.83a1.75,1.75,0,0,1,1.71.25c.24.36.66.62.89,1a1.45,1.45,0,0,1,.5,1.73l-.57,2.43a1,1,0,0,0,.51,1.25l1.94.62a1,1,0,0,0,1.06-.39m-2-15.41,0-.12a5.32,5.32,0,0,1,7-2.88A5.25,5.25,0,0,1,257,31.83q-.07.24-.17.47A5.11,5.11,0,0,1,250.16,35a5.5,5.5,0,0,1-3.2-6.86"
     id="path72" />
  <path
     id="path16-8"
     style="fill:#3f2819;fill-opacity:1;fill-rule:nonzero;stroke:none;stroke-width:0.04075987"
     d="m 164.65738,45.677202 c 0,0 -0.77688,0.907316 -1.73596,2.027398 -0.95867,1.120082 -0.4883,1.750635 0.23111,2.366107 0.7186,0.615069 1.41355,0.982719 2.37263,-0.136953 l 1.73556,-2.027803 -2.60334,-2.228749"
     inkscape:connector-curvature="0" />
  <path
     id="path18-6"
     style="fill:#ffffff;fill-opacity:1;fill-rule:nonzero;stroke:none;stroke-width:0.04075987"
     d="m 170.65071,43.945317 -2.60374,-2.228749 -3.47192,4.056015 2.60334,2.228743 3.47232,-4.056009"
     inkscape:connector-curvature="0" />
  <path
     id="path20-9"
     style="fill:#3f2819;fill-opacity:1;fill-rule:nonzero;stroke:none;stroke-width:0.04075987"
     d="m 174.12305,39.889707 -2.60374,-2.228749 -3.47234,4.05561 2.60374,2.228749 3.47234,-4.05561"
     inkscape:connector-curvature="0" />
  <path
     id="path22-5"
     style="fill:#5bb7ae;fill-opacity:1;fill-rule:nonzero;stroke:none;stroke-width:0.04075987"
     d="m 171.68601,41.81439 c 1.50037,1.284343 3.75603,1.109077 5.03997,-0.390479 l 1.51626,-1.771017 c 0.36521,-0.427164 0.42716,-0.976607 0.13573,-1.226058 -0.29184,-0.24945 -0.81438,-0.115353 -1.16981,0.299588 l -0.644,0.752017 c -0.24864,0.290615 -0.68395,0.324449 -0.97498,0.075 l -0.0978,-0.08356 c -0.28898,-0.247413 -0.32281,-0.683546 -0.0746,-0.973756 l 0.98312,-1.148613 c 0.36725,-0.428382 0.31671,-1.073615 -0.11209,-1.440451 l -2.18309,-1.869248 c -0.4288,-0.366432 -1.07362,-0.316295 -1.44086,0.111683 l -1.87536,2.191654 c -1.28435,1.499966 -1.10908,3.755613 0.39129,5.040366 l 0.50623,0.432872"
     inkscape:connector-curvature="0" />
  <path
     id="path24-9"
     style="fill:#377768;fill-opacity:1;fill-rule:nonzero;stroke:none;stroke-width:0.04075987"
     d="m 158.28988,51.340785 c 0,1.660557 1.3463,3.006447 3.00644,3.006447 1.66016,0 3.00686,-1.34589 3.00686,-3.006447 0,-1.660557 -1.3467,-3.006856 -3.00686,-3.006856 -1.66014,0 -3.00644,1.346299 -3.00644,3.006856"
     inkscape:connector-curvature="0" />
  <path
     id="path26-7"
     style="fill:#3f2819;fill-opacity:1;fill-rule:nonzero;stroke:none;stroke-width:0.04075987"
     d="m 105.18181,45.677202 c 0,0 0.77729,0.907316 1.73596,2.027398 0.95908,1.120082 0.48831,1.750635 -0.2307,2.366107 -0.719,0.615069 -1.41396,0.982719 -2.37304,-0.136953 l -1.73515,-2.027803 2.60293,-2.228749"
     inkscape:connector-curvature="0" />
  <path
     id="path28-3"
     style="fill:#ffffff;fill-opacity:1;fill-rule:nonzero;stroke:none;stroke-width:0.04075987"
     d="m 99.188476,43.945317 2.603334,-2.228749 3.47233,4.056015 -2.60374,2.228743 -3.471924,-4.056009"
     inkscape:connector-curvature="0" />
  <path
     id="path30-2"
     style="fill:#3f2819;fill-opacity:1;fill-rule:nonzero;stroke:none;stroke-width:0.04075987"
     d="m 95.716144,39.889707 2.60374,-2.228749 3.471926,4.05561 -2.603334,2.228749 -3.472332,-4.05561"
     inkscape:connector-curvature="0" />
  <path
     id="path32-1"
     style="fill:#5bb7ae;fill-opacity:1;fill-rule:nonzero;stroke:none;stroke-width:0.04075987"
     d="m 98.153177,41.81439 c -1.499964,1.284343 -3.756023,1.109077 -5.039552,-0.390479 l -1.516674,-1.771017 c -0.36521,-0.427164 -0.427162,-0.976607 -0.13573,-1.226058 0.291841,-0.24945 0.814382,-0.115353 1.169809,0.299588 l 0.644004,0.752017 c 0.248637,0.290615 0.683953,0.324449 0.974978,0.075 l 0.09782,-0.08356 c 0.288987,-0.247413 0.322819,-0.683546 0.07418,-0.973756 l -0.983128,-1.148613 c -0.36684,-0.428382 -0.315889,-1.073615 0.112906,-1.440451 l 2.183098,-1.869248 c 0.428385,-0.366432 1.073208,-0.316295 1.440047,0.111683 l 1.875769,2.191654 c 1.283936,1.499966 1.109076,3.755613 -0.390888,5.040366 l -0.506644,0.432872"
     inkscape:connector-curvature="0" />
  <path
     id="path34"
     style="fill:#377768;fill-opacity:1;fill-rule:nonzero;stroke:none;stroke-width:0.04075987"
     d="m 111.54931,51.340785 c 0,1.660557 -1.34629,3.006447 -3.00644,3.006447 -1.66015,0 -3.00645,-1.34589 -3.00645,-3.006447 0,-1.660557 1.3463,-3.006856 3.00645,-3.006856 1.66015,0 3.00644,1.346299 3.00644,3.006856"
     inkscape:connector-curvature="0" />
  <path
     id="path88"
     style="fill:#ecbb45;fill-opacity:1;fill-rule:nonzero;stroke:none;stroke-width:0.04075987"
     d="m 140.58868,17.722047 c -2.12807,0 -3.85914,-1.731071 -3.85914,-3.858738 0,-2.128071 1.73107,-3.859142 3.85914,-3.859142 2.12808,0 3.85915,1.731071 3.85915,3.859142 0,2.127667 -1.73107,3.858738 -3.85915,3.858738 z m -15.15289,-3.858738 c 0,-2.128071 1.73067,-3.859142 3.85874,-3.859142 2.12807,0 3.85873,1.731071 3.85873,3.859142 0,2.127667 -1.73066,3.858738 -3.85873,3.858738 -2.12807,0 -3.85874,-1.731071 -3.85874,-3.858738 z m 15.15289,-6.8708923 c -2.3388,0 -4.40573,1.176331 -5.64687,2.966911 -1.24114,-1.79058 -3.30848,-2.966911 -5.64728,-2.966911 -3.78822,0 -6.87048,3.0822643 -6.87048,6.8708923 0,3.788634 3.08226,6.870482 6.87048,6.870482 0.16182,0 0.31997,-0.01346 0.47934,-0.02447 h 3.75602 v 7.083254 h 3.01175 v -7.083254 h 3.56771 c 0.15978,0.011 0.31792,0.02447 0.47933,0.02447 3.78823,0 6.87089,-3.081848 6.87089,-6.870482 0,-3.788628 -3.08266,-6.8708923 -6.87089,-6.8708923"
     inkscape:connector-curvature="0" />
  <path
     id="path232"
     style="fill:#ec454e;fill-opacity:1;fill-rule:nonzero;stroke:none;stroke-width:0.04075987"
     d="m 115.6143,123.00316 c 0,-2.93512 2.37996,-5.31468 5.31549,-5.31468 2.93512,0 5.31549,2.37956 5.31549,5.31468 0,2.93634 -2.38037,5.31631 -5.31549,5.31631 -2.93553,0 -5.31549,-2.37997 -5.31549,-5.31631"
     inkscape:connector-curvature="0" />
  <path
     id="path234"
     style="fill:#d8c233;fill-opacity:1;fill-rule:nonzero;stroke:none;stroke-width:0.04075987"
     d="m 117.59889,122.77898 c 0,-1.75757 1.42416,-3.18171 3.18172,-3.18171 1.75716,0 3.18171,1.42414 3.18171,3.18171 0,1.75716 -1.42455,3.18172 -3.18171,3.18172 -1.75756,0 -3.18172,-1.42456 -3.18172,-3.18172"
     inkscape:connector-curvature="0" />
  <path
     id="path236"
     style="fill:#39221b;fill-opacity:1;fill-rule:nonzero;stroke:none;stroke-width:0.04075987"
     d="m 118.83433,122.77898 c 0,-1.07524 0.87104,-1.94669 1.94628,-1.94669 1.07484,0 1.94628,0.87145 1.94628,1.94669 0,1.07525 -0.87144,1.94629 -1.94628,1.94629 -1.07524,0 -1.94628,-0.87104 -1.94628,-1.94629"
     inkscape:connector-curvature="0" />
  <path
     id="path238"
     style="fill:#ec454e;fill-opacity:1;fill-rule:nonzero;stroke:none;stroke-width:0.04075987"
     d="m 128.88408,123.00316 c 0,-2.93512 2.38038,-5.31468 5.31549,-5.31468 2.93512,0 5.3155,2.37956 5.3155,5.31468 0,2.93634 -2.38038,5.31631 -5.3155,5.31631 -2.93511,0 -5.31549,-2.37997 -5.31549,-5.31631"
     inkscape:connector-curvature="0" />
  <path
     id="path240"
     style="fill:#d8c233;fill-opacity:1;fill-rule:nonzero;stroke:none;stroke-width:0.04075987"
     d="m 130.86868,122.77898 c 0,-1.75757 1.42455,-3.18171 3.18171,-3.18171 1.75756,0 3.18172,1.42414 3.18172,3.18171 0,1.75716 -1.42416,3.18172 -3.18172,3.18172 -1.75716,0 -3.18171,-1.42456 -3.18171,-3.18172"
     inkscape:connector-curvature="0" />
  <path
     id="path242"
     style="fill:#39221b;fill-opacity:1;fill-rule:nonzero;stroke:none;stroke-width:0.04075987"
     d="m 132.10411,122.77898 c 0,-1.07524 0.87145,-1.94669 1.94628,-1.94669 1.07525,0 1.94629,0.87145 1.94629,1.94669 0,1.07525 -0.87104,1.94629 -1.94629,1.94629 -1.07483,0 -1.94628,-0.87104 -1.94628,-1.94629"
     inkscape:connector-curvature="0" />
  <path
     id="path244"
     style="fill:#ec454e;fill-opacity:1;fill-rule:nonzero;stroke:none;stroke-width:0.04075987"
     d="m 142.15427,123.00316 c 0,-2.93512 2.38038,-5.31468 5.31549,-5.31468 2.93512,0 5.3155,2.37956 5.3155,5.31468 0,2.93634 -2.38038,5.31631 -5.3155,5.31631 -2.93511,0 -5.31549,-2.37997 -5.31549,-5.31631"
     inkscape:connector-curvature="0" />
  <path
     id="path246"
     style="fill:#d8c233;fill-opacity:1;fill-rule:nonzero;stroke:none;stroke-width:0.04075987"
     d="m 144.13887,122.77898 c 0,-1.75757 1.42415,-3.18171 3.18171,-3.18171 1.75716,0 3.18131,1.42414 3.18131,3.18171 0,1.75716 -1.42415,3.18172 -3.18131,3.18172 -1.75756,0 -3.18171,-1.42456 -3.18171,-3.18172"
     inkscape:connector-curvature="0" />
  <path
     id="path248"
     style="fill:#39221b;fill-opacity:1;fill-rule:nonzero;stroke:none;stroke-width:0.04075987"
     d="m 145.37389,122.77898 c 0,-1.07524 0.87145,-1.94669 1.94669,-1.94669 1.07484,0 1.94629,0.87145 1.94629,1.94669 0,1.07525 -0.87145,1.94629 -1.94629,1.94629 -1.07524,0 -1.94669,-0.87104 -1.94669,-1.94629"
     inkscape:connector-curvature="0" />
  <path
     id="path258"
     style="fill:none;stroke:#9f5641;stroke-width:0.40759864;stroke-linecap:butt;stroke-linejoin:miter;stroke-miterlimit:10;stroke-dasharray:none;stroke-opacity:1"
     d="m 139.8277,84.601656 c 0,0 -3.38307,3.1222 -6.85011,3.36228 -3.46703,0.24048 -4.78724,-0.20054 -4.78724,-1.28109 0,-1.08013 4.59119,-2.12155 9.54311,0.35991 2.24586,1.12498 2.382,2.07305 1.70539,2.87073 v 0 c 0,0 -2.99422,2.61311 -6.46126,2.85359 -3.46703,0.24008 -4.78724,-0.20054 -4.78724,-1.28108 0,-1.08014 4.64173,-2.15049 9.59406,0.33056 2.49776,1.25174 2.41135,2.45904 1.55295,3.11772 v 0 c -1.43557,1.04712 -2.89273,1.91898 -6.35977,2.15905 -3.46703,0.24049 -4.78724,-0.20012 -4.78724,-1.28067 0,-1.08055 4.59119,-2.12196 9.54311,0.35991 2.24586,1.12497 2.382,2.07305 1.70539,2.87031 v 0 c 0,0 -2.99422,2.613114 -6.46126,2.853194 -3.46703,0.24049 -4.78724,-0.20054 -4.78724,-1.28068 0,-1.080134 4.66333,-1.920604 9.61525,0.56086 2.49777,1.25173 2.44518,2.13011 1.59045,2.87601 -1.2876,1.12417 -3.14096,2.13175 -6.41846,2.35878 -3.46703,0.24049 -4.78724,-0.20094 -4.78724,-1.28068 0,-1.08013 4.59119,-2.12155 9.54311,0.35951 2.24586,1.12497 2.382,2.07346 1.70539,2.87031 v 0 c 0,0 -2.99422,2.61352 -6.46126,2.854 -3.46703,0.24049 -4.78724,-0.20094 -4.78724,-1.28108 0,-1.08014 4.66333,-1.92061 9.61525,0.56126 2.49777,1.25133 2.4403,2.33677 1.68339,3.1805"
     inkscape:connector-curvature="0" />
  <path
     id="path318"
     style="fill:#f27142;fill-opacity:1;fill-rule:nonzero;stroke:none;stroke-width:0.04075987"
     d="m 156.5266,48.09059 c 0.002,-0.156517 0.0114,-0.311811 0.0114,-0.469552 0,-11.847258 -9.60465,-21.451508 -21.45151,-21.451508 -11.84726,0 -21.45151,9.60425 -21.45151,21.451508 0,0.157741 0.009,0.313035 0.0114,0.469552 h -5.17852 v 36.796386 h 52.92383 V 48.09059 h -4.8651"
     inkscape:connector-curvature="0" />
  <path
     id="path320"
     style="fill:#3d8074;fill-opacity:1;fill-rule:nonzero;stroke:none;stroke-width:0.04075987"
     d="m 113.02727,119.55895 c 5.36522,-5.364 13.19805,-8.00075 21.38058,-8.00075 7.6971,0 15.29393,2.08609 20.34407,7.13582 2.28826,2.28867 -9.55737,2.10281 -21.24404,2.27808 -11.40176,0.17078 -22.65189,0.75772 -20.48061,-1.41315"
     inkscape:connector-curvature="0" />
  <path
     id="path324"
     style="fill:#f0ba49;fill-opacity:1;fill-rule:nonzero;stroke:none;stroke-width:0.04075987"
     d="m 124.86434,70.156356 c -0.0517,-0.0664 -0.88001,-1.14005 -0.24048,-2.44559 l 0.0991,-0.20502 c 0.77118,-1.60146 2.57765,-5.352185 9.04462,-5.412098 h 0.14836 c 6.46696,0.05991 8.27344,3.810638 9.0442,5.412098 l 0.0995,0.20502 c 0.64604,1.31939 -0.2148,2.41217 -0.22336,2.42276 l -3.16134,4.54229 -5.83233,-0.0139 -5.83396,0.0139 -3.14421,-4.51946"
     inkscape:connector-curvature="0" />
  <path
     id="path326"
     style="fill:#4c271d;fill-opacity:1;fill-rule:nonzero;stroke:none;stroke-width:0.04075987"
     d="m 133.91955,61.679936 c -0.0273,0 -0.0505,0.0035 -0.0778,0.0035 -0.0273,0 -0.0509,-0.0035 -0.0783,-0.0035 v 0.0061 c -7.00702,0.06481 -8.74991,4.3022 -9.5056,5.84537 -0.76791,1.56763 0.27187,2.85808 0.27187,2.85808 l 3.26608,4.69432 6.04591,-0.0143 6.04551,0.0143 3.26609,-4.69432 c 0,0 1.03978,-1.29045 0.27228,-2.85808 -0.75569,-1.54317 -2.49859,-5.780558 -9.50602,-5.84537 z m -0.0978,0.820494 0.0905,0.0012 c 6.21343,0.05748 7.8797,3.517986 8.68063,5.181396 l 0.10027,0.20747 c 0.52132,1.06464 -0.15081,1.95688 -0.17445,1.98786 l -0.018,0.0224 -0.0163,0.0236 -3.02276,4.34378 -5.622,-0.0135 -5.61835,0.0135 -3.02234,-4.34378 -0.0163,-0.0241 -0.0179,-0.022 c -0.007,-0.009 -0.7084,-0.89916 -0.17486,-1.98786 l 0.10027,-0.20747 c 0.80093,-1.66341 2.4672,-5.123919 8.68104,-5.18139 l 0.0505,-0.0012"
     inkscape:connector-curvature="0" />
  <path
     id="path328"
     style="fill:#3b221a;fill-opacity:1;fill-rule:nonzero;stroke:none;stroke-width:0.04075987"
     d="m 132.13957,73.898516 -1.52809,-5.85433 4.67516,5.89795"
     inkscape:connector-curvature="0" />
  <path
     id="path334"
     style="fill:#ed3e58;fill-opacity:1;fill-rule:nonzero;stroke:none;stroke-width:0.04075987"
     d="m 126.89377,41.1712 c 0,-4.394729 3.56242,-7.957139 7.95756,-7.957139 4.39473,0 7.95714,3.56241 7.95714,7.957139 0,4.394319 -3.56241,7.957139 -7.95714,7.957139 -4.39514,0 -7.95756,-3.56282 -7.95756,-7.957139"
     inkscape:connector-curvature="0" />
  <path
     id="path336"
     style="fill:#dcefdf;fill-opacity:1;fill-rule:nonzero;stroke:none;stroke-width:0.04075987"
     d="m 129.80607,41.015087 c 0,-2.642052 2.14234,-4.784389 4.7848,-4.784389 2.64287,0 4.7848,2.142337 4.7848,4.784389 0,2.642461 -2.14193,4.784803 -4.7848,4.784803 -2.64246,0 -4.7848,-2.142342 -4.7848,-4.784803"
     inkscape:connector-curvature="0" />
  <path
     id="path338"
     style="fill:#40231a;fill-opacity:1;fill-rule:nonzero;stroke:none;stroke-width:0.04075987"
     d="m 131.9908,41.015087 c 0,-1.435967 1.1641,-2.600479 2.60007,-2.600479 1.43597,0 2.60007,1.164512 2.60007,2.600479 0,1.436382 -1.1641,2.600484 -2.60007,2.600484 -1.43597,0 -2.60007,-1.164102 -2.60007,-2.600484"
     inkscape:connector-curvature="0" />
  <path
     id="path412"
     style="fill:#377768;fill-opacity:1;fill-rule:nonzero;stroke:none;stroke-width:0.04075987"
     d="m 115.57394,31.350924 c -2.94041,0 -5.32364,2.383229 -5.32364,5.323235 0,2.236904 1.38094,4.148949 3.33619,4.936837 0.96438,-3.489449 2.78676,-6.620621 5.22786,-9.153442 -0.89794,-0.691285 -2.01924,-1.10663 -3.24041,-1.10663"
     inkscape:connector-curvature="0" />
  <path
     id="path414"
     style="fill:#377768;fill-opacity:1;fill-rule:nonzero;stroke:none;stroke-width:0.04075987"
     d="m 160.18766,36.731227 c 0,-2.940006 -2.38323,-5.323645 -5.32365,-5.323645 -1.2603,0 -2.41706,0.440616 -3.32845,1.17266 2.41502,2.537299 4.21497,5.663583 5.16183,9.144065 2.03514,-0.747937 3.49027,-2.6983 3.49027,-4.99308"
     inkscape:connector-curvature="0" />
  <path
     id="path122"
     style="fill:#fffffc;fill-opacity:1;fill-rule:nonzero;stroke:none;stroke-width:0.0145903"
     d="m 326.52876,54.503196 c 0,0.540127 -0.43828,0.978142 -0.97857,0.978142 v 0 c -0.54029,0 -0.97814,-0.438015 -0.97814,-0.978142 v -6.02098 c 0,-0.540716 0.43785,-0.978573 0.97814,-0.978573 v 0 c 0.54029,0 0.97857,0.437857 0.97857,0.978573 v 6.02098"
     inkscape:connector-curvature="0" />
  <path
     id="path124"
     style="fill:#fffffc;fill-opacity:1;fill-rule:nonzero;stroke:none;stroke-width:0.0145903"
     d="m 326.52876,65.321617 c 0,0.540128 -0.43828,0.978573 -0.97857,0.978573 v 0 c -0.54029,0 -0.97814,-0.438445 -0.97814,-0.978573 v -6.02098 c 0,-0.540285 0.43785,-0.978572 0.97814,-0.978572 v 0 c 0.54029,0 0.97857,0.438287 0.97857,0.978572 v 6.02098"
     inkscape:connector-curvature="0" />
  <path
     id="path126"
     style="fill:#fffffc;fill-opacity:1;fill-rule:nonzero;stroke:none;stroke-width:0.0145903"
     d="m 288.7565,126.79382 h 19.33493 v -8.52394 H 288.7565 Z"
     inkscape:connector-curvature="0" />
  <path
     id="path128"
     style="fill:#fffffc;fill-opacity:1;fill-rule:nonzero;stroke:none;stroke-width:0.0145903"
     d="m 316.69402,40.784513 c 0,1.7148 -7.28333,3.105256 -16.2679,3.105256 -8.98485,0 -16.26819,-1.390456 -16.26819,-3.105256 0,-1.714942 7.28334,-3.105249 16.26819,-3.105249 8.98457,0 16.2679,1.390307 16.2679,3.105249"
     inkscape:connector-curvature="0" />
  <path
     id="path130"
     style="fill:#244b7a;fill-opacity:1;fill-rule:nonzero;stroke:none;stroke-width:0.0145903"
     d="m 292.58938,124.01043 c -0.80831,0 -1.46443,-0.65583 -1.46443,-1.46491 0,-0.80821 0.65612,-1.46273 1.46443,-1.46273 0.80874,0 1.46428,0.65452 1.46428,1.46273 0,0.80908 -0.65554,1.46491 -1.46428,1.46491 z m 6.39668,2.19949 c -2.02484,0 -3.66392,-1.64084 -3.66392,-3.6644 0,-2.02353 1.63908,-3.66349 3.66392,-3.66349 0.20704,0 0.40998,0.0214 0.60798,0.0554 v -2.12246 l -11.02458,-9.61384 -8.35631,-59.244948 19.38089,-2.418633 V 42.0392 h -11.68231 c -0.81356,0 -1.47363,-0.658753 -1.47363,-1.473335 0,-0.813406 0.66007,-1.47216 1.47363,-1.47216 h 11.68231 v -3.498751 h -21.29922 c -3.44851,0 -6.26991,2.822781 -6.26991,6.270037 v 80.282949 c 0,3.45118 2.8214,6.26916 6.26991,6.26581 h 21.29922 V 126.156 c -0.198,0.0329 -0.40094,0.054 -0.60798,0.054"
     inkscape:connector-curvature="0" />
  <path
     id="path132"
     style="fill:#1a3551;fill-opacity:1;fill-rule:nonzero;stroke:none;stroke-width:0.0145903"
     d="m 305.38186,124.01043 c -0.80917,0 -1.46413,-0.65583 -1.46413,-1.46491 0,-0.80821 0.65496,-1.46273 1.46413,-1.46273 0.80846,0 1.46428,0.65452 1.46428,1.46273 0,0.80908 -0.65582,1.46491 -1.46428,1.46491 z m 14.2934,-88.415536 h -20.08122 v 3.498753 h 10.46518 c 0.81473,0 1.47392,0.658752 1.47392,1.472158 0,0.814583 -0.65919,1.473335 -1.47392,1.473335 h -10.46518 v 3.498311 l 19.72288,2.525592 -2.24997,66.423097 -17.47291,2.32874 v 2.12247 c 1.73348,0.29019 3.05506,1.79272 3.05506,3.60817 0,1.81549 -1.32158,3.31976 -3.05506,3.61042 v 2.25775 h 20.08122 c 3.45367,0 6.2709,-2.81981 6.2709,-6.27054 V 41.864931 c 0,-3.452068 -2.82278,-6.270037 -6.2709,-6.270037"
     inkscape:connector-curvature="0" />
  <g
     id="g134"
     transform="matrix(0.0145903,0,0,-0.0145903,262.63446,135.25267)">
    <g
       clip-path="url(#clipPath140)"
       id="g136">
      <path
         id="path148"
         style="fill:url(#radialGradient146);fill-opacity:1;fill-rule:nonzero;stroke:none"
         d="m 4040.38,1358.71 c 0,-52.26 -42.77,-95.01 -95,-95.01 H 1042.82 c -52.257,0 -95.004,42.75 -95.004,95.01 v 4713.06 c 0,52.25 42.747,95 95.004,95 h 2902.56 c 52.23,0 95,-42.75 95,-95 V 1358.71"
         inkscape:connector-curvature="0" />
    </g>
  </g>
  <path
     id="path150"
     style="fill:#fffffc;fill-opacity:1;fill-rule:nonzero;stroke:none;stroke-width:0.0145903"
     d="m 313.73131,60.173576 c 0,1.070924 -0.869,1.939934 -1.9405,1.939934 h -31.69992 c -1.07152,0 -1.94023,-0.86901 -1.94023,-1.939934 v -8.884478 c 0,-1.071513 0.86871,-1.94007 1.94023,-1.94007 h 31.69992 c 1.0715,0 1.9405,0.868557 1.9405,1.94007 v 8.884478"
     inkscape:connector-curvature="0" />
  <path
     id="path152"
     style="fill:#e46b57;fill-opacity:1;fill-rule:nonzero;stroke:none;stroke-width:0.0145903"
     d="m 280.09089,49.672203 c -0.89147,0 -1.61676,0.725285 -1.61676,1.616895 v 8.884478 c 0,0.89118 0.72529,1.616306 1.61676,1.616306 h 31.69992 c 0.89175,0 1.61688,-0.725126 1.61688,-1.616306 v -8.884478 c 0,-0.89161 -0.72513,-1.616895 -1.61688,-1.616895 z m 31.69992,12.764617 h -31.69992 c -1.2482,0 -2.26355,-1.015486 -2.26355,-2.263244 v -8.884478 c 0,-1.247759 1.01535,-2.263686 2.26355,-2.263686 h 31.69992 c 1.24834,0 2.26367,1.015927 2.26367,2.263686 v 8.884478 c 0,1.247758 -1.01533,2.263244 -2.26367,2.263244"
     inkscape:connector-curvature="0" />
  <path
     id="path154"
     style="fill:#fffffc;fill-opacity:1;fill-rule:nonzero;stroke:none;stroke-width:0.0145903"
     d="m 319.64228,77.442228 c 0,1.071944 -0.86856,1.94007 -1.94007,1.94007 h -31.70007 c -1.07165,0 -1.94022,-0.868126 -1.94022,-1.94007 v -8.8839 c 0,-1.071513 0.86857,-1.94007 1.94022,-1.94007 h 31.70007 c 1.07151,0 1.94007,0.868557 1.94007,1.94007 v 8.8839"
     inkscape:connector-curvature="0" />
  <path
     id="path156"
     style="fill:#e46b57;fill-opacity:1;fill-rule:nonzero;stroke:none;stroke-width:0.0145903"
     d="m 286.00214,66.941875 c -0.89146,0 -1.61675,0.724695 -1.61675,1.616453 v 8.8839 c 0,0.891746 0.72529,1.616895 1.61675,1.616895 h 31.70007 c 0.89162,0 1.6169,-0.725149 1.6169,-1.616895 v -8.8839 c 0,-0.891758 -0.72528,-1.616453 -1.6169,-1.616453 z m 31.70007,12.764028 h -31.70007 c -1.2482,0 -2.26354,-1.015486 -2.26354,-2.263675 v -8.8839 c 0,-1.248336 1.01534,-2.263392 2.26354,-2.263392 h 31.70007 c 1.2482,0 2.26369,1.015056 2.26369,2.263392 v 8.8839 c 0,1.248189 -1.01549,2.263675 -2.26369,2.263675"
     inkscape:connector-curvature="0" />
  <path
     id="path158"
     style="fill:#9ed5ed;fill-opacity:1;fill-rule:nonzero;stroke:none;stroke-width:0.0145903"
     d="m 282.31576,52.084858 v 1.339974 h 1.29824 v -1.339974 h 0.78642 v 3.486794 H 283.614 v -1.458891 h -1.29824 v 1.458891 h -0.79152 v -3.486794 h 0.79152"
     inkscape:connector-curvature="0" />
  <path
     id="path160"
     style="fill:#9ed5ed;fill-opacity:1;fill-rule:nonzero;stroke:none;stroke-width:0.0145903"
     d="m 286.57861,54.01939 c 0,-0.191294 -0.0828,-0.511978 -0.44501,-0.511978 -0.33106,0 -0.46542,0.300121 -0.486,0.511978 z m -0.92605,0.538078 c 0.026,0.326243 0.34667,0.48119 0.71405,0.48119 0.2689,0 0.48615,-0.03589 0.6983,-0.103154 l 0.10349,0.532541 c -0.25869,0.103607 -0.57413,0.155388 -0.91554,0.155388 -0.85879,0 -1.35033,-0.496511 -1.35033,-1.288477 0,-0.641379 0.39832,-1.350177 1.27767,-1.350177 0.8175,0 1.12783,0.636567 1.12783,1.262343 0,0.134383 -0.0155,0.253877 -0.0258,0.310334 h -1.62958"
     inkscape:connector-curvature="0" />
  <path
     id="path162"
     style="fill:#9ed5ed;fill-opacity:1;fill-rule:nonzero;stroke:none;stroke-width:0.0145903"
     d="m 287.77895,55.571652 h 0.78628 v -3.672948 h -0.78628 z"
     inkscape:connector-curvature="0" />
  <path
     id="path164"
     style="fill:#9ed5ed;fill-opacity:1;fill-rule:nonzero;stroke:none;stroke-width:0.0145903"
     d="m 289.2018,55.571652 h 0.78622 v -3.672948 h -0.78622 z"
     inkscape:connector-curvature="0" />
  <path
     id="path166"
     style="fill:#9ed5ed;fill-opacity:1;fill-rule:nonzero;stroke:none;stroke-width:0.0145903"
     d="m 291.29172,54.304044 c 0,0.434493 0.18106,0.760295 0.51737,0.760295 0.30508,0 0.50176,-0.304786 0.50176,-0.760295 0,-0.377448 -0.14489,-0.76016 -0.50176,-0.76016 -0.37774,0 -0.51737,0.387808 -0.51737,0.76016 z m 1.83122,-0.0257 c 0,0.926055 -0.65701,1.350188 -1.33457,1.350188 -0.73987,0 -1.3089,-0.486297 -1.3089,-1.303503 0,-0.817624 0.53809,-1.340257 1.35019,-1.340257 0.77606,0 1.29328,0.532982 1.29328,1.293572"
     inkscape:connector-curvature="0" />
  <path
     id="path168"
     style="fill:#9ed5ed;fill-opacity:1;fill-rule:nonzero;stroke:none;stroke-width:0.0145903"
     d="m 293.69241,54.428202 -0.11907,-2.343344 h 0.82261 l -0.11381,2.343344 z m -0.17057,0.729519 c 0,-0.27401 0.19129,-0.470976 0.46558,-0.470976 0.27416,0 0.45521,0.196966 0.46032,0.470976 0,0.268756 -0.18106,0.470818 -0.46032,0.470818 -0.27955,0 -0.46558,-0.202062 -0.46558,-0.470818"
     inkscape:connector-curvature="0" />
  <path
     id="path170"
     style="fill:#9ed5ed;fill-opacity:1;fill-rule:nonzero;stroke:none;stroke-width:0.0145903"
     d="m 310.24583,76.156661 c 0,-0.279105 0.19144,-0.48119 0.46573,-0.48119 0.274,0 0.46032,0.196537 0.46032,0.48119 0,0.274452 -0.18632,0.476095 -0.46542,0.476095 -0.26919,0 -0.46063,-0.201643 -0.46063,-0.476095"
     inkscape:connector-curvature="0" />
  <path
     id="path172"
     style="fill:#9ed5ed;fill-opacity:1;fill-rule:nonzero;stroke:none;stroke-width:0.0145903"
     d="m 312.63587,76.156661 c 0,-0.279105 0.19187,-0.48119 0.46572,-0.48119 0.27444,0 0.46019,0.196537 0.46019,0.48119 0,0.274452 -0.18575,0.476095 -0.46529,0.476095 -0.26875,0 -0.46062,-0.201643 -0.46062,-0.476095"
     inkscape:connector-curvature="0" />
  <path
     id="path174"
     style="fill:#9ed5ed;fill-opacity:1;fill-rule:nonzero;stroke:none;stroke-width:0.0145903"
     d="m 315.02621,76.156661 c 0,-0.279105 0.19141,-0.48119 0.46585,-0.48119 0.27387,0 0.46019,0.196537 0.46019,0.48119 0,0.274452 -0.18632,0.476095 -0.46572,0.476095 -0.26891,0 -0.46032,-0.201643 -0.46032,-0.476095"
     inkscape:connector-curvature="0" />
  <path
     id="path176"
     style="fill:#dde1e3;fill-opacity:1;fill-rule:nonzero;stroke:none;stroke-width:0.0145903"
     d="m 276.46338,115.42867 c 0,0.76248 0.6237,1.38621 1.38613,1.38621 h 42.34925 c 0.76205,0 1.38607,-0.62373 1.38607,-1.38621 V 85.808602 h -45.12145 v 29.620068"
     inkscape:connector-curvature="0" />
  <path
     id="path178"
     style="fill:#adadac;fill-opacity:1;fill-rule:nonzero;stroke:none;stroke-width:0.0145903"
     d="m 276.44287,93.728934 h 45.12052 v -7.210572 h -45.12052 z"
     inkscape:connector-curvature="0" />
  <path
     id="path180"
     style="fill:#ffffff;fill-opacity:1;fill-rule:nonzero;stroke:none;stroke-width:0.0145903"
     d="m 277.51832,92.752411 h 37.79604 v -5.258092 h -37.79604 z"
     inkscape:connector-curvature="0" />
  <path
     id="path182"
     style="fill:#ffffff;fill-opacity:1;fill-rule:nonzero;stroke:none;stroke-width:0.0145903"
     d="m 317.3341,90.003311 h 1.66387 v -1.355737 c -0.0155,-0.06885 -0.20499,-0.867254 -0.83223,-0.867254 -0.62621,0 -0.81589,0.768765 -0.83164,0.837339 z m 1.76878,0.105758 h -1.87412 l 10e-4,-1.507331 c 10e-4,-0.0091 0.19726,-0.92678 0.93567,-0.92678 0.73886,0 0.93451,0.947354 0.93671,0.956843 l 3.7e-4,0.01019 v 1.467066"
     inkscape:connector-curvature="0" />
  <path
     id="path184"
     style="fill:#ffffff;fill-opacity:1;fill-rule:nonzero;stroke:none;stroke-width:0.0145903"
     d="m 317.33745,90.263167 c 0.0188,0.224391 0.13613,1.047134 0.82829,1.047134 0.68371,0 0.80786,-0.82537 0.82844,-1.047134 z m 0.82829,1.152043 c -0.8865,0 -0.93655,-1.190576 -0.93698,-1.202975 l -0.002,-0.05401 h 1.8785 l -0.002,0.05401 c -3.8e-4,0.01245 -0.05,1.202975 -0.93714,1.202975"
     inkscape:connector-curvature="0" />
  <path
     id="path186"
     style="fill:#ffffff;fill-opacity:1;fill-rule:nonzero;stroke:none;stroke-width:0.0145903"
     d="m 318.53736,92.225996 h -0.30523 v -0.493159 l 0.038,-0.0023 c 0.3048,-0.01574 0.55619,-0.124158 0.74659,-0.322291 0.42517,-0.442228 0.40153,-1.168678 0.40022,-1.199035 -0.001,-0.02276 -0.0192,-0.0402 -0.0428,-0.0402 -0.0226,0.0011 -0.0402,0.02061 -0.0399,0.04326 3.8e-4,0.0068 0.0243,0.721355 -0.37745,1.139214 -0.19099,0.198564 -0.44924,0.299544 -0.76847,0.299544 -0.31851,0 -0.58055,-0.101003 -0.77826,-0.299544 -0.41174,-0.415243 -0.41348,-1.133235 -0.41348,-1.140516 3.8e-4,-0.02265 -0.0183,-0.04144 -0.0412,-0.04144 -0.0223,0 -0.0416,0.0188 -0.0416,0.04054 -3.8e-4,0.03091 -7e-4,0.756955 0.43713,1.19874 0.18661,0.187784 0.42589,0.295309 0.71142,0.319235 l 0.0369,0.0023 v 0.494902 h -0.3048 v 0.16473 h -0.49242 v 0.08436 h 1.72778 v -0.08436 h -0.49271 v -0.16473"
     inkscape:connector-curvature="0" />
  <path
     id="path188"
     style="fill:#404449;fill-opacity:1;fill-rule:nonzero;stroke:none;stroke-width:0.05614754"
     d="m 279.24498,105.01086 h 19.15656 v -9.936936 h -19.15656 z"
     inkscape:connector-curvature="0" />
  <path
     id="path188-8"
     style="fill:#404449;fill-opacity:1;fill-rule:nonzero;stroke:none;stroke-width:0.05614754"
     d="m 300.07362,105.14546 h 19.15656 v -9.936942 h -19.15656 z"
     inkscape:connector-curvature="0" />
  <path
     id="path188-6"
     style="fill:#404449;fill-opacity:1;fill-rule:nonzero;stroke:none;stroke-width:0.05614754"
     d="m 279.25756,115.69982 h 19.15656 v -9.93693 h -19.15656 z"
     inkscape:connector-curvature="0" />
  <path
     id="path188-8-1"
     style="fill:#404449;fill-opacity:1;fill-rule:nonzero;stroke:none;stroke-width:0.05614754"
     d="m 300.0862,115.83442 h 19.15656 v -9.93694 H 300.0862 Z"
     inkscape:connector-curvature="0" />
  <text
     xml:space="preserve"
     style="font-style:normal;font-weight:normal;font-size:5.33333333px;line-height:1.25;font-family:sans-serif;letter-spacing:0px;word-spacing:0px;fill:#000000;fill-opacity:1;stroke:none;"
     x="281.27832"
     y="101.82875"
     id="text419"><tspan
       sodipodi:role="line"
       id="tspan417"
       x="281.27832"
       y="111.56027" /></text>
  <text
     xml:space="preserve"
     style="font-style:normal;font-weight:normal;font-size:3.4386344px;line-height:1.25;font-family:sans-serif;letter-spacing:0px;word-spacing:0px;fill:#000000;fill-opacity:1;stroke:none;stroke-width:0.32237196"
     x="281.89279"
     y="100.99356"
     id="text423"><tspan
       sodipodi:role="line"
       id="tspan421"
       x="281.89279"
       y="100.99356"
       style="fill:#ffffff;stroke-width:0.32237196">Option 1</tspan></text>
  <text
     xml:space="preserve"
     style="font-style:normal;font-weight:normal;font-size:3.4386344px;line-height:1.25;font-family:sans-serif;letter-spacing:0px;word-spacing:0px;fill:#000000;fill-opacity:1;stroke:none;stroke-width:0.32237196"
     x="302.28027"
     y="100.99356"
     id="text423-4"><tspan
       sodipodi:role="line"
       id="tspan421-5"
       x="302.28027"
       y="100.99356"
       style="fill:#ffffff;stroke-width:0.32237196">Option 2</tspan></text>
  <text
     xml:space="preserve"
     style="font-style:normal;font-weight:normal;font-size:3.4386344px;line-height:1.25;font-family:sans-serif;letter-spacing:0px;word-spacing:0px;fill:#000000;fill-opacity:1;stroke:none;stroke-width:0.32237196"
     x="281.89279"
     y="111.54564"
     id="text423-4-2"
     inkscape:transform-center-x="-4.6931866"
     inkscape:transform-center-y="-4.6931866"><tspan
       sodipodi:role="line"
       id="tspan421-5-4"
       x="281.89279"
       y="111.54564"
       style="fill:#ffffff;stroke-width:0.32237196">Option 3</tspan></text>
  <text
     xml:space="preserve"
     style="font-style:normal;font-weight:normal;font-size:3.4386344px;line-height:1.25;font-family:sans-serif;letter-spacing:0px;word-spacing:0px;fill:#000000;fill-opacity:1;stroke:none;stroke-width:0.32237196"
     x="302.28027"
     y="111.54564"
     id="text423-4-3"><tspan
       sodipodi:role="line"
       id="tspan421-5-6"
       x="302.28027"
       y="111.54564"
       style="fill:#ffffff;stroke-width:0.32237196">Option 4</tspan></text>
</svg>
