<?xml version="1.0" encoding="UTF-8" standalone="no"?>
<svg
   xmlns:dc="http://purl.org/dc/elements/1.1/"
   xmlns:cc="http://creativecommons.org/ns#"
   xmlns:rdf="http://www.w3.org/1999/02/22-rdf-syntax-ns#"
   xmlns:svg="http://www.w3.org/2000/svg"
   xmlns="http://www.w3.org/2000/svg"
   xmlns:sodipodi="http://sodipodi.sourceforge.net/DTD/sodipodi-0.dtd"
   xmlns:inkscape="http://www.inkscape.org/namespaces/inkscape"
   id="ICONS"
   viewBox="0 0 400 140"
   version="1.1"
   sodipodi:docname="disa-framework-settings.svg"
   inkscape:version="0.92.1 r15371">
  <metadata
     id="metadata49">
    <rdf:RDF>
      <cc:Work
         rdf:about="">
        <dc:format>image/svg+xml</dc:format>
        <dc:type
           rdf:resource="http://purl.org/dc/dcmitype/StillImage" />
      </cc:Work>
    </rdf:RDF>
  </metadata>
  <sodipodi:namedview
     pagecolor="#ffffff"
     bordercolor="#666666"
     borderopacity="1"
     objecttolerance="10"
     gridtolerance="10"
     guidetolerance="10"
     inkscape:pageopacity="0"
     inkscape:pageshadow="2"
     inkscape:window-width="1903"
     inkscape:window-height="1096"
     id="namedview47"
     showgrid="false"
     inkscape:zoom="2.397092"
     inkscape:cx="151.99023"
     inkscape:cy="6.5767634"
     inkscape:window-x="2489"
     inkscape:window-y="-9"
     inkscape:window-maximized="1"
     inkscape:current-layer="ICONS" />
  <defs
     id="defs4">
    <style
       id="style2">.cls-1{fill:#58595b;}.cls-2{fill:#0050c5;}.cls-3{fill:#fff;}.cls-4{fill:#d4e8f8;}.cls-5{fill:#2c94d9;}.cls-6{fill:#414042;}.cls-7{fill:#a7a9ac;}.cls-8{fill:#55a5e4;}.cls-9{fill:gray;}.cls-10{fill:#7750a3;}.cls-11{fill:#9273b6;}.cls-12{fill:#808285;}</style>
  </defs>
  <title
     id="title6">bot-framework-overview-concepts</title>
  <path
     class="cls-1"
     d="M126.86,86.17l0,.13A4.92,4.92,0,0,1,122,90a4.93,4.93,0,0,1-3.53-1.45L96.72,66.79l-2.11-2.11a5,5,0,0,1,2.25-8.35l.33-.08a5,5,0,0,1,4.49,1.36l23.87,23.87A5,5,0,0,1,126.86,86.17Z"
     id="path8" />
  <path
     class="cls-2"
     d="M78.64,15.16a26.49,26.49,0,1,0,26.51,26.49A26.53,26.53,0,0,0,78.64,15.16Z"
     id="path10" />
  <path
     class="cls-3"
     d="M101.15,41.65c0,.51,0,1-.06,1.51A22.39,22.39,0,0,1,78.66,64h0A22.45,22.45,0,0,1,56.21,43.08c0-.49-.06-1-.06-1.45A22.52,22.52,0,0,1,78.64,19.15,22.54,22.54,0,0,1,101.15,41.65Z"
     id="path12" />
  <polygon
     class="cls-4"
     points="109.54 65.47 102.02 72.09 96.72 66.79 104.24 60.17 109.54 65.47"
     id="polygon14" />
  <path
     class="cls-4"
     d="M101.15,41.57a10.35,10.35,0,0,1-.06,1.43H56.21a10.09,10.09,0,0,1-.06-1.41A22.57,22.57,0,0,1,78.64,19.1,22.52,22.52,0,0,1,101.15,41.57Z"
     id="path16" />
  <path
     class="cls-9"
     d="M74.28,76.51c-.58-.16-1.15.05-1.11.82l.31,2.48a2.48,2.48,0,0,1-.31,1.55,10.61,10.61,0,0,1-1.72.27l-2.3.1c-.77,0-1.13.44-.92,1L69.49,85c.22.57.44,1.13.25,1.33.2.18-.73.8-1.3,1l-2.27.87c-.57.22-.73.8-.33,1.17l2,1.83c.4.37,1,.92.82,1.12a5.91,5.91,0,0,1-.9,1.39l-1.85,1.62c-.55.6-.33,1.17.25,1.33l2.54.85a2.94,2.94,0,0,1,1.18.71s-.15,1-.31,1.55l-1,2.35c-.16.58.05,1.15.82,1.11l2.3-.1,1.53-.07a4.08,4.08,0,0,1,.47,1.9l-.28,2.32c0,.77.44,1.13,1.19.72l2.26-.87a11.33,11.33,0,0,1,1.32-.64,4,4,0,0,1,1,1.3l.89,2.65c.22.57.8.73,1.35.13l1.65-1.8.92-1a2.06,2.06,0,0,1,1.59,1.08l1.8,1.65c.4.37,1,.53,1.33-.25l.66-2.34c.35-.78.51-1.37.71-1.18a1.94,1.94,0,0,1,1.74.11L94,108.09c.58.17,1.15-.05,1.11-.82L95,104.59a1.45,1.45,0,0,1,.13-1.35,3.77,3.77,0,0,1,1.72-.27l2.5.08c.57-.22.93-.62.71-1.19l-1.26-2.25a5.08,5.08,0,0,1-.25-1.33c0-.38.73-.8,1.3-1l2.26-.87c.57-.22.73-.8.33-1.17l-1.8-1.65a9.57,9.57,0,0,1-1-1.3,9.61,9.61,0,0,1,.9-1.39l1.85-1.62c.55-.6.33-1.17-.25-1.33l-2.35-1a4.56,4.56,0,0,1-1.37-.52s.15-1,.31-1.55l1-2.35c.35-.78-.05-1.15-.82-1.12l-2.3.1a4.7,4.7,0,0,1-1.35-.13,1.85,1.85,0,0,1-.45-1.52l.08-2.5c0-.77-.44-1.13-1.18-.72l-2.27.87a11.19,11.19,0,0,1-1.31.64,5.62,5.62,0,0,1-.84-1.5L88.2,74.16c-.22-.57-.8-.73-1.35-.13l-1.65,1.8-.92,1a2.06,2.06,0,0,1-1.59-1.08L80.9,74.1c-.22-.57-1-.53-1.33.25l-.66,2.34c-.17.58-.51,1.37-.72,1.18a1.33,1.33,0,0,1-1.55-.31Zm7.17,13.9a3.27,3.27,0,0,1,4.39-.77A3,3,0,0,1,87,94a3.3,3.3,0,0,1-5.55-3.59"
     id="path38" />
  <path
     class="cls-10"
     d="M340.26,76,335,75a20.86,20.86,0,0,0-.4-3.59l4.44-2.62a1.37,1.37,0,0,0,.84-1.84l-1.17-3.25a1.18,1.18,0,0,0-1.66-.64l-5.3.89-1.56-2.89,3.19-4a1.41,1.41,0,0,0,.08-1.87L331,52.44a1.69,1.69,0,0,0-1.88-.08l-4.27,2.81c-.91-.6-2-1.4-2.91-2l1.37-5.2a1.29,1.29,0,0,0-.68-1.54L319.51,45a1.19,1.19,0,0,0-1.72.48l-3,4.57a10.81,10.81,0,0,0-3.34-.91l-.51-5.28a1.29,1.29,0,0,0-1.25-1.38l-3.57,0c-.56-.21-1.15.33-1.36.88l-1.19,5.4a11.12,11.12,0,0,0-3.41.59l-2.6-4.81a1.9,1.9,0,0,0-1.66-.64l-3.45,1.35a1.27,1.27,0,0,0-.82,1.46l1.08,5.13c-1,.52-1.94,1.41-2.91,1.94l-4.17-3.39a1.22,1.22,0,0,0-1.69.11L282.27,52l-.91.84,0,0a1.21,1.21,0,0,0-.24,1.65l3,4.46a15.48,15.48,0,0,0-2.21,3.1l-5.18-1.74a1.67,1.67,0,0,0-1.74.86l-1.46,3.13a1.63,1.63,0,0,0,.67,1.91l4.38,2.83c-.43,1.11-.48,2.24-.91,3.35l-5.28.51a1.65,1.65,0,0,0-1.2,1.45L271,77.74a1.64,1.64,0,0,0,1,1.56l5.42.81a21.72,21.72,0,0,0,.57,3.78l-4.82,2.6a1.19,1.19,0,0,0-.64,1.67l1.17,3.25a1.76,1.76,0,0,0,1.65,1l5.32-1.26L282.28,94l-3.39,4.17a1.77,1.77,0,0,0,.11,1.7l2.51,2.74a1.42,1.42,0,0,0,1.67.27l4.47-3c.91.61,2,1.41,2.91,2l-1.36,5.21a1.26,1.26,0,0,0,.68,1.53l3.3,1.66a1.62,1.62,0,0,0,1.72-.49l2.83-4.39c1.13.05,2.24.48,3.36.53l.31,5.47a1.64,1.64,0,0,0,1.45,1.19l3.56.35a2.26,2.26,0,0,0,1.37-1.25l1-5.22c1.32-.13,2.46-.46,3.78-.58l2.42,4.62a1.29,1.29,0,0,0,1.67.64l3.24-1.17a1.53,1.53,0,0,0,1-1.65l-1.08-5.12a13.15,13.15,0,0,0,2.91-1.94l4.17,3.39a1.26,1.26,0,0,0,1.88.08l2.34-2.14.21-.19a1.33,1.33,0,0,0,.46-1,1.29,1.29,0,0,0-.38-.92l-3-4.47A9.25,9.25,0,0,0,330.64,93l5.19,1.74a1.28,1.28,0,0,0,1.53-.68L339,90.79a1.9,1.9,0,0,0-.49-1.72L334,86a9.44,9.44,0,0,0,.71-3.17l5.49-.69c.57-.16,1.16-.7,1.18-1.08l.17-3.75A1.28,1.28,0,0,0,340.26,76ZM306,86a9,9,0,1,1,9-9A9,9,0,0,1,306,86Z"
     id="path40" />
  <path
     class="cls-11"
     d="M340.26,76,335,75a20.86,20.86,0,0,0-.4-3.59l4.44-2.62a1.37,1.37,0,0,0,.84-1.84l-1.17-3.25a1.18,1.18,0,0,0-1.66-.64l-5.3.89-1.56-2.89,3.19-4a1.41,1.41,0,0,0,.08-1.87L331,52.44a1.69,1.69,0,0,0-1.88-.08l-4.27,2.81c-.91-.6-2-1.4-2.91-2l1.37-5.2a1.29,1.29,0,0,0-.68-1.54L319.51,45a1.19,1.19,0,0,0-1.72.48l-3,4.57a10.81,10.81,0,0,0-3.34-.91l-.51-5.28a1.29,1.29,0,0,0-1.25-1.38l-3.57,0c-.56-.21-1.15.33-1.36.88l-1.19,5.4a11.12,11.12,0,0,0-3.41.59l-2.6-4.81a1.9,1.9,0,0,0-1.66-.64l-3.45,1.35a1.27,1.27,0,0,0-.82,1.46l1.08,5.13c-1,.52-1.94,1.41-2.91,1.94l-4.17-3.39a1.22,1.22,0,0,0-1.69.11L282.27,52l-.91.84,0,0,18.05,18.05a9,9,0,1,1,12.7,12.7l19,19,.21-.19a1.33,1.33,0,0,0,.46-1,1.29,1.29,0,0,0-.38-.92l-3-4.47A9.25,9.25,0,0,0,330.64,93l5.19,1.74a1.28,1.28,0,0,0,1.53-.68L339,90.79a1.9,1.9,0,0,0-.49-1.72L334,86a9.44,9.44,0,0,0,.71-3.17l5.49-.69c.57-.16,1.16-.7,1.18-1.08l.17-3.75A1.28,1.28,0,0,0,340.26,76Z"
     id="path42" />
  <path
     class="cls-12"
     d="M341.36,52.16a1.25,1.25,0,0,0,1.16.81l2.54-.14a1.25,1.25,0,0,0,1-1.35l.08-3.12a1.81,1.81,0,0,1,1.15-1.93c.4-.39,1-.57,1.39-.93a2.19,2.19,0,0,1,2.15.24l2.89,1.83a1.47,1.47,0,0,0,1.34-.18l1.84-2.1a1.3,1.3,0,0,0-.35-1.58l-2.24-2.38a1.59,1.59,0,0,1-.35-2s.84-3.11,2.18-3.28l2.94-.52a1.55,1.55,0,0,0,1-1.34l-.33-2.75a1,1,0,0,0-1.09-.82h-.07l-3.13-.07a1.86,1.86,0,0,1-1.93-1.22c-.39-.4-.57-1-.93-1.38a3.13,3.13,0,0,1,.12-2.35l1.82-2.5a1.41,1.41,0,0,0-.16-1.76L352.27,20a1.25,1.25,0,0,0-1.57,0l-2.19,2.48c-.55.6-1.59,1.51-3.73.12,0,0-1.59-1-1.74-1.83l-.46-3.31a1.25,1.25,0,0,0-1.16-.81l-2.75.33a1,1,0,0,0-.76,1.13v0l-.27,3.31c0,1.17-.41,1.56-1,1.74-.4.39-1,.57-1.39.93a2,2,0,0,1-2.35-.06l-2.69-2a1.52,1.52,0,0,0-1.58.35l-1.84,2.1a1.73,1.73,0,0,0,.35,1.58l2.29,2.4c.76.79,1.13,1.54.1,3.72-.16.59-.43,1.18-1.79,1.33l-3.15.71a1.25,1.25,0,0,0-.81,1.16l.33,2.75a1.25,1.25,0,0,0,1,1l3.32-.11c1.17,0,1.56.41,1.74,1a17.5,17.5,0,0,1,.93,1.78,1.75,1.75,0,0,1,.13,2.1l-2,2.69a1.51,1.51,0,0,0,.35,1.57l1.92,1.61a1.25,1.25,0,0,0,1.57,0l2.21-2.48a2,2,0,0,1,2.15-.51s3.14.27,3.27,2.22l.7,3.14m7.29-18a6.88,6.88,0,0,1-6,7.28A6.39,6.39,0,0,1,335.37,36q0-.31-.06-.62a6.56,6.56,0,0,1,5.83-7.09,6.65,6.65,0,0,1,7.5,5.68l0,.16"
     id="path44" />
  <path
     id="path16-5"
     style="fill:#b8e7f0;fill-opacity:1;fill-rule:nonzero;stroke:none;stroke-width:0.01191637"
     d="m 260.69705,70.053524 c 0,34.551646 -28.00932,62.560966 -62.56097,62.560966 -34.55164,0 -62.56096,-28.00932 -62.56096,-62.560966 0,-34.551647 28.00932,-62.5609656 62.56096,-62.5609656 34.55165,0 62.56097,28.0093186 62.56097,62.5609656"
     inkscape:connector-curvature="0" />
  <path
     id="path18"
     style="fill:#414855;fill-opacity:1;fill-rule:evenodd;stroke:none;stroke-width:0.01191637"
     d="m 149.9844,24.224817 h 46.1533 c 3.1644,0 5.75622,2.59324 5.75622,5.756201 v 85.203032 c 0,3.16297 -2.59182,5.75596 -5.75622,5.75596 h -46.1533 c -3.16368,0 -5.75693,-2.59299 -5.75693,-5.75596 V 29.981018 c 0,-3.162961 2.59325,-5.756201 5.75693,-5.756201 v 0"
     inkscape:connector-curvature="0" />
  <path
     id="path20"
     style="fill:#f8f8f8;fill-opacity:1;fill-rule:evenodd;stroke:none;stroke-width:0.01191637"
     d="m 145.88754,111.39893 h 54.34607 V 31.096751 h -54.34607 z"
     inkscape:connector-curvature="0" />
  <path
     id="path22"
     style="fill:#cdccca;fill-opacity:1;fill-rule:evenodd;stroke:none;stroke-width:0.01191637"
     d="m 173.06141,29.747818 c 1.03612,0 1.8922,-0.829499 1.8922,-1.866343 0,-1.03756 -0.85608,-1.892916 -1.8922,-1.892916 -1.03756,0 -1.89351,0.855356 -1.89351,1.892916 0,1.036844 0.85595,1.866343 1.89351,1.866343 v 0"
     inkscape:connector-curvature="0" />
  <path
     id="path24"
     style="fill:#cdccca;fill-opacity:1;fill-rule:evenodd;stroke:none;stroke-width:0.01191637"
     d="m 163.31143,114.7441 h 19.52509 c 0.82951,0 1.52912,0.6989 1.52912,1.52911 v 0.0258 c 0,0.83021 -0.69961,1.52959 -1.52912,1.52959 h -19.52509 c -0.85535,0 -1.55497,-0.69938 -1.55497,-1.52959 v -0.0258 c 0,-0.83021 0.69962,-1.52911 1.55497,-1.52911 v 0"
     inkscape:connector-curvature="0" />
  <path
     id="path26"
     style="fill:#f36447;fill-opacity:1;fill-rule:nonzero;stroke:none;stroke-width:0.01191637"
     d="m 211.41009,22.799021 c 0.36238,0.156462 0.51872,0.570437 0.33652,0.934244 -0.15503,0.362379 -0.59558,0.518125 -0.95867,0.362379 l -0.0517,-0.05232 -0.15564,-0.05171 -0.1306,-0.05171 -0.12917,-0.07746 -0.15432,-0.05171 -0.12989,-0.07746 -0.15706,-0.05302 -0.12917,-0.05172 -0.15503,-0.07745 -0.0781,-0.02588 c -0.36309,-0.129885 -0.54529,-0.56972 -0.38823,-0.933526 0.12917,-0.36333 0.54326,-0.544462 0.93281,-0.389546 l 0.0776,0.02622 0.15635,0.05243 0.15431,0.07865 0.1306,0.05136 0.15564,0.07686 0.15503,0.05231 0.15645,0.07758 0.12846,0.07745 0.15635,0.05244 z m 5.03002,3.086223 c 0.31209,0.232488 0.36368,0.699609 0.10403,1.010986 -0.2332,0.311374 -0.67459,0.363089 -0.98597,0.103312 l -0.0515,-0.02645 -0.10343,-0.07685 -0.12977,-0.104031 -0.12989,-0.07746 -0.10343,-0.104031 -0.12917,-0.07757 -0.13049,-0.104032 -0.10331,-0.07746 -0.12989,-0.07828 -0.12918,-0.103315 c -0.31078,-0.208058 -0.38823,-0.674467 -0.18232,-0.985841 0.23333,-0.33652 0.67519,-0.414808 1.01254,-0.180893 l 0.12845,0.07758 0.12989,0.103315 0.12978,0.104031 0.12989,0.07745 0.12989,0.104031 0.12988,0.104031 0.12917,0.07757 0.10332,0.10403 0.1306,0.103316 z m 4.20111,4.122231 c 0.2332,0.311493 0.20747,0.752041 -0.10402,1.011103 -0.31138,0.259062 -0.75121,0.208062 -1.01171,-0.103316 l -0.0516,-0.05243 -0.10342,-0.129174 -0.10404,-0.104031 -0.0781,-0.129173 -0.10259,-0.104031 -0.10331,-0.104027 -0.10416,-0.129889 -0.0775,-0.103316 -0.10475,-0.103315 -0.0781,-0.104031 c -0.28492,-0.285636 -0.25978,-0.75204 0.0523,-1.011698 0.28563,-0.258348 0.72546,-0.232609 1.01181,0.05231 l 0.0781,0.103316 0.10332,0.104031 0.10331,0.129888 0.10331,0.103317 0.10476,0.129887 0.10342,0.103312 0.10332,0.130605 0.10331,0.129173 0.10331,0.129889 z m 3.18883,4.952565 c 0.18161,0.362374 0.0258,0.803641 -0.33724,0.985245 -0.33652,0.155627 -0.77777,0.02573 -0.95867,-0.337355 l -0.0523,-0.129173 -0.0776,-0.129769 -0.0781,-0.129885 -0.0517,-0.129889 -0.0781,-0.129174 -0.0775,-0.129888 -0.0517,-0.129889 -0.0781,-0.129173 -0.0769,-0.129889 -0.0264,-0.05161 c -0.20674,-0.36309 -0.0781,-0.804356 0.25967,-0.985245 0.36178,-0.207346 0.77718,-0.07746 0.98454,0.259062 l 0.0266,0.05171 0.0775,0.155628 0.0769,0.129888 0.0781,0.129177 0.0781,0.155744 0.0783,0.130606 0.0775,0.154912 0.0781,0.129174 0.0517,0.129888 z m 1.99623,5.54874 c 0.10403,0.38895 -0.12919,0.777901 -0.51813,0.881213 -0.38954,0.07818 -0.77778,-0.155031 -0.88252,-0.543982 v 0 l -0.0252,-0.129055 -0.0516,-0.156461 -0.0266,-0.155747 -0.0259,-0.129173 -0.0523,-0.156343 -0.0517,-0.15503 -0.0252,-0.129889 -0.0523,-0.155627 -0.0259,-0.155747 -0.0258,-0.02515 c -0.1026,-0.36309 0.10404,-0.777779 0.49369,-0.882526 0.36167,-0.129172 0.77707,0.104747 0.88039,0.467121 l 0.0272,0.05232 0.0252,0.155032 0.0523,0.129888 0.051,0.155628 0.0266,0.155746 0.0515,0.155031 0.0517,0.156346 0.0252,0.155031 0.0523,0.155747 z m 0.72761,5.85952 c 0,0.389667 -0.31281,0.726899 -0.72761,0.726899 -0.38895,0 -0.69961,-0.312091 -0.72476,-0.701041 v -0.85536 l -0.0266,-0.155627 v -0.284204 l -0.0264,-0.104747 c -0.0258,-0.388236 0.28552,-0.751324 0.67447,-0.777782 0.38824,-0.02584 0.75264,0.284804 0.77778,0.674471 v 0.259061 l 0.0266,0.182201 v 0.491547 l 0.0266,0.15575 z m -0.59772,5.860232 c -0.10332,0.388951 -0.46642,0.64861 -0.85465,0.570436 -0.38954,-0.104027 -0.64932,-0.466404 -0.57115,-0.855355 l 0.0266,-0.104031 0.0251,-0.155628 0.0515,-0.155747 0.0266,-0.15503 0.0258,-0.155627 0.0259,-0.155747 0.0264,-0.155035 0.0258,-0.156343 0.0258,-0.155032 v -0.02657 c 0.0775,-0.388832 0.43984,-0.673752 0.8295,-0.596293 0.38824,0.05243 0.6479,0.415519 0.5963,0.804351 v 0.05172 l -0.0266,0.15503 -0.0258,0.156343 -0.0252,0.180888 -0.0523,0.155632 -0.0258,0.181604 -0.0258,0.156343 -0.0264,0.180893 -0.0517,0.155747 z m -1.89292,5.600459 c -0.18221,0.363808 -0.5963,0.519436 -0.95868,0.337947 -0.36308,-0.156343 -0.51871,-0.597009 -0.33723,-0.959387 v -0.02646 l 0.0776,-0.155746 0.0515,-0.129173 0.0781,-0.155747 0.0517,-0.129174 0.0781,-0.130484 0.0517,-0.155032 0.0515,-0.129888 0.0517,-0.15575 0.051,-0.103312 c 0.15634,-0.363093 0.57043,-0.544578 0.93353,-0.389547 0.3644,0.130485 0.546,0.544578 0.41611,0.933529 l -0.0517,0.104031 -0.0781,0.155627 -0.051,0.155747 -0.0789,0.129173 -0.0516,0.155746 -0.0776,0.155628 -0.0523,0.155747 -0.0776,0.129888 -0.0523,0.154912 z m -3.08479,5.030018 c -0.25893,0.311379 -0.70021,0.363094 -1.0117,0.104032 -0.31138,-0.233205 -0.36238,-0.673751 -0.12989,-0.985245 v -0.02645 l 0.10403,-0.103315 0.10403,-0.129174 0.0769,-0.129173 0.10402,-0.104747 0.0775,-0.129173 0.0783,-0.129889 0.10332,-0.129173 0.0781,-0.104031 0.10474,-0.129173 v -0.02657 c 0.2332,-0.310658 0.67305,-0.388831 1.01099,-0.181484 0.31007,0.233204 0.38823,0.674467 0.18089,1.011698 l -0.0258,0.02588 -0.10332,0.129889 -0.0781,0.128458 -0.10332,0.130604 -0.0783,0.129174 -0.10402,0.129765 -0.10403,0.12989 -0.0781,0.103315 -0.10261,0.129889 -0.10342,0.129172 z m -4.12223,4.200525 c -0.31209,0.259778 -0.7785,0.208059 -1.01182,-0.103315 -0.25966,-0.311374 -0.20807,-0.751329 0.0769,-1.011106 l 0.053,-0.02504 0.12916,-0.104745 0.10331,-0.103435 0.12918,-0.07817 0.10416,-0.103315 0.10402,-0.103316 0.12918,-0.104742 0.10533,-0.07758 0.10272,-0.104031 0.10404,-0.103312 c 0.30994,-0.259062 0.7512,-0.259062 1.03685,0.05171 0.25905,0.285515 0.23247,0.751924 -0.0517,1.011698 l -0.12989,0.10403 -0.10403,0.103316 -0.12976,0.103435 -0.10345,0.104031 -0.12977,0.103312 -0.12988,0.104031 -0.10344,0.103316 -0.12976,0.10403 -0.12918,0.104028 z m -4.97902,3.189534 c -0.33794,0.181489 -0.7779,0.02646 -0.95938,-0.310777 -0.1816,-0.363093 -0.0266,-0.803641 0.33794,-0.959388 l 0.1026,-0.0516 0.12918,-0.07758 0.12989,-0.07818 0.12917,-0.05231 0.1306,-0.07758 0.12977,-0.07745 0.12845,-0.05232 0.13061,-0.07757 0.12918,-0.07746 0.0781,-0.05171 c 0.36309,-0.182201 0.7779,-0.07818 0.98453,0.284919 0.20735,0.337235 0.0781,0.777783 -0.25978,0.958672 l -0.0767,0.05231 -0.15504,0.07758 -0.12989,0.07818 -0.15633,0.07745 -0.12918,0.07818 -0.12917,0.07757 -0.15575,0.07746 -0.13061,0.05172 -0.15419,0.07817 z m -5.523,2.02269 c -0.38967,0.07757 -0.77778,-0.155632 -0.88193,-0.545294 -0.0775,-0.361662 0.15575,-0.750613 0.51812,-0.854644 l 0.1306,-0.02515 0.15504,-0.05303 0.15563,-0.02515 0.12917,-0.05303 0.15646,-0.02515 0.15503,-0.05172 0.12978,-0.02646 0.15646,-0.05171 0.12917,-0.02657 0.0775,-0.02515 c 0.36309,-0.129889 0.77789,0.103435 0.88193,0.467125 0.12917,0.38895 -0.10404,0.777186 -0.46712,0.907075 l -0.0776,0.02573 -0.15634,0.02584 -0.15503,0.05302 -0.15503,0.05101 -0.12918,0.02584 -0.15706,0.05171 -0.15574,0.05232 -0.15504,0.02584 -0.15634,0.0516 z M 174.43548,41.105073 c 0.0776,-0.388117 0.46641,-0.64789 0.85608,-0.571151 0.38824,0.104746 0.62144,0.46784 0.54386,0.856071 v 0.02588 l -0.0257,0.155628 -0.0524,0.156461 -0.0258,0.18077 -0.0257,0.155034 -0.0259,0.156463 -0.0258,0.155627 -0.0266,0.155031 -0.0257,0.155747 -0.0252,0.07818 c -0.0517,0.388951 -0.41552,0.673752 -0.80435,0.596294 -0.38824,-0.05171 -0.67458,-0.415404 -0.5963,-0.80364 v -0.104031 l 0.0265,-0.155746 0.0252,-0.181485 0.0266,-0.155032 0.0517,-0.181608 0.0257,-0.156342 0.0258,-0.155031 0.0266,-0.181486 0.0515,-0.15575 z m 1.86706,-5.600454 c 0.1809,-0.363689 0.59558,-0.518721 0.95939,-0.363689 0.36237,0.181484 0.51884,0.596177 0.33651,0.959982 l -0.0516,0.155746 -0.0517,0.129889 -0.0781,0.129889 -0.0517,0.154912 -0.0781,0.129173 -0.0517,0.155747 -0.0515,0.129889 -0.0524,0.155034 -0.0775,0.12977 v 0.02657 c -0.12918,0.362374 -0.57044,0.543863 -0.93282,0.388235 -0.36381,-0.129173 -0.54458,-0.544578 -0.38967,-0.932813 v 0 l 0.0517,-0.15575 0.0781,-0.155747 0.0517,-0.154912 0.0516,-0.156461 0.0783,-0.129174 0.0781,-0.155627 0.0517,-0.155747 0.0768,-0.155746 z m 3.08479,-5.030739 c 0.2332,-0.311373 0.67447,-0.36297 1.0117,-0.129173 0.31078,0.233323 0.36238,0.69973 0.12918,1.011106 l -0.0768,0.07745 -0.10474,0.129889 -0.0769,0.129888 -0.10403,0.103316 -0.0781,0.129889 -0.0775,0.129889 -0.10403,0.103315 -0.0776,0.129889 -0.10403,0.129173 -0.0259,0.05231 c -0.2332,0.336639 -0.67446,0.414808 -1.0117,0.181605 -0.31066,-0.207463 -0.41398,-0.674467 -0.18077,-0.985245 l 0.0515,-0.07746 0.0776,-0.129889 0.10403,-0.129885 0.10404,-0.129892 0.0775,-0.129886 0.10332,-0.129173 0.10403,-0.12977 0.0776,-0.129173 0.10403,-0.129889 z m 4.12307,-4.226259 c 0.31137,-0.259062 0.75192,-0.207465 1.0117,0.104028 0.2332,0.311377 0.20663,0.751209 -0.10474,1.010987 v 0 l -0.12918,0.103315 -0.10403,0.07828 -0.12917,0.104031 -0.10404,0.103316 -0.10331,0.104031 -0.12989,0.07745 -0.10331,0.103316 -0.10403,0.104031 -0.12989,0.103435 -0.0258,0.02645 c -0.28492,0.284919 -0.75133,0.259061 -1.01099,-0.02645 -0.25907,-0.310782 -0.25907,-0.752044 0.0515,-1.036249 l 0.0258,-0.02646 0.12989,-0.10403 0.10402,-0.104031 0.12918,-0.103435 0.10402,-0.103315 0.12918,-0.103312 0.12989,-0.104031 0.10403,-0.104032 0.12918,-0.103315 z m 4.95173,-3.188822 c 0.33795,-0.181608 0.77862,-0.05171 0.9601,0.310659 0.18149,0.363807 0.0266,0.778616 -0.33723,0.960101 l -0.0524,0.02515 -0.12846,0.07817 -0.1312,0.05172 -0.12775,0.07745 -0.1306,0.07758 -0.12989,0.05302 -0.12918,0.07675 -0.12988,0.07828 -0.12917,0.07746 -0.13061,0.07817 c -0.3358,0.180893 -0.77707,0.07758 -0.98441,-0.285516 -0.20735,-0.336517 -0.0789,-0.777899 0.25906,-0.984529 l 0.12977,-0.05303 0.15646,-0.07686 0.12846,-0.07818 0.12989,-0.07745 0.15634,-0.07829 0.12918,-0.07745 0.15503,-0.07818 0.12988,-0.07758 0.15503,-0.05231 z m 5.52372,-2.023282 c 0.38823,-0.103672 0.77778,0.129889 0.88109,0.519556 0.0783,0.388474 -0.15491,0.776943 -0.54457,0.855713 l -0.0516,0.02515 -0.15575,0.02657 -0.15575,0.05172 -0.12917,0.02573 -0.15635,0.05172 -0.15503,0.02584 -0.12917,0.0516 -0.15646,0.05171 -0.12846,0.02657 -0.13049,0.0516 c -0.36309,0.10403 -0.77789,-0.104032 -0.88121,-0.493221 -0.12918,-0.387282 0.10332,-0.778136 0.46569,-0.906837 l 0.13132,-0.02622 0.15502,-0.05243 0.15564,-0.02503 0.12918,-0.05243 0.15646,-0.05125 0.15562,-0.02622 0.15503,-0.05125 0.15575,-0.02622 0.15503,-0.05243 z m 5.85952,-0.751925 c 0.38824,0 0.72618,0.312213 0.72618,0.699494 0,0.415879 -0.31007,0.726898 -0.69973,0.753114 h -0.75264 l -0.15503,0.02503 h -0.31066 l -0.15575,0.02622 h -0.0259 c -0.38883,0.02742 -0.75192,-0.284803 -0.77777,-0.673278 -0.0259,-0.389663 0.28492,-0.726898 0.67375,-0.778136 h 0.33663 l 0.18149,-0.02622 h 0.31137 l 0.18161,-0.02622 z m 4.20052,1.737409 c -0.38823,-0.05124 -0.67387,-0.41469 -0.62287,-0.803165 0.0789,-0.414689 0.44126,-0.674466 0.83092,-0.622031 l 0.10332,0.02504 h 0.0258 l 0.15563,0.02622 0.18232,0.02622 0.15432,0.02504 0.15634,0.05243 0.1822,0.02503 0.15576,0.02742 0.18089,0.02502 0.15491,0.05244 0.10414,0.02622 c 0.38884,0.07627 0.6479,0.440906 0.57044,0.829379 -0.0776,0.388474 -0.46712,0.648251 -0.85536,0.569601 l -0.12988,-0.02503 -0.15503,-0.02622 -0.15636,-0.05243 -0.15645,-0.02503 -0.15491,-0.02622 -0.15503,-0.02622 -0.15575,-0.02503 -0.15575,-0.02622 -0.15491,-0.02622 -0.10475,-0.02622"
     inkscape:connector-curvature="0" />
  <path
     id="path28"
     style="fill:#414754;fill-opacity:1;fill-rule:evenodd;stroke:none;stroke-width:0.01191637"
     d="m 246.93364,45.513059 h 11.97833 c 0.64825,0 1.16662,0.544579 1.16662,1.166734 v 10.786104 c 0,0.648729 -0.51837,1.16745 -1.16662,1.16745 H 246.93364 V 45.513059"
     inkscape:connector-curvature="0" />
  <path
     id="path30"
     style="fill:#ffffff;fill-opacity:1;fill-rule:evenodd;stroke:none;stroke-width:0.01191637"
     d="m 257.04587,48.831652 c 0.98429,1.03756 0.93306,2.696555 -0.10368,3.682515 -1.03791,0.98513 -2.69667,0.932814 -3.68215,-0.10343 -0.98549,-1.03756 -0.93425,-2.697872 0.10248,-3.682401 1.03791,-0.985244 2.69786,-0.933529 3.68335,0.103316 z m 0.41468,-0.388951 c 1.19165,1.270164 1.1416,3.267111 -0.12988,4.486155 -1.27029,1.192592 -3.26747,1.140877 -4.48533,-0.129888 -1.19282,-1.270761 -1.14159,-3.292849 0.12989,-4.485322 1.27029,-1.218447 3.26628,-1.14099 4.48532,0.129055 v 0"
     inkscape:connector-curvature="0" />
  <path
     id="path32"
     style="fill:#ffffff;fill-opacity:1;fill-rule:evenodd;stroke:none;stroke-width:0.01191637"
     d="m 253.54484,53.784932 -2.90402,2.748152 -1.65876,-1.73717 2.92904,-2.748271 c 0.15611,0.363094 0.38848,0.699729 0.67567,1.010387 0.2836,0.311374 0.62084,0.545293 0.95807,0.726902 v 0"
     inkscape:connector-curvature="0" />
  <path
     id="path34"
     style="fill:#81d5dc;fill-opacity:1;fill-rule:evenodd;stroke:none;stroke-width:0.01191637"
     d="m 246.93364,45.513059 h -60.00062 c -0.6479,0 -1.19319,0.544579 -1.19319,1.166734 v 10.786104 c 0,0.648729 0.54529,1.16745 1.19319,1.16745 h 60.00062 V 45.513059"
     inkscape:connector-curvature="0" />
  <path
     id="path38-1"
     style="fill:#959595;fill-opacity:1;fill-rule:evenodd;stroke:none;stroke-width:0.01191637"
     d="m 192.97414,75.305544 c 4.35687,2.30701 5.99001,7.72658 3.65655,12.082846 -2.33276,4.330414 -7.72658,5.963552 -12.08273,3.655828 -4.35627,-2.332756 -5.99013,-7.752317 -3.65666,-12.108588 2.33418,-4.331125 7.75387,-5.963548 12.08284,-3.630086 z m 4.14952,-3.033786 c 1.7106,1.296617 3.05894,2.982191 3.99247,4.848534 l 5.26394,-1.581543 1.29722,4.227094 -5.2904,1.607281 c 0.28492,2.047235 0.0781,4.200524 -0.62286,6.249186 l 4.87499,2.591814 -2.10026,3.915601 -4.87499,-2.618391 c -1.32106,1.737172 -2.98065,3.085505 -4.84843,3.993178 l 1.58143,5.289088 -4.22627,1.27076 -1.60668,-5.289802 c -2.04926,0.284931 -4.20123,0.07687 -6.24978,-0.622035 l -2.61839,4.874997 -3.88974,-2.100972 2.61898,-4.849142 c -1.73789,-1.321762 -3.08538,-3.007334 -3.99318,-4.874392 l -5.28896,1.607996 -1.27076,-4.252118 5.28896,-1.581541 c -0.28479,-2.075116 -0.10331,-4.226378 0.62216,-6.27421 l -4.87427,-2.59324 2.10026,-3.915602 4.84913,2.618387 c 1.32248,-1.736577 3.00721,-3.059649 4.87427,-3.992462 l -1.60729,-5.289801 4.25224,-1.27076 1.58143,5.289081 c 2.07369,-0.284205 4.20052,-0.07757 6.27421,0.623467 l 2.59325,-4.875708 3.91631,2.100978 -2.61899,4.874277"
     inkscape:connector-curvature="0" />
  <path
     id="path40-7"
     style="fill:#959595;fill-opacity:1;fill-rule:evenodd;stroke:none;stroke-width:0.01191637"
     d="m 222.45526,81.320812 c 3.31941,0.700324 5.44614,3.941459 4.77167,7.260166 -0.69962,3.319306 -3.96732,5.444713 -7.28603,4.745823 -3.31858,-0.674472 -5.44471,-3.941468 -4.74582,-7.26089 0.70105,-3.318711 3.94147,-5.443993 7.26018,-4.745099 z m 2.15328,-2.800587 c 1.39934,0.544578 2.59181,1.375507 3.57777,2.438209 l 3.16428,-2.0744 1.65768,2.540093 -3.16296,2.074401 c 0.57116,1.323196 0.85595,2.748872 0.80435,4.252955 l 3.70897,0.778499 -0.62428,2.981352 -3.70683,-0.777778 c -0.54387,1.374072 -1.39994,2.593245 -2.43751,3.552504 l 2.07441,3.188829 -2.54152,1.659714 -2.10026,-3.1644 c -1.29591,0.571156 -2.74827,0.856078 -4.22639,0.779214 l -0.77778,3.732803 -2.98148,-0.622869 0.77791,-3.731961 c -1.40064,-0.519569 -2.59323,-1.375511 -3.5792,-2.438223 l -3.16154,2.099551 -1.6603,-2.566666 3.16296,-2.073803 c -0.56984,-1.296507 -0.88121,-2.748164 -0.80435,-4.226263 l -3.70623,-0.778617 0.62143,-2.981357 3.70755,0.77778 c 0.54529,-1.400651 1.37407,-2.61898 2.43748,-3.578367 l -2.07439,-3.16368 2.54152,-1.68545 2.07381,3.190846 c 1.32235,-0.597725 2.77473,-0.882525 4.25211,-0.804357 l 0.7785,-3.708969 2.98148,0.622871 -0.77719,3.707539"
     inkscape:connector-curvature="0" />
  <path
     id="path42-1"
     style="fill:#ffffff;fill-opacity:1;fill-rule:evenodd;stroke:none;stroke-width:0.01191637"
     d="m 250.14033,104.83838 h -42.87844 v 14.88379 h 28.91066 c 5.4266,-4.16252 10.15215,-9.1911 13.96778,-14.88379"
     inkscape:connector-curvature="0" />
  <path
     id="path44-0"
     style="fill:#f36447;fill-opacity:1;fill-rule:evenodd;stroke:none;stroke-width:0.01191637"
     d="m 216.44011,109.50602 5.49703,6.40409 19.57621,-21.598193 -19.57621,17.346083 -5.49703,-2.15198"
     inkscape:connector-curvature="0" />
  <path
     id="path46"
     style="fill:#f36447;fill-opacity:1;fill-rule:evenodd;stroke:none;stroke-width:0.01191637"
     d="m 157.65925,90.448636 c 3.47434,0 6.27493,2.826443 6.27493,6.300781 0,3.474463 -2.80059,6.300793 -6.27493,6.300793 -3.47469,0 -6.30078,-2.82633 -6.30078,-6.300793 0,-3.474338 2.82609,-6.300781 6.30078,-6.300781 z m 0,-4.175379 c 5.73035,0 10.3707,4.641779 10.3707,10.372135 0,1.295188 -0.25822,2.567381 -0.6996,3.707658 v 0 l -0.10331,0.25894 c -0.0259,0.10344 -0.0775,0.20747 -0.12989,0.33664 l -4.59007,10.52776 -4.84783,11.12358 -4.84877,-11.12358 -4.58947,-10.52776 c -0.052,-0.12917 -0.10403,-0.2332 -0.15574,-0.33664 l -0.10368,-0.25895 h 0.0263 c -0.46712,-1.140267 -0.69996,-2.41246 -0.69996,-3.707648 0,-5.730356 4.64071,-10.372135 10.37141,-10.372135 v 0"
     inkscape:connector-curvature="0" />
  <path
     id="path48"
     style="fill:#81d5dc;fill-opacity:1;fill-rule:evenodd;stroke:none;stroke-width:0.01191637"
     d="m 160.9004,37.785769 c 4.30455,0 7.93391,2.956214 8.94502,6.923531 4.20053,0.492266 7.44165,4.044894 7.44165,8.374592 0,4.641783 -3.75925,8.427496 -8.40104,8.427496 H 147.3392 v 0 c -0.0254,0 -0.0514,0 -0.0776,0 -4.01927,0 -7.2598,-3.267589 -7.2598,-7.286624 0,-2.981475 1.81474,-5.548143 4.38212,-6.662446 0,-0.05243 0,-0.104743 0,-0.156462 0,-2.852898 2.3069,-5.13405 5.13334,-5.13405 1.11502,0 2.12647,0.33664 2.98207,0.933529 1.45166,-3.189418 4.66765,-5.419566 8.40105,-5.419566 v 0"
     inkscape:connector-curvature="0" />
  <path
     id="path50"
     style="fill:#81d5dc;fill-opacity:1;fill-rule:evenodd;stroke:none;stroke-width:0.01191637"
     d="m 145.99121,64.726067 c 1.94464,0 3.57778,1.348934 4.04454,3.137823 1.8928,0.207343 3.37068,1.814743 3.37068,3.785116 0,2.100978 -1.71072,3.786428 -3.81135,3.786428 h -9.72339 v 0 c -0.0262,0 -0.0262,0 -0.0262,0 -1.81469,0 -3.29284,-1.45225 -3.29284,-3.266992 0,-1.348218 0.82987,-2.515667 1.99693,-3.033792 0,0 0,-0.02657 0,-0.05231 0,-1.296621 1.03685,-2.333465 2.30761,-2.333465 0.49262,0 0.95938,0.155626 1.34834,0.441262 0.64789,-1.452365 2.10026,-2.464068 3.78571,-2.464068 v 0"
     inkscape:connector-curvature="0" />
  <text
     xml:space="preserve"
     style="font-style:normal;font-weight:normal;font-size:7.6264801px;line-height:1.25;font-family:sans-serif;letter-spacing:0px;word-spacing:0px;fill:#000000;fill-opacity:1;stroke:none;stroke-width:0.08937281"
     x="188.44141"
     y="54.632919"
     id="text51"><tspan
       sodipodi:role="line"
       id="tspan49"
       x="188.44141"
       y="54.632919"
       style="fill:#ffffff;stroke-width:0.08937281">Choose image</tspan></text>
</svg>
