<?xml version="1.0" encoding="UTF-8" standalone="no"?>
<svg
   xmlns:dc="http://purl.org/dc/elements/1.1/"
   xmlns:cc="http://creativecommons.org/ns#"
   xmlns:rdf="http://www.w3.org/1999/02/22-rdf-syntax-ns#"
   xmlns:svg="http://www.w3.org/2000/svg"
   xmlns="http://www.w3.org/2000/svg"
   xmlns:sodipodi="http://sodipodi.sourceforge.net/DTD/sodipodi-0.dtd"
   xmlns:inkscape="http://www.inkscape.org/namespaces/inkscape"
   id="ICONS"
   viewBox="0 0 400 140"
   version="1.1"
   sodipodi:docname="disa-framework-messaging-send-and-receive.svg"
   inkscape:version="0.92.1 r15371">
  <metadata
     id="metadata49">
    <rdf:RDF>
      <cc:Work
         rdf:about="">
        <dc:format>image/svg+xml</dc:format>
        <dc:type
           rdf:resource="http://purl.org/dc/dcmitype/StillImage" />
      </cc:Work>
    </rdf:RDF>
  </metadata>
  <sodipodi:namedview
     pagecolor="#ffffff"
     bordercolor="#666666"
     borderopacity="1"
     objecttolerance="10"
     gridtolerance="10"
     guidetolerance="10"
     inkscape:pageopacity="0"
     inkscape:pageshadow="2"
     inkscape:window-width="1903"
     inkscape:window-height="1096"
     id="namedview47"
     showgrid="false"
     inkscape:zoom="1.695"
     inkscape:cx="419.50073"
     inkscape:cy="46.344895"
     inkscape:window-x="2489"
     inkscape:window-y="-9"
     inkscape:window-maximized="1"
     inkscape:current-layer="ICONS" />
  <defs
     id="defs4">
    <style
       id="style2">.cls-1{fill:#58595b;}.cls-2{fill:#0050c5;}.cls-3{fill:#fff;}.cls-4{fill:#d4e8f8;}.cls-5{fill:#2c94d9;}.cls-6{fill:#414042;}.cls-7{fill:#a7a9ac;}.cls-8{fill:#55a5e4;}.cls-9{fill:gray;}.cls-10{fill:#7750a3;}.cls-11{fill:#9273b6;}.cls-12{fill:#808285;}</style>
    <clipPath
       id="clipPath44"
       clipPathUnits="userSpaceOnUse">
      <path
         inkscape:connector-curvature="0"
         id="path42-6"
         d="M 5319.49,9672.85 V 2859.3 h 4406.33 v 6813.55 z" />
    </clipPath>
  </defs>
  <title
     id="title6">bot-framework-overview-concepts</title>
  <path
     inkscape:connector-curvature="0"
     class="cls-1"
     d="m 160.38103,38.301347 a 39.4,39.4 0 0 1 7.25,-22.75 13.5,13.5 0 0 0 -6.71,-1.8 13.34,13.34 0 0 0 -7.2,2 18.16,18.16 0 0 0 -14.61,-7.3600002 17.87,17.87 0 0 0 -17.92,17.5900002 c 0,0.67 0.17,1.17 0.17,1.84 -5.19,2.51 -8.21,6.87 -8.21,12.4 0,7.9 6.22,14.23 14.45,14.7 0.76,5.47 7.67,9.77 16.1,9.77 7.18,0 13.25,-3.12 15.37,-7.44 a 16.69,16.69 0 0 0 6.79,1.44 h 0.15 a 39.31,39.31 0 0 1 -5.63,-20.39 z"
     id="path24"
     style="fill:#58595b" />
  <path
     inkscape:connector-curvature="0"
     class="cls-1"
     d="m 206.36666,125.50278 c -12.73999,-2.56 -21.99999,-14.11 -21.99999,-27.479999 0,-13.37 9.22,-24.8 21.74999,-27.43 2.07,-13.22 13.38,-23.3 26.57,-23.3 a 26.63,26.63 0 0 1 22.64,12.72 26.89,26.89 0 0 1 11.94,-2.8 27.65,27.65 0 0 1 25.77,18.36 25.44,25.44 0 0 1 16,47.929999 l -0.39,0.16 a 23.42,23.42 0 0 1 -7.53,2.06 l -0.64,0.06 c -3.3,0.29 -7.77,0.35 -14.86,0.35 h -74 a 23,23 0 0 1 -5.25,-0.63 z"
     id="path8"
     style="fill:#58595b" />
  <path
     class="cls-9"
     d="m 80.28,76.51 c -0.58,-0.16 -1.15,0.05 -1.11,0.82 l 0.31,2.48 a 2.48,2.48 0 0 1 -0.31,1.55 10.61,10.61 0 0 1 -1.72,0.27 l -2.3,0.1 c -0.77,0 -1.13,0.44 -0.92,1 L 75.49,85 c 0.22,0.57 0.44,1.13 0.25,1.33 0.2,0.18 -0.73,0.8 -1.3,1 l -2.27,0.87 c -0.57,0.22 -0.73,0.8 -0.33,1.17 l 2,1.83 c 0.4,0.37 1,0.92 0.82,1.12 a 5.91,5.91 0 0 1 -0.9,1.39 l -1.85,1.62 c -0.55,0.6 -0.33,1.17 0.25,1.33 l 2.54,0.85 a 2.94,2.94 0 0 1 1.18,0.71 c 0,0 -0.15,1 -0.31,1.55 l -1,2.35 c -0.16,0.58 0.05,1.15 0.82,1.11 l 2.3,-0.1 1.53,-0.07 a 4.08,4.08 0 0 1 0.47,1.9 l -0.28,2.32 c 0,0.77 0.44,1.13 1.19,0.72 l 2.26,-0.87 a 11.33,11.33 0 0 1 1.32,-0.64 4,4 0 0 1 1,1.3 l 0.89,2.65 c 0.22,0.57 0.8,0.73 1.35,0.13 l 1.65,-1.8 0.92,-1 a 2.06,2.06 0 0 1 1.59,1.08 l 1.8,1.65 c 0.4,0.37 1,0.53 1.33,-0.25 l 0.66,-2.34 c 0.35,-0.78 0.51,-1.37 0.71,-1.18 a 1.94,1.94 0 0 1 1.74,0.11 l 2.18,1.25 c 0.58,0.17 1.15,-0.05 1.11,-0.82 L 101,104.59 a 1.45,1.45 0 0 1 0.13,-1.35 3.77,3.77 0 0 1 1.72,-0.27 l 2.5,0.08 c 0.57,-0.22 0.93,-0.62 0.71,-1.19 l -1.26,-2.25 a 5.08,5.08 0 0 1 -0.25,-1.33 c 0,-0.38 0.73,-0.8 1.3,-1 l 2.26,-0.87 c 0.57,-0.22 0.73,-0.8 0.33,-1.17 l -1.8,-1.65 a 9.57,9.57 0 0 1 -1,-1.3 9.61,9.61 0 0 1 0.9,-1.39 l 1.85,-1.62 c 0.55,-0.6 0.33,-1.17 -0.25,-1.33 l -2.35,-1 a 4.56,4.56 0 0 1 -1.37,-0.52 c 0,0 0.15,-1 0.31,-1.55 l 1,-2.35 c 0.35,-0.78 -0.05,-1.15 -0.82,-1.12 l -2.3,0.1 a 4.7,4.7 0 0 1 -1.35,-0.13 1.85,1.85 0 0 1 -0.45,-1.52 l 0.08,-2.5 c 0,-0.77 -0.44,-1.13 -1.18,-0.72 l -2.27,0.87 a 11.19,11.19 0 0 1 -1.31,0.64 5.62,5.62 0 0 1 -0.84,-1.5 L 94.2,74.16 c -0.22,-0.57 -0.8,-0.73 -1.35,-0.13 l -1.65,1.8 -0.92,1 A 2.06,2.06 0 0 1 88.69,75.75 L 86.9,74.1 c -0.22,-0.57 -1,-0.53 -1.33,0.25 l -0.66,2.34 c -0.17,0.58 -0.51,1.37 -0.72,1.18 a 1.33,1.33 0 0 1 -1.55,-0.31 z m 7.17,13.9 A 3.27,3.27 0 0 1 91.84,89.64 3,3 0 0 1 93,94 3.3049433,3.3049433 0 0 1 87.45,90.41"
     id="path38"
     inkscape:connector-curvature="0"
     style="fill:#808080" />
  <path
     class="cls-12"
     d="m 335.36,52.16 a 1.25,1.25 0 0 0 1.16,0.81 l 2.54,-0.14 a 1.25,1.25 0 0 0 1,-1.35 l 0.08,-3.12 a 1.81,1.81 0 0 1 1.15,-1.93 c 0.4,-0.39 1,-0.57 1.39,-0.93 a 2.19,2.19 0 0 1 2.15,0.24 l 2.89,1.83 a 1.47,1.47 0 0 0 1.34,-0.18 l 1.84,-2.1 a 1.3,1.3 0 0 0 -0.35,-1.58 l -2.24,-2.38 a 1.59,1.59 0 0 1 -0.35,-2 c 0,0 0.84,-3.11 2.18,-3.28 l 2.94,-0.52 a 1.55,1.55 0 0 0 1,-1.34 l -0.33,-2.75 a 1,1 0 0 0 -1.09,-0.82 h -0.07 l -3.13,-0.07 a 1.86,1.86 0 0 1 -1.93,-1.22 c -0.39,-0.4 -0.57,-1 -0.93,-1.38 a 3.13,3.13 0 0 1 0.12,-2.35 l 1.82,-2.5 a 1.41,1.41 0 0 0 -0.16,-1.76 L 346.27,20 a 1.25,1.25 0 0 0 -1.57,0 l -2.19,2.48 c -0.55,0.6 -1.59,1.51 -3.73,0.12 0,0 -1.59,-1 -1.74,-1.83 l -0.46,-3.31 a 1.25,1.25 0 0 0 -1.16,-0.81 l -2.75,0.33 a 1,1 0 0 0 -0.76,1.13 v 0 l -0.27,3.31 c 0,1.17 -0.41,1.56 -1,1.74 -0.4,0.39 -1,0.57 -1.39,0.93 a 2,2 0 0 1 -2.35,-0.06 l -2.69,-2 a 1.52,1.52 0 0 0 -1.58,0.35 l -1.84,2.1 a 1.73,1.73 0 0 0 0.35,1.58 l 2.29,2.4 c 0.76,0.79 1.13,1.54 0.1,3.72 -0.16,0.59 -0.43,1.18 -1.79,1.33 l -3.15,0.71 a 1.25,1.25 0 0 0 -0.81,1.16 l 0.33,2.75 a 1.25,1.25 0 0 0 1,1 l 3.32,-0.11 c 1.17,0 1.56,0.41 1.74,1 a 17.5,17.5 0 0 1 0.93,1.78 1.75,1.75 0 0 1 0.13,2.1 l -2,2.69 a 1.51,1.51 0 0 0 0.35,1.57 l 1.92,1.61 a 1.25,1.25 0 0 0 1.57,0 l 2.21,-2.48 a 2,2 0 0 1 2.15,-0.51 c 0,0 3.14,0.27 3.27,2.22 l 0.7,3.14 m 7.29,-18 a 6.88,6.88 0 0 1 -6,7.28 6.39,6.39 0 0 1 -7.32,-5.42 q 0,-0.31 -0.06,-0.62 a 6.56,6.56 0 0 1 5.83,-7.09 6.65,6.65 0 0 1 7.5,5.68 v 0.16"
     id="path44"
     inkscape:connector-curvature="0"
     style="fill:#808285" />
  <path
     id="path36"
     style="fill:#ededed;fill-opacity:1;fill-rule:nonzero;stroke:none;stroke-width:0.01508578"
     d="M 156.51959,16.672845 V 119.46051 h 66.47286 V 16.672845 h -66.47286 v 0"
     inkscape:connector-curvature="0" />
  <g
     id="g38"
     transform="matrix(0.01508578,0,0,-0.01508578,76.270978,162.59523)">
    <g
       clip-path="url(#clipPath44)"
       id="g40">
      <path
         id="path46"
         style="fill:#ffffff;fill-opacity:1;fill-rule:nonzero;stroke:none"
         d="M 5591.71,9673.25 V 2859.3 H 9453.59 V 9673.25 H 5591.71 v 0"
         inkscape:connector-curvature="0" />
    </g>
  </g>
  <path
     id="path48"
     style="fill:#254553;fill-opacity:1;fill-rule:nonzero;stroke:none;stroke-width:0.01508578"
     d="m 156.50057,119.55313 v 8.66103 c 0,0 0,7.6601 12.706,7.6601 h 41.0544 c 0,0 12.70628,0.5805 12.70628,-10.54283 v -5.7783 z M 222.96725,16.765477 v -2.865542 c 0,0 0,-10.1819992 -12.70628,-10.1819992 h -41.0544 c 0,0 -12.706,-0.9549132 -12.706,10.1819992 v 2.865542 h 66.46668 v 0"
     inkscape:connector-curvature="0" />
  <path
     id="path50"
     style="fill:#ededed;fill-opacity:1;fill-rule:nonzero;stroke:none;stroke-width:0.01508578"
     d="m 184.39869,9.6783372 v 1.8600708 h 14.82522 V 9.6783372 h -14.82522 v 0"
     inkscape:connector-curvature="0" />
  <path
     id="path52"
     style="fill:#ededed;fill-opacity:1;fill-rule:nonzero;stroke:none;stroke-width:0.01508578"
     d="m 180.30757,9.6783372 v 1.8600708 h 2.47467 V 9.6783372 h -2.47467 v 0"
     inkscape:connector-curvature="0" />
  <path
     id="path54"
     style="fill:#b2ce5b;fill-opacity:1;fill-rule:nonzero;stroke:none;stroke-width:0.01508578"
     d="m 165.3301,107.76782 v -8.136964 c 0,0 0,-4.698766 4.22886,-4.698766 h 44.60394 l -4.70781,4.342435 c 0.005,0.116008 0.009,0.234127 0.009,0.356331 v 8.136964 c 0,0 0,4.69877 -4.22869,4.69877 h -35.67632 c 0,0 -4.22885,0 -4.22885,-4.69877 v 0"
     inkscape:connector-curvature="0" />
  <path
     id="path56"
     style="fill:#ffffff;fill-opacity:1;fill-rule:nonzero;stroke:none;stroke-width:0.01508578"
     d="m 169.3995,99.535512 v 1.044388 h 36.25789 V 99.535512 H 169.3995 v 0"
     inkscape:connector-curvature="0" />
  <path
     id="path58"
     style="fill:#ffffff;fill-opacity:1;fill-rule:nonzero;stroke:none;stroke-width:0.01508578"
     d="m 169.3995,106.35985 v 1.28141 h 29.6354 v -1.28141 h -29.6354 v 0"
     inkscape:connector-curvature="0" />
  <path
     id="path60"
     style="fill:#ffffff;fill-opacity:1;fill-rule:nonzero;stroke:none;stroke-width:0.01508578"
     d="m 169.3995,102.9016 v 1.04395 h 36.25789 V 102.9016 H 169.3995 v 0"
     inkscape:connector-curvature="0" />
  <path
     id="path66"
     style="fill:#b2ce5b;fill-opacity:1;fill-rule:nonzero;stroke:none;stroke-width:0.01508578"
     d="M 165.3301,48.858785 V 30.803397 c 0,0 0,-4.698317 4.22886,-4.698317 h 44.60394 l -4.70781,4.341985 c 0.005,0.11601 0.009,0.234126 0.009,0.356332 v 18.055388 c 0,0 0,4.698165 -4.22869,4.698165 h -35.67632 c 0,0 -4.22885,0 -4.22885,-4.698165 v 0"
     inkscape:connector-curvature="0" />
  <path
     id="path68"
     style="fill:#ffffff;fill-opacity:1;fill-rule:nonzero;stroke:none;stroke-width:0.01508578"
     d="m 169.3995,30.708495 v 1.043942 h 36.25789 V 30.708495 H 169.3995 v 0"
     inkscape:connector-curvature="0" />
  <path
     id="path70"
     style="fill:#ffffff;fill-opacity:1;fill-rule:nonzero;stroke:none;stroke-width:0.01508578"
     d="m 169.3995,40.805403 v 1.044393 h 36.25789 V 40.805403 H 169.3995 v 0"
     inkscape:connector-curvature="0" />
  <path
     id="path72"
     style="fill:#ffffff;fill-opacity:1;fill-rule:nonzero;stroke:none;stroke-width:0.01508578"
     d="m 169.3995,37.439765 v 1.04379 h 36.25789 v -1.04379 H 169.3995 v 0"
     inkscape:connector-curvature="0" />
  <path
     id="path74"
     style="fill:#ffffff;fill-opacity:1;fill-rule:nonzero;stroke:none;stroke-width:0.01508578"
     d="m 169.3995,44.171041 v 1.044393 h 36.25789 V 44.171041 H 169.3995 v 0"
     inkscape:connector-curvature="0" />
  <path
     id="path76"
     style="fill:#ffffff;fill-opacity:1;fill-rule:nonzero;stroke:none;stroke-width:0.01508578"
     d="m 169.3995,47.536671 v 1.044384 h 29.6354 v -1.044384 h -29.6354 v 0"
     inkscape:connector-curvature="0" />
  <path
     id="path78"
     style="fill:#ffffff;fill-opacity:1;fill-rule:nonzero;stroke:none;stroke-width:0.01508578"
     d="m 169.3995,34.074135 v 1.043942 h 36.25789 V 34.074135 H 169.3995 v 0"
     inkscape:connector-curvature="0" />
  <path
     id="path80"
     style="fill:#6dcaf3;fill-opacity:1;fill-rule:nonzero;stroke:none;stroke-width:0.01508578"
     d="M 214.1629,83.338072 V 65.283115 c 0,0 0,-4.698758 -4.22884,-4.698758 H 165.3301 l 4.70784,4.342435 c -0.005,0.11601 -0.009,0.23428 -0.009,0.356323 v 18.054957 c 0,0 0,4.698759 4.22869,4.698759 h 35.67634 c 0,0 4.22885,0 4.22885,-4.698759 v 0"
     inkscape:connector-curvature="0" />
  <path
     id="path82"
     style="fill:#ffffff;fill-opacity:1;fill-rule:nonzero;stroke:none;stroke-width:0.01508578"
     d="m 210.09367,65.187782 v 1.044375 h -36.25864 v -1.044375 h 36.25864 v 0"
     inkscape:connector-curvature="0" />
  <path
     id="path84"
     style="fill:#ffffff;fill-opacity:1;fill-rule:nonzero;stroke:none;stroke-width:0.01508578"
     d="m 210.09367,75.284681 v 1.044392 h -36.25864 v -1.044392 h 36.25864 v 0"
     inkscape:connector-curvature="0" />
  <path
     id="path86"
     style="fill:#ffffff;fill-opacity:1;fill-rule:nonzero;stroke:none;stroke-width:0.01508578"
     d="m 210.09367,71.919041 v 1.044392 h -36.25864 v -1.044392 h 36.25864 v 0"
     inkscape:connector-curvature="0" />
  <path
     id="path88"
     style="fill:#ffffff;fill-opacity:1;fill-rule:nonzero;stroke:none;stroke-width:0.01508578"
     d="m 210.09367,78.650913 v 1.0438 h -36.25864 v -1.0438 h 36.25864 v 0"
     inkscape:connector-curvature="0" />
  <path
     id="path90"
     style="fill:#ffffff;fill-opacity:1;fill-rule:nonzero;stroke:none;stroke-width:0.01508578"
     d="m 210.09367,82.0164 v 1.043933 H 180.45814 V 82.0164 h 29.63553 v 0"
     inkscape:connector-curvature="0" />
  <path
     id="path92"
     style="fill:#ffffff;fill-opacity:1;fill-rule:nonzero;stroke:none;stroke-width:0.01508578"
     d="m 210.09367,68.553411 v 1.044385 h -36.25864 v -1.044385 h 36.25864 v 0"
     inkscape:connector-curvature="0" />
  <rect
     style="fill:#254553;fill-opacity:1"
     id="rect4594"
     width="1.0215541"
     height="104.50296"
     x="156.50056"
     y="16.765476" />
  <rect
     style="fill:#254553;fill-opacity:1"
     id="rect4594-3"
     width="1.0215541"
     height="104.50296"
     x="221.93327"
     y="16.480083" />
  <path
     style="fill:#6dcaf3;fill-opacity:1;stroke-width:0.41717213"
     d="m 138.11558,63.791683 c -4.7403,-1.14893 -8.51229,-3.890698 -9.72644,-7.069908 -0.65401,-1.712483 -0.83107,-1.854531 -2.84029,-2.278611 -5.04111,-1.06401 -8.92722,-4.131965 -11.01764,-8.698039 -1.41991,-3.101488 -1.50734,-7.651533 -0.20329,-10.578889 1.03635,-2.326392 3.69888,-5.322438 5.67636,-6.387379 1.39967,-0.753773 1.42849,-0.824741 1.61025,-3.964416 0.58234,-10.059748 10.22447,-17.6785964 20.20891,-15.9683344 3.69562,0.6330324 7.41609,2.5319334 9.88432,5.0448744 1.99821,2.034417 2.03315,2.049834 3.25909,1.438256 0.68156,-0.340012 1.27445,-0.551685 1.31751,-0.470385 0.0431,0.0813 -0.0156,10.45052 -0.1303,23.04271 l -0.20859,22.894892 -2.08586,1.176371 c -4.21486,2.377072 -10.46286,3.098884 -15.74403,1.818858 z"
     id="path4642"
     inkscape:connector-curvature="0" />
  <path
     style="fill:#6dcaf3;fill-opacity:1;stroke-width:0.41717213"
     d="m 223.24555,87.49413 c 0.0744,-21.049566 0.17839,-38.314982 0.231,-38.367591 0.0526,-0.05261 1.30579,-0.411094 2.78485,-0.796634 3.5336,-0.921087 9.43076,-0.927233 12.87978,-0.01342 5.71555,1.51432 11.63976,5.485304 14.63116,9.807232 1.00516,1.452236 1.65508,2.028943 2.08586,1.850893 8.33754,-3.44605 15.58639,-3.35724 23.15704,0.283713 5.43538,2.614034 10.6325,7.964735 13.03047,13.415549 l 0.84986,1.931785 3.74282,-0.213406 c 7.56353,-0.431253 13.94828,2.013369 19.34326,7.406233 12.36021,12.355374 8.89129,32.548066 -6.93992,40.397486 -5.20252,2.57952 -5.02499,2.5699 -47.42982,2.57 l -38.50172,1e-4 z"
     id="path4644"
     inkscape:connector-curvature="0" />
</svg>
