<?xml version="1.0" encoding="UTF-8" standalone="no"?>
<svg
   xmlns:dc="http://purl.org/dc/elements/1.1/"
   xmlns:cc="http://creativecommons.org/ns#"
   xmlns:rdf="http://www.w3.org/1999/02/22-rdf-syntax-ns#"
   xmlns:svg="http://www.w3.org/2000/svg"
   xmlns="http://www.w3.org/2000/svg"
   xmlns:sodipodi="http://sodipodi.sourceforge.net/DTD/sodipodi-0.dtd"
   xmlns:inkscape="http://www.inkscape.org/namespaces/inkscape"
   id="ICONS"
   viewBox="0 0 400 140"
   version="1.1"
   sodipodi:docname="disa-framework-messaging-media.svg"
   inkscape:version="0.92.1 r15371">
  <metadata
     id="metadata93">
    <rdf:RDF>
      <cc:Work
         rdf:about="">
        <dc:format>image/svg+xml</dc:format>
        <dc:type
           rdf:resource="http://purl.org/dc/dcmitype/StillImage" />
      </cc:Work>
    </rdf:RDF>
  </metadata>
  <sodipodi:namedview
     pagecolor="#ffffff"
     bordercolor="#666666"
     borderopacity="1"
     objecttolerance="10"
     gridtolerance="10"
     guidetolerance="10"
     inkscape:pageopacity="0"
     inkscape:pageshadow="2"
     inkscape:window-width="1903"
     inkscape:window-height="1096"
     id="namedview91"
     showgrid="false"
     inkscape:zoom="3.39"
     inkscape:cx="173.08124"
     inkscape:cy="58.38056"
     inkscape:window-x="2489"
     inkscape:window-y="-9"
     inkscape:window-maximized="1"
     inkscape:current-layer="ICONS" />
  <defs
     id="defs4">
    <style
       id="style2">.cls-1{fill:#d1d3d4;}.cls-2{fill:#558ad8;}.cls-3{fill:#c6df33;}.cls-4{fill:#80bceb;}.cls-5{fill:#4d4e4e;}.cls-6{fill:#f2f2f2;}.cls-7{fill:#aad2f2;}.cls-8{fill:#d4e8f8;}.cls-9{fill:#55a5e4;}.cls-10{fill:#0078d7;}.cls-11{fill:#80c1b9;}.cls-12{fill:#55aca1;}.cls-13{fill:#2b8fde;}.cls-14{fill:#ffb900;}.cls-15{fill:#ffd055;}.cls-16{fill:#2c94d9;}.cls-17{fill:#414042;}.cls-18{fill:#0050c5;}.cls-19{fill:#6d6e71;}</style>
    <clipPath
       id="clipPath172"
       clipPathUnits="userSpaceOnUse">
      <path
         inkscape:connector-curvature="0"
         id="path170"
         d="M 5585.54,5083.34 5612,4699.91 h 158.64 l 26.47,383.43 z" />
    </clipPath>
    <clipPath
       id="clipPath138"
       clipPathUnits="userSpaceOnUse">
      <path
         inkscape:connector-curvature="0"
         id="path136"
         d="m 6376.26,10120.4 68.23,-989.07 h 409.27 l 68.2,989.07 z" />
    </clipPath>
    <clipPath
       id="clipPath94"
       clipPathUnits="userSpaceOnUse">
      <path
         inkscape:connector-curvature="0"
         id="path92"
         d="m 8742.2,7341.88 c 19.1,0 243.39,0 262.5,0 126.92,0 24.21,-126.63 -117.58,-136.36 -3.4,-0.37 -12.49,-0.59 -13.67,-0.55 -1.15,-0.04 -10.28,0.18 -13.64,0.55 -141.79,9.73 -244.5,136.36 -117.61,136.36 z" />
    </clipPath>
    <clipPath
       id="clipPath76"
       clipPathUnits="userSpaceOnUse">
      <path
         inkscape:connector-curvature="0"
         id="path74"
         d="m 9017.26,7365.97 -35.96,-454.18 h -215.71 l -35.96,454.18 z" />
    </clipPath>
    <clipPath
       id="clipPath32"
       clipPathUnits="userSpaceOnUse">
      <path
         inkscape:connector-curvature="0"
         id="path30"
         d="M 4415.3,12572.1 V 3717.62 h 5726.2 v 8854.48 z" />
    </clipPath>
  </defs>
  <title
     id="title6">bot-framework-intelligence-vision</title>
  <path
     class="cls-2"
     d="M61.81,89.5l24-42.5h34.43A26.89,26.89,0,0,0,70.2,55.09a.05.05,0,0,1-.08,0,18.3,18.3,0,0,0-29.31,9.31.05.05,0,0,1-.06,0A15.95,15.95,0,0,0,21,80.72C21.4,89.36,28.86,96,37.5,96h28Z"
     id="path10" />
  <polygon
     class="cls-3"
     points="86.99 49 64.11 89.5 86.99 130 132.75 130 155.63 89.5 132.75 49 86.99 49"
     id="polygon12" />
  <path
     class="cls-2"
     d="M364.2,99.4a12.77,12.77,0,0,0-3,.37,0,0,0,0,1,0,0,14.64,14.64,0,0,0-23.45-7.45,0,0,0,0,1-.07,0,21.47,21.47,0,0,0-27.56-16.68l7.86,13.91L297.88,125H363.8A13.06,13.06,0,0,0,377,112.78,12.8,12.8,0,0,0,364.2,99.4Z"
     id="path14" />
  <path
     class="cls-4"
     d="M322.59,61.66l-5.86-1.11a23,23,0,0,0-.45-4l5-2.94a1.54,1.54,0,0,0,.94-2.07l-1.31-3.65a1.33,1.33,0,0,0-1.86-.72l-6,1-1.75-3.24,3.58-4.49a1.59,1.59,0,0,0,.1-2.1l-2.81-3.08a1.88,1.88,0,0,0-2.1-.1l-4.79,3.16c-1-.68-2.25-1.58-3.27-2.26l1.54-5.84a1.44,1.44,0,0,0-.77-1.72l-3.51-1.64a1.33,1.33,0,0,0-1.93.55L294,32.51a12.28,12.28,0,0,0-3.75-1l-.57-5.93A1.44,1.44,0,0,0,288.24,24l-4,0c-.62-.24-1.28.37-1.52,1l-1.33,6.06a12.39,12.39,0,0,0-3.83.67l-2.92-5.41a2.12,2.12,0,0,0-1.87-.72l-3.87,1.51A1.43,1.43,0,0,0,268,28.8l1.21,5.75c-1.08.58-2.18,1.59-3.27,2.17l-4.68-3.8a1.36,1.36,0,0,0-1.9.12l-2.86,2.61a1.36,1.36,0,0,0-.3,1.89l3.36,5A17.19,17.19,0,0,0,257.05,46l-5.82-2a1.84,1.84,0,0,0-1.94,1L248.38,47h45.54l19.38,34.31,4.3,1.44a1.43,1.43,0,0,0,1.72-.76l1.86-3.71a2.12,2.12,0,0,0-.54-1.92l-5.12-3.4a10.76,10.76,0,0,0,.8-3.55l6.15-.78c.64-.18,1.3-.78,1.32-1.21L324,63.2A1.44,1.44,0,0,0,322.59,61.66Z"
     id="path16" />
  <polygon
     class="cls-3"
     points="247 49 224.12 89.5 247 130 292.76 130 315.64 89.5 292.76 49 247 49"
     id="polygon18" />
  <rect
     class="cls-5"
     x="242"
     y="68.19"
     width="56"
     height="44.63"
     rx="4"
     ry="4"
     id="rect20" />
  <rect
     class="cls-6"
     x="244"
     y="71"
     width="4"
     height="4"
     id="rect22" />
  <rect
     class="cls-6"
     x="244"
     y="78"
     width="4"
     height="4"
     id="rect24" />
  <rect
     class="cls-6"
     x="244"
     y="85"
     width="4"
     height="4"
     id="rect26" />
  <rect
     class="cls-6"
     x="244"
     y="92"
     width="4"
     height="4"
     id="rect28" />
  <rect
     class="cls-6"
     x="244"
     y="99"
     width="4"
     height="4"
     id="rect30" />
  <rect
     class="cls-6"
     x="244"
     y="106"
     width="4"
     height="4"
     id="rect32" />
  <rect
     class="cls-6"
     x="292"
     y="71"
     width="4"
     height="4"
     id="rect34" />
  <rect
     class="cls-6"
     x="292"
     y="78"
     width="4"
     height="4"
     id="rect36" />
  <rect
     class="cls-6"
     x="292"
     y="85"
     width="4"
     height="4"
     id="rect38" />
  <rect
     class="cls-6"
     x="292"
     y="92"
     width="4"
     height="4"
     id="rect40" />
  <rect
     class="cls-6"
     x="292"
     y="99"
     width="4"
     height="4"
     id="rect42" />
  <rect
     class="cls-6"
     x="292"
     y="106"
     width="4"
     height="4"
     id="rect44" />
  <rect
     class="cls-7"
     x="250"
     y="70"
     width="40"
     height="41"
     id="rect46" />
  <polygon
     class="cls-8"
     points="290 70 267.25 70 290 92.75 290 70"
     id="polygon48" />
  <circle
     class="cls-9"
     cx="270"
     cy="90"
     r="13"
     id="circle50" />
  <polygon
     class="cls-5"
     points="265 97.06 265 83.06 277.25 90.06 265 97.06"
     id="polygon52" />
  <path
     class="cls-10"
     d="M135.89,70.2V110.8a2.11,2.11,0,0,1-2,2.2H85a2.11,2.11,0,0,1-2-2.2V70.2A2.11,2.11,0,0,1,85,68h48.89A2.11,2.11,0,0,1,135.89,70.2Z"
     id="path54" />
  <path
     class="cls-11"
     d="M122.63,113H85a2,2,0,0,1-2-2v-8L99,81Z"
     id="path56" />
  <path
     class="cls-12"
     d="M135.89,106.65V111a2,2,0,0,1-2,2H106.76L124,91Z"
     id="path58" />
  <path
     class="cls-13"
     d="M136,70v6H83.11V70a2,2,0,0,1,2-2H134A2,2,0,0,1,136,70Z"
     id="path60" />
  <path
     class="cls-14"
     d="M127,75.5a3.52,3.52,0,0,1-3.5,3.5,3.5,3.5,0,0,1-3.5-3.5,3.52,3.52,0,0,1,3.5-3.5A3.5,3.5,0,0,1,127,75.5Z"
     id="path62" />
  <path
     class="cls-15"
     d="M127,75.5A3.46,3.46,0,0,1,126,78L121,73a3.46,3.46,0,0,1,2.47-1A3.5,3.5,0,0,1,127,75.5Z"
     id="path64" />
  <path
     id="path24"
     style="fill:#ededed;fill-opacity:1;fill-rule:nonzero;stroke:none;stroke-width:0.01134844"
     d="M 157.47112,18.415318 V 119.6168 h 64.52315 V 18.415318 h -64.52315 v 0"
     inkscape:connector-curvature="0" />
  <g
     id="g26"
     transform="matrix(0.01126804,0,0,-0.0114294,107.71927,162.10697)">
    <g
       clip-path="url(#clipPath32)"
       id="g28">
      <path
         id="path34"
         style="fill:#ffffff;fill-opacity:1;fill-rule:nonzero;stroke:none"
         d="M 4769.06,12572.7 V 3717.62 h 5018.7 v 8855.08 h -5018.7 v 0"
         inkscape:connector-curvature="0" />
    </g>
  </g>
  <path
     id="path36"
     style="fill:#254553;fill-opacity:1;fill-rule:nonzero;stroke:none;stroke-width:0.01134844"
     d="m 157.45287,119.70767 v 8.52748 c 0,0 0,7.54186 12.33332,7.54186 h 39.85042 c 0,0 12.33402,0.57159 12.33402,-10.38023 v -5.68911 z M 221.97063,18.505613 v -2.820775 c 0,0 0,-10.0258717 -12.33402,-10.0258717 h -39.85042 c 0,0 -12.33332,-0.9406511 -12.33332,10.0258717 v 2.820775 h 64.51776 v 0"
     inkscape:connector-curvature="0" />
  <path
     id="path38"
     style="fill:#ededed;fill-opacity:1;fill-rule:nonzero;stroke:none;stroke-width:0.01134844"
     d="m 184.53261,11.527961 v 1.830994 h 14.39078 v -1.830994 h -14.39078 v 0"
     inkscape:connector-curvature="0" />
  <path
     id="path40"
     style="fill:#ededed;fill-opacity:1;fill-rule:nonzero;stroke:none;stroke-width:0.01134844"
     d="m 180.5614,11.527961 v 1.830994 h 2.40189 v -1.830994 h -2.40189 v 0"
     inkscape:connector-curvature="0" />
  <path
     id="path50"
     style="fill:#6dcaf3;fill-opacity:1;fill-rule:nonzero;stroke:none;stroke-width:0.01134844"
     d="m 214.978,106.18292 v -4.91007 c 0,0 0,-3.364849 -2.98536,-3.364849 h -31.48778 l 3.32347,3.109749 c -0.003,0.0827 -0.004,0.16728 -0.004,0.2551 v 4.91007 c 0,0 0,3.36482 2.98536,3.36482 h 25.18558 c 0,0 2.98533,0 2.98533,-3.36482 v 0"
     inkscape:connector-curvature="0" />
  <path
     id="path52"
     style="fill:#ffffff;fill-opacity:1;fill-rule:nonzero;stroke:none;stroke-width:0.01134844"
     d="m 186.61967,101.17318 v 0.74771 h 25.59619 v -0.74771 h -25.59619 v 0"
     inkscape:connector-curvature="0" />
  <path
     id="path54-9"
     style="fill:#ffffff;fill-opacity:1;fill-rule:nonzero;stroke:none;stroke-width:0.01134844"
     d="m 186.61967,103.35426 v 0.74737 h 25.59619 v -0.74737 h -25.59619 v 0"
     inkscape:connector-curvature="0" />
  <path
     id="path56-8"
     style="fill:#ffffff;fill-opacity:1;fill-rule:nonzero;stroke:none;stroke-width:0.01134844"
     d="m 186.61967,105.53497 v 0.74727 h 10.11548 v -0.74727 h -10.11548 v 0"
     inkscape:connector-curvature="0" />
  <path
     id="path62-4"
     style="fill:#ededed;fill-opacity:1;fill-rule:nonzero;stroke:none;stroke-width:0.01134844"
     d="m 207.70582,85.429387 c 4.01649,0 7.27218,-3.302313 7.27218,-7.376321 0,-4.073672 -3.25569,-7.375978 -7.27218,-7.375978 -4.01618,0 -7.27182,3.302306 -7.27182,7.375978 0,4.074008 3.25564,7.376321 7.27182,7.376321 v 0"
     inkscape:connector-curvature="0" />
  <path
     id="path64-3"
     style="fill:#eaa182;fill-opacity:1;fill-rule:nonzero;stroke:none;stroke-width:0.01134844"
     d="m 210.56828,77.123157 c -0.32817,-0.134642 -0.41807,-0.685522 -0.20072,-1.230939 0.21704,-0.545406 0.65932,-0.878697 0.98742,-0.743938 0.32856,0.134401 0.41863,0.685654 0.20125,1.230939 -0.21701,0.545406 -0.6594,0.878359 -0.98795,0.743938 v 0"
     inkscape:connector-curvature="0" />
  <path
     id="path66"
     style="fill:#eaa182;fill-opacity:1;fill-rule:nonzero;stroke:none;stroke-width:0.01134844"
     d="m 204.84329,77.123157 c 0.32858,-0.134642 0.41861,-0.685522 0.20114,-1.230939 -0.21734,-0.545406 -0.65929,-0.878697 -0.98787,-0.743938 -0.32827,0.134401 -0.41815,0.685654 -0.20115,1.230939 0.21739,0.545406 0.65975,0.878359 0.98788,0.743938 v 0"
     inkscape:connector-curvature="0" />
  <path
     id="path68"
     style="fill:#fabf97;fill-opacity:1;fill-rule:nonzero;stroke:none;stroke-width:0.01134844"
     d="m 209.3263,77.91832 -0.40523,5.19101 h -2.43063 l -0.40518,-5.19101 h 3.24104 v 0"
     inkscape:connector-curvature="0" />
  <g
     id="g70"
     transform="matrix(0.01126804,0,0,-0.0114294,107.71927,162.10697)">
    <g
       clip-path="url(#clipPath76)"
       id="g72">
      <path
         id="path78"
         style="fill:#eaa182;fill-opacity:1;fill-rule:nonzero;stroke:none"
         d="m 8873.45,7064.59 c -172.09,0 -359.53,257.03 -359.53,550.43 0,293.4 -105.45,531.25 359.53,531.25 465.01,0 359.52,-237.85 359.52,-531.25 0,-293.4 -187.43,-550.43 -359.52,-550.43 v 0"
         inkscape:connector-curvature="0" />
    </g>
  </g>
  <path
     id="path80"
     style="fill:#fabf97;fill-opacity:1;fill-rule:nonzero;stroke:none;stroke-width:0.01134844"
     d="m 207.70582,80.842403 c -0.6222,0 -2.32572,-0.819481 -2.96171,-1.692699 -0.43347,-0.595683 -0.23604,-0.981314 -0.23604,-2.069166 0,-2.682482 -0.99372,-5.953134 3.19775,-5.953134 4.19185,0 3.19775,3.270652 3.19775,5.953134 0,1.106477 0.1883,1.479413 -0.25824,2.077169 -0.63599,0.851615 -2.31727,1.684696 -2.93951,1.684696 v 0"
     inkscape:connector-curvature="0" />
  <path
     id="path82"
     style="fill:#284354;fill-opacity:1;fill-rule:nonzero;stroke:none;stroke-width:0.01134844"
     d="m 206.18058,75.757811 c 0.33289,0.02371 0.64814,0.264136 0.67688,-0.04715 0.0324,-0.359109 -0.29659,-0.5965 -0.62809,-0.631247 -0.25783,-0.02699 -0.62641,0.24677 -0.61434,0.559356 0.0126,0.348495 0.23325,0.0956 0.56555,0.119034 v 0"
     inkscape:connector-curvature="0" />
  <path
     id="path84"
     style="fill:#284354;fill-opacity:1;fill-rule:nonzero;stroke:none;stroke-width:0.01134844"
     d="m 209.23096,75.757811 c -0.33239,0.02371 -0.64802,0.264136 -0.67641,-0.04715 -0.0327,-0.359109 0.2961,-0.5965 0.62772,-0.631247 0.25815,-0.02699 0.62673,0.24677 0.61468,0.559356 -0.0126,0.348495 -0.23325,0.0956 -0.56599,0.119034 v 0"
     inkscape:connector-curvature="0" />
  <path
     id="path86"
     style="fill:#e26668;fill-opacity:1;fill-rule:nonzero;stroke:none;stroke-width:0.01134844"
     d="m 206.22689,78.193641 c 0.21522,0 2.74253,0 2.95788,0 1.43014,0 0.27279,1.447311 -1.32489,1.558522 -0.0383,0.0039 -0.14077,0.0065 -0.1542,0.0065 -0.0126,9.29e-4 -0.11582,-0.0026 -0.15389,-0.0065 -1.59769,-0.111189 -2.75506,-1.558522 -1.32523,-1.558522 v 0"
     inkscape:connector-curvature="0" />
  <g
     id="g88"
     transform="matrix(0.01126804,0,0,-0.0114294,107.71927,162.10697)">
    <g
       clip-path="url(#clipPath94)"
       id="g90">
      <path
         id="path96"
         style="fill:#ffffff;fill-opacity:1;fill-rule:nonzero;stroke:none"
         d="m 8987.25,7384.2 c 0,0 30.5,0 30.5,-30.54 v -15.22 c 0,0 0,-30.53 -30.5,-30.53 h -227.57 c 0,0 -30.53,0 -30.53,30.53 v 15.22 c 0,0 0,30.54 30.53,30.54 h 227.57 v 0"
         inkscape:connector-curvature="0" />
      <path
         id="path98"
         style="fill:#fc9493;fill-opacity:1;fill-rule:nonzero;stroke:none"
         d="m 8742.2,7162.65 c 19.1,0 243.39,0 262.5,0 126.92,0 24.21,126.63 -117.58,136.35 -3.4,0.37 -12.49,0.59 -13.67,0.55 -1.15,0.04 -10.28,-0.18 -13.64,-0.55 -141.79,-9.72 -244.5,-136.35 -117.61,-136.35 v 0"
         inkscape:connector-curvature="0" />
      <path
         id="path100"
         style="fill:#ffffff;fill-opacity:1;fill-rule:nonzero;stroke:none"
         d="m 8956.46,7236.57 c 0,0 22.18,0 22.18,-22.18 v -11.23 c 0,0 0,-22.18 -22.18,-22.18 h -166.03 c 0,0 -22.18,0 -22.18,22.18 v 11.23 c 0,0 0,22.18 22.18,22.18 h 166.03 v 0"
         inkscape:connector-curvature="0" />
    </g>
  </g>
  <path
     id="path102"
     style="fill:#416170;fill-opacity:1;fill-rule:nonzero;stroke:none;stroke-width:0.01134844"
     d="m 211.55947,71.103412 c -0.0234,-0.189263 -0.21362,-0.160581 -0.401,-0.148808 -0.5856,0.03721 -0.72848,-0.162655 -1.92379,-0.876536 -1.19114,-0.711349 -2.4098,-0.427577 -3.22188,0.184604 -3.73595,0.87445 -1.54768,6.019065 -1.54768,6.019065 0,0 -0.0126,-2.707968 1.14157,-3.530898 1.93495,1.337934 3.91202,1.410967 5.03787,0.615136 0.4339,1.027393 0.29236,2.915762 0.29236,2.915762 0,0 0.74709,-1.910322 0.33942,-3.600497 0.24981,-0.429283 0.3598,-0.961095 0.28313,-1.577828 v 0"
     inkscape:connector-curvature="0" />
  <path
     id="path104"
     style="fill:#688da7;fill-opacity:1;fill-rule:nonzero;stroke:none;stroke-width:0.01134844"
     d="m 212.97343,85.503328 c -0.60467,-1.647204 -1.2003,-3.059763 -1.2003,-3.059763 0,0 -0.0126,-0.02488 -0.0425,-0.03166 -0.80929,-0.591803 -2.70503,-0.75022 -2.70503,-0.75022 v 0 c 0,9.15e-4 -0.0849,0.98819 -1.32195,0.98819 -1.23735,0 -1.32232,-0.98819 -1.32232,-0.98819 0,0 -1.90127,0.158914 -2.70838,0.752408 -0.0238,0.01 -0.0342,0.02966 -0.0342,0.02966 0,0 -0.59596,1.412559 -1.20072,3.059763 0.71925,0.269496 1.46889,0.485403 2.24314,0.642109 v 0 c 0.001,9.13e-4 0.001,9.13e-4 0.004,9.93e-4 0.1063,0.02111 0.21241,0.04144 0.31901,0.06035 0.0304,0.0061 0.0606,0.01 0.0909,0.01604 0.0893,0.01604 0.17867,0.03007 0.26818,0.04402 0.0238,0.0039 0.0469,0.0078 0.0702,0.01 0.10392,0.01604 0.2079,0.03006 0.31246,0.0436 0.0418,0.0061 0.0829,0.01 0.12448,0.01604 0.0687,0.0078 0.13791,0.01604 0.20654,0.02369 0.0457,0.0061 0.0918,0.01 0.13758,0.01396 0.0962,0.01 0.19241,0.01792 0.28903,0.0255 v 0 c 0.39608,0.03088 0.7963,0.04718 1.20117,0.04718 0.4032,0 0.80207,-0.01604 1.19658,-0.04679 v 0 c 0.0969,-0.0078 0.19398,-0.01604 0.29026,-0.02587 0.0457,-0.0039 0.0917,-0.01 0.13695,-0.01396 0.0696,-0.0061 0.13886,-0.01396 0.20779,-0.02311 0.041,-0.0061 0.0821,-0.01 0.1229,-0.01604 0.10435,-0.01396 0.20901,-0.02748 0.31315,-0.04303 0.0228,-0.002 0.0454,-0.0061 0.0685,-0.01 0.0906,-0.01396 0.18103,-0.02886 0.27146,-0.04441 0.0288,-0.0061 0.058,-0.01 0.0866,-0.01604 0.88915,-0.159717 1.74801,-0.395792 2.56719,-0.702569 10e-4,-9.16e-4 0.004,-0.002 0.004,-0.002 v 0"
     inkscape:connector-curvature="0" />
  <path
     id="path106"
     style="fill:#b2ce5b;fill-opacity:1;fill-rule:nonzero;stroke:none;stroke-width:0.01134844"
     d="M 164.91368,88.526289 V 75.598257 c 0,0 0,-3.364823 2.98548,-3.364823 h 31.4878 l -3.32352,3.109606 c 0.003,0.08265 0.004,0.167654 0.004,0.255217 v 12.928032 c 0,0 0,3.364481 -2.98533,3.364481 h -25.18562 c 0,0 -2.98544,0 -2.98544,-3.364481 v 0"
     inkscape:connector-curvature="0" />
  <path
     id="path108"
     style="fill:#ffffff;fill-opacity:1;fill-rule:nonzero;stroke:none;stroke-width:0.01134844"
     d="m 167.78672,75.529796 v 0.747709 h 25.59571 v -0.747709 h -25.59571 v 0"
     inkscape:connector-curvature="0" />
  <path
     id="path110"
     style="fill:#ffffff;fill-opacity:1;fill-rule:nonzero;stroke:none;stroke-width:0.01134844"
     d="m 167.78672,82.759917 v 0.747731 h 25.59571 v -0.747731 h -25.59571 v 0"
     inkscape:connector-curvature="0" />
  <path
     id="path112"
     style="fill:#ffffff;fill-opacity:1;fill-rule:nonzero;stroke:none;stroke-width:0.01134844"
     d="m 167.78672,80.349908 v 0.747733 h 25.59571 v -0.747733 h -25.59571 v 0"
     inkscape:connector-curvature="0" />
  <path
     id="path114"
     style="fill:#ffffff;fill-opacity:1;fill-rule:nonzero;stroke:none;stroke-width:0.01134844"
     d="m 167.78672,85.170028 v 0.74773 h 25.59571 v -0.74773 h -25.59571 v 0"
     inkscape:connector-curvature="0" />
  <path
     id="path116"
     style="fill:#ffffff;fill-opacity:1;fill-rule:nonzero;stroke:none;stroke-width:0.01134844"
     d="m 167.78672,87.580056 v 0.747352 h 20.92069 v -0.747352 h -20.92069 v 0"
     inkscape:connector-curvature="0" />
  <path
     id="path118"
     style="fill:#ffffff;fill-opacity:1;fill-rule:nonzero;stroke:none;stroke-width:0.01134844"
     d="m 167.78672,77.939798 v 0.747712 h 25.59571 v -0.747712 h -25.59571 v 0"
     inkscape:connector-curvature="0" />
  <path
     id="path120"
     style="fill:#ededed;fill-opacity:1;fill-rule:nonzero;stroke:none;stroke-width:0.01134844"
     d="m 182.61634,63.021103 c 9.86654,0 17.86507,-8.113161 17.86507,-18.120403 0,-10.008746 -7.99853,-18.12134 -17.86507,-18.12134 -9.86684,0 -17.86502,8.112594 -17.86502,18.12134 0,10.007242 7.99818,18.120403 17.86502,18.120403 v 0"
     inkscape:connector-curvature="0" />
  <path
     id="path122"
     style="fill:#416170;fill-opacity:1;fill-rule:nonzero;stroke:none;stroke-width:0.01134844"
     d="m 176.52486,33.600438 c 0,0 -4.12064,0 -4.12064,4.17974 v 8.692058 c 0,0 0,4.179626 4.12064,4.179626 h 12.18255 c 0,0 4.12117,0 4.12117,-4.179626 v -8.692058 c 0,0 0,-4.17974 -4.12117,-4.17974 h -12.18255 v 0"
     inkscape:connector-curvature="0" />
  <path
     id="path124"
     style="fill:#fcd9c1;fill-opacity:1;fill-rule:nonzero;stroke:none;stroke-width:0.01134844"
     d="m 195.62645,64.070778 c -0.75676,-3.329273 -1.78741,-5.78876 -3.18399,-6.246283 -4.14691,-1.358492 -8.8095,-1.671213 -7.81949,-4.654852 0.62517,-1.884586 -4.46012,-1.884586 -3.83496,0 0.99001,2.983639 -3.16025,3.29636 -7.3068,4.654852 -1.79961,0.589417 -3.03199,3.001594 -3.87539,6.226966 4.02695,1.473489 8.42635,2.286226 13.03601,2.286226 4.5896,0 8.97187,-0.805541 12.98462,-2.266909 v 0"
     inkscape:connector-curvature="0" />
  <path
     id="path126"
     style="fill:#f4c8b3;fill-opacity:1;fill-rule:nonzero;stroke:none;stroke-width:0.01134844"
     d="m 176.31461,43.009132 c 0.77837,-0.320028 0.99201,-1.626414 0.47686,-2.920228 -0.51565,-1.293807 -1.56435,-2.083572 -2.34276,-1.763547 -0.77886,0.31888 -0.99202,1.625256 -0.47688,2.919069 0.5152,1.293807 1.56392,2.083586 2.34278,1.764706 v 0"
     inkscape:connector-curvature="0" />
  <path
     id="path128"
     style="fill:#f4c8b3;fill-opacity:1;fill-rule:nonzero;stroke:none;stroke-width:0.01134844"
     d="m 188.91825,43.009132 c -0.77885,-0.320028 -0.99216,-1.626414 -0.47699,-2.920228 0.51532,-1.293807 1.564,-2.083572 2.34239,-1.763547 0.77887,0.31888 0.99251,1.625256 0.47691,2.919069 -0.51518,1.293807 -1.56391,2.083586 -2.34231,1.764706 v 0"
     inkscape:connector-curvature="0" />
  <path
     id="path130"
     style="fill:#fcd9c1;fill-opacity:1;fill-rule:nonzero;stroke:none;stroke-width:0.01134844"
     d="m 179.56734,46.436816 0.7688,11.304471 h 4.61167 l 0.76851,-11.304471 h -6.14898 v 0"
     inkscape:connector-curvature="0" />
  <g
     id="g132"
     transform="matrix(0.01126804,0,0,-0.0114294,107.71927,162.10697)">
    <g
       clip-path="url(#clipPath138)"
       id="g134">
      <path
         id="path140"
         style="fill:#f4c8b3;fill-opacity:1;fill-rule:nonzero;stroke:none"
         d="m 6649.11,9543.11 c 326.48,0 682.12,451.27 682.12,1007.89 0,556.7 200.07,1007.9 -682.12,1007.9 -882.2,0 -682.13,-451.2 -682.13,-1007.9 0,-556.62 355.65,-1007.89 682.13,-1007.89 v 0"
         inkscape:connector-curvature="0" />
    </g>
  </g>
  <path
     id="path142"
     style="fill:#fcd9c1;fill-opacity:1;fill-rule:nonzero;stroke:none;stroke-width:0.01134844"
     d="m 182.64183,51.829201 c 3.67879,0 7.68617,-5.158094 7.68617,-11.519702 0,-6.362749 2.2544,-11.519703 -7.68617,-11.519703 -9.94068,0 -7.68627,5.156954 -7.68627,11.519703 0,6.361608 4.00746,11.519702 7.68627,11.519702 v 0"
     inkscape:connector-curvature="0" />
  <path
     id="path144"
     style="fill:#fc9493;fill-opacity:1;fill-rule:nonzero;stroke:none;stroke-width:0.01134844"
     d="m 195.62645,64.070778 c -0.75676,-3.329273 -1.78741,-5.78876 -3.18399,-6.246283 -1.58554,-0.519582 -3.24567,-0.885785 -4.63705,-1.30741 -1.05873,1.363179 -2.98627,2.27491 -5.18907,2.27491 -2.13156,0 -4.0041,-0.854236 -5.08232,-2.14393 -1.21402,0.368828 -2.63334,0.711363 -4.05281,1.17643 -1.79961,0.589417 -3.03199,3.001594 -3.87539,6.226966 4.02695,1.473489 8.42635,2.286226 13.03601,2.286226 4.5896,0 8.97187,-0.805541 12.98462,-2.266909 v 0"
     inkscape:connector-curvature="0" />
  <path
     id="path146"
     style="fill:#416170;fill-opacity:1;fill-rule:nonzero;stroke:none;stroke-width:0.01134844"
     d="m 192.82939,36.808676 c 0,-10.344763 -6.18898,-13.346129 -10.13473,-13.346129 -3.94573,0 -10.29168,3.001366 -10.29168,13.346129 0,4.806064 0.92707,3.552255 0.92707,3.552255 l 7.7266,-2.74305 1.55969,-6.538773 1.55933,6.538773 7.72671,2.74305 c 0,0 0.92701,1.253809 0.92701,-3.552255 v 0"
     inkscape:connector-curvature="0" />
  <path
     id="path148"
     style="fill:#fc9493;fill-opacity:1;fill-rule:nonzero;stroke:none;stroke-width:0.01134844"
     d="m 185.73627,47.132858 c -0.10295,-0.146305 -0.53435,0.504037 -2.08078,-0.146305 -0.42819,-0.180581 -0.91291,0.282308 -1.03915,0.414878 -0.12621,-0.132573 -0.61092,-0.595469 -1.03945,-0.414878 -1.54643,0.650332 -1.97788,0 -2.08075,0.146305 -0.0371,0.05256 1.21818,1.810191 3.1202,1.810191 1.90173,0 3.157,-1.757616 3.11993,-1.810191 v 0"
     inkscape:connector-curvature="0" />
  <path
     id="path150"
     style="fill:#284354;fill-opacity:1;fill-rule:nonzero;stroke:none;stroke-width:0.01134844"
     d="m 186.38262,40.179196 c -0.81505,0.05835 -1.58838,0.646909 -1.65843,-0.115424 -0.0804,-0.881215 0.72644,-1.461823 1.53929,-1.547549 0.63273,-0.0663 1.53653,0.604621 1.50647,1.370396 -0.0333,0.854903 -0.57189,0.235443 -1.38733,0.292576 v 0"
     inkscape:connector-curvature="0" />
  <path
     id="path152"
     style="fill:#284354;fill-opacity:1;fill-rule:nonzero;stroke:none;stroke-width:0.01134844"
     d="m 178.84968,40.179196 c 0.81512,0.05835 1.58893,0.646909 1.65844,-0.115424 0.0805,-0.881215 -0.72638,-1.461823 -1.53933,-1.547549 -0.63214,-0.0663 -1.53643,0.604621 -1.50645,1.370396 0.0333,0.854903 0.57232,0.235443 1.38734,0.292576 v 0"
     inkscape:connector-curvature="0" />
  <path
     id="path154"
     style="fill:#ededed;fill-opacity:1;fill-rule:nonzero;stroke:none;stroke-width:0.01134844"
     d="m 171.83945,110.43661 c 3.82497,0 6.92572,-3.14514 6.92572,-7.02486 0,-3.879734 -3.10075,-7.024874 -6.92572,-7.024874 -3.82504,0 -6.92577,3.14514 -6.92577,7.024874 0,3.87972 3.10073,7.02486 6.92577,7.02486 v 0"
     inkscape:connector-curvature="0" />
  <path
     id="path156"
     style="fill:#416170;fill-opacity:1;fill-rule:nonzero;stroke:none;stroke-width:0.01134844"
     d="m 169.47804,99.031414 c 0,0 -1.59772,0 -1.59772,1.620476 v 3.36905 c 0,0 0,1.62046 1.59772,1.62046 h 4.7229 c 0,0 1.59757,0 1.59757,-1.62046 v -3.36905 c 0,0 0,-1.620476 -1.59757,-1.620476 h -4.7229 v 0"
     inkscape:connector-curvature="0" />
  <path
     id="path158"
     style="fill:#fcd9c1;fill-opacity:1;fill-rule:nonzero;stroke:none;stroke-width:0.01134844"
     d="m 176.88352,110.84349 c -0.29366,-1.29061 -0.69344,-2.24405 -1.23453,-2.42156 -1.60762,-0.52631 -3.41515,-0.64756 -3.03158,-1.80425 0.24239,-0.73078 -1.72917,-0.73078 -1.48682,0 0.38403,1.15669 -1.22492,1.27794 -2.83253,1.80425 -0.69765,0.22861 -1.17529,1.16387 -1.50216,2.41436 1.56095,0.57112 3.26638,0.88622 5.0535,0.88622 1.77921,0 3.4781,-0.31213 5.03412,-0.87902 v 0"
     inkscape:connector-curvature="0" />
  <path
     id="path160"
     style="fill:#f4c8b3;fill-opacity:1;fill-rule:nonzero;stroke:none;stroke-width:0.01134844"
     d="m 169.3963,102.67832 c 0.30203,-0.12386 0.38485,-0.63021 0.18494,-1.13163 -0.19987,-0.50152 -0.60644,-0.80783 -0.9083,-0.68405 -0.30153,0.12387 -0.38445,0.63035 -0.18456,1.13186 0.19947,0.50141 0.60589,0.80759 0.90785,0.68382 v 0"
     inkscape:connector-curvature="0" />
  <path
     id="path162"
     style="fill:#f4c8b3;fill-opacity:1;fill-rule:nonzero;stroke:none;stroke-width:0.01134844"
     d="m 174.28251,102.67832 c -0.30189,-0.12386 -0.38481,-0.63021 -0.18494,-1.13163 0.19988,-0.50152 0.60641,-0.80783 0.90843,-0.68405 0.30141,0.12387 0.38434,0.63035 0.18495,1.13186 -0.19993,0.50141 -0.60646,0.80759 -0.90844,0.68382 v 0"
     inkscape:connector-curvature="0" />
  <path
     id="path164"
     style="fill:#fcd9c1;fill-opacity:1;fill-rule:nonzero;stroke:none;stroke-width:0.01134844"
     d="m 170.65746,104.00746 0.29816,4.38237 h 1.78754 l 0.2983,-4.38237 h -2.384 v 0"
     inkscape:connector-curvature="0" />
  <g
     id="g166"
     transform="matrix(0.01126804,0,0,-0.0114294,107.71927,162.10697)">
    <g
       clip-path="url(#clipPath172)"
       id="g168">
      <path
         id="path174"
         style="fill:#f4c8b3;fill-opacity:1;fill-rule:nonzero;stroke:none"
         d="m 5691.32,4859.54 c 126.56,0 264.43,174.94 264.43,390.76 0,215.78 77.58,390.72 -264.43,390.72 -342,0 -264.42,-174.94 -264.42,-390.72 0,-215.82 137.83,-390.76 264.42,-390.76 v 0"
         inkscape:connector-curvature="0" />
    </g>
  </g>
  <path
     id="path176"
     style="fill:#fcd9c1;fill-opacity:1;fill-rule:nonzero;stroke:none;stroke-width:0.01134844"
     d="m 171.8494,106.09812 c 1.42607,0 2.9796,-1.99945 2.9796,-4.46616 0,-2.466728 0.87417,-4.466193 -2.9796,-4.466193 -3.85368,0 -2.97951,1.999465 -2.97951,4.466193 0,2.46671 1.55307,4.46616 2.97951,4.46616 v 0"
     inkscape:connector-curvature="0" />
  <path
     id="path178"
     style="fill:#fc9493;fill-opacity:1;fill-rule:nonzero;stroke:none;stroke-width:0.01134844"
     d="m 176.88305,110.84349 c -0.29319,-1.29061 -0.69297,-2.24405 -1.23406,-2.42156 -0.61468,-0.20103 -1.25853,-0.34346 -1.79793,-0.50643 -0.41029,0.52806 -1.15781,0.88157 -2.01161,0.88157 -0.82627,0 -1.55226,-0.33113 -1.97041,-0.83093 -0.47069,0.14279 -1.02078,0.27591 -1.57098,0.45579 -0.69765,0.22861 -1.17529,1.16387 -1.50216,2.41436 1.56095,0.57112 3.26638,0.88622 5.0535,0.88622 1.77921,0 3.4781,-0.31213 5.03365,-0.87902 v 0"
     inkscape:connector-curvature="0" />
  <path
     id="path180"
     style="fill:#416170;fill-opacity:1;fill-rule:nonzero;stroke:none;stroke-width:0.01134844"
     d="m 175.79898,100.27458 c 0,-4.010232 -2.39946,-5.173637 -3.92908,-5.173637 -1.52973,0 -3.99002,1.163405 -3.99002,5.173637 0,1.86347 0.35948,1.37761 0.35948,1.37761 l 2.99536,-1.06364 0.60473,-2.535173 0.60478,2.535173 2.99527,1.06364 c 0,0 0.35948,0.48586 0.35948,-1.37761 v 0"
     inkscape:connector-curvature="0" />
  <path
     id="path182"
     style="fill:#fc9493;fill-opacity:1;fill-rule:nonzero;stroke:none;stroke-width:0.01134844"
     d="m 173.04888,104.27729 c -0.0394,-0.0569 -0.20698,0.19516 -0.8067,-0.0569 -0.16565,-0.0697 -0.35357,0.10975 -0.40273,0.16111 -0.0487,-0.0512 -0.23693,-0.23077 -0.40271,-0.16111 -0.59978,0.25226 -0.76675,0 -0.80679,0.0569 -0.0126,0.0203 0.47239,0.70165 1.2095,0.70165 0.73717,0 1.22406,-0.68132 1.20943,-0.70165 v 0"
     inkscape:connector-curvature="0" />
  <path
     id="path184"
     style="fill:#284354;fill-opacity:1;fill-rule:nonzero;stroke:none;stroke-width:0.01134844"
     d="m 173.2996,101.58168 c -0.31609,0.0223 -0.6159,0.25088 -0.64295,-0.0448 -0.0312,-0.34172 0.28147,-0.56692 0.59673,-0.59984 0.24532,-0.0257 0.59567,0.23412 0.58393,0.5315 -0.0126,0.33111 -0.22154,0.0908 -0.53771,0.11309 v 0"
     inkscape:connector-curvature="0" />
  <path
     id="path186"
     style="fill:#284354;fill-opacity:1;fill-rule:nonzero;stroke:none;stroke-width:0.01134844"
     d="m 170.37923,101.58168 c 0.3161,0.0223 0.61604,0.25088 0.64308,-0.0448 0.0313,-0.34172 -0.28158,-0.56692 -0.59686,-0.59984 -0.24533,-0.0257 -0.59553,0.23412 -0.58391,0.5315 0.0126,0.33111 0.22163,0.0908 0.53769,0.11309 v 0"
     inkscape:connector-curvature="0" />
  <path
     style="fill:#254553;fill-opacity:1;stroke-width:0.05945948"
     d="M 157.4715,95.04637 V 69.190351 h 1.9828 1.9828 v 25.856019 25.85605 h -1.9828 -1.9828 z"
     id="path117"
     inkscape:connector-curvature="0" />
  <path
     style="fill:#254553;fill-opacity:1;stroke-width:0.05984301"
     d="M 218.00517,95.380995 V 69.190351 h 1.98282 1.98278 v 26.190644 26.190665 h -1.98278 -1.98282 z"
     id="path119"
     inkscape:connector-curvature="0" />
  <path
     style="fill:#254553;fill-opacity:1;stroke-width:0.06017159"
     d="M 157.48455,44.191915 V 17.619754 h 1.98282 1.9828 v 26.572161 26.572161 h -1.9828 -1.98282 z"
     id="path121"
     inkscape:connector-curvature="0" />
  <path
     style="fill:#254553;fill-opacity:1;stroke-width:0.08476073"
     d="M 218.02832,44.337713 V 17.986541 h 1.97936 1.97938 v 26.351172 26.351168 h -1.97938 -1.97936 z"
     id="path123"
     inkscape:connector-curvature="0" />
</svg>
