<?xml version="1.0" encoding="UTF-8" standalone="no"?>
<svg
   xmlns:dc="http://purl.org/dc/elements/1.1/"
   xmlns:cc="http://creativecommons.org/ns#"
   xmlns:rdf="http://www.w3.org/1999/02/22-rdf-syntax-ns#"
   xmlns:svg="http://www.w3.org/2000/svg"
   xmlns="http://www.w3.org/2000/svg"
   xmlns:sodipodi="http://sodipodi.sourceforge.net/DTD/sodipodi-0.dtd"
   xmlns:inkscape="http://www.inkscape.org/namespaces/inkscape"
   id="ICONS"
   viewBox="0 0 400 140"
   version="1.1"
   sodipodi:docname="disa-framework-bots-inline-keyboard.svg"
   inkscape:version="0.92.1 r15371">
  <metadata
     id="metadata77">
    <rdf:RDF>
      <cc:Work
         rdf:about="">
        <dc:format>image/svg+xml</dc:format>
        <dc:type
           rdf:resource="http://purl.org/dc/dcmitype/StillImage" />
      </cc:Work>
    </rdf:RDF>
  </metadata>
  <sodipodi:namedview
     pagecolor="#ffffff"
     bordercolor="#666666"
     borderopacity="1"
     objecttolerance="10"
     gridtolerance="10"
     guidetolerance="10"
     inkscape:pageopacity="0"
     inkscape:pageshadow="2"
     inkscape:window-width="1920"
     inkscape:window-height="1051"
     id="namedview75"
     showgrid="false"
     inkscape:zoom="3.39"
     inkscape:cx="292.95358"
     inkscape:cy="92.638786"
     inkscape:window-x="-9"
     inkscape:window-y="-9"
     inkscape:window-maximized="1"
     inkscape:current-layer="ICONS" />
  <defs
     id="defs4">
    <style
       id="style2">.cls-1,.cls-11,.cls-2{fill:none;}.cls-1,.cls-2{stroke:#414042;stroke-miterlimit:10;}.cls-2{stroke-dasharray:3.02 3.02;}.cls-3{fill:#80bceb;}.cls-4{fill:#aad2f2;}.cls-5{fill:#009580;}.cls-6{fill:#fff;}.cls-7{fill:#939598;}.cls-8{fill:#0050c5;}.cls-9{fill:#acacac;}.cls-10{fill:#464646;}.cls-11{stroke:#6d6e71;stroke-linecap:round;stroke-linejoin:round;stroke-width:4px;}.cls-12{fill:#0078d7;}.cls-13{fill:#558ad8;}.cls-14{fill:#4d4e4e;}.cls-15{fill:#55a5e4;}.cls-16{fill:#808285;}.cls-17{fill:#2b6942;}</style>
    <clipPath
       id="clipPath140"
       clipPathUnits="userSpaceOnUse">
      <path
         inkscape:connector-curvature="0"
         id="path138"
         d="m 4040.38,1358.71 c 0,-52.26 -42.77,-95.01 -95,-95.01 H 1042.82 c -52.257,0 -95.004,42.75 -95.004,95.01 v 4713.06 c 0,52.25 42.747,95 95.004,95 h 2902.56 c 52.23,0 95,-42.75 95,-95 z" />
    </clipPath>
    <radialGradient
       id="radialGradient146"
       spreadMethod="pad"
       gradientTransform="matrix(2049.5053,0,0,-2049.5053,2494.0909,3715.2321)"
       gradientUnits="userSpaceOnUse"
       r="1"
       cy="0"
       cx="0"
       fy="0"
       fx="0">
      <stop
         id="stop142"
         offset="0"
         style="stop-opacity:1;stop-color:#bbe9f4" />
      <stop
         id="stop144"
         offset="1"
         style="stop-opacity:1;stop-color:#98d4f4" />
    </radialGradient>
  </defs>
  <title
     id="title6">bot-framework-intelligence-smarter</title>
  <path
     class="cls-2"
     d="M157.14,85.52V92a30.09,30.09,0,0,0,30,30h3a30.09,30.09,0,0,0,30-30L220,89l1-43c0-16.5,14-35.5,30.5-35.5h3C271,10.5,283,29.5,283,46V93"
     id="path10" />
  <path
     class="cls-16"
     d="M188.29,112.24a1.57,1.57,0,0,0,1.47,1.08l3.3-.1a1.69,1.69,0,0,0,1.35-1.71l.19-4a2.34,2.34,0,0,1,1.63-2.46c.53-.48,1.3-.7,1.83-1.18a2.83,2.83,0,0,1,2.77.38l3.69,2.45a1.92,1.92,0,0,0,1.78-.17l2.4-2.68a1.76,1.76,0,0,0-.41-2l-2.89-3.17A2.06,2.06,0,0,1,205,96l-.24-.26A2.74,2.74,0,0,0,205.6,94c0-1,.6-2,2.38-2.17l3.83-.59a2,2,0,0,0,1.34-1.71L212.81,86a1.24,1.24,0,0,0-1.47-1.08l-4-.19a2.41,2.41,0,0,1-2.46-1.63c-.48-.53-.7-1.3-1.18-1.83a4.06,4.06,0,0,1,.14-3L206.22,75a1.83,1.83,0,0,0-.15-2.29l-2.7-1.9a1.54,1.54,0,0,0-2-.09l-2.93,3.16a2.58,2.58,0,0,1-2.82.63,7.83,7.83,0,0,0-2-.6l-.24-.26a2.66,2.66,0,0,1-1.93-2.11l-.56-4.33a1.57,1.57,0,0,0-1.47-1.08l-3.57.35A1.24,1.24,0,0,0,184.75,68l-.45,4.29c-.07,1.52-.6,2-1.37,2.22-.53.48-1.3.7-1.83,1.19a2.66,2.66,0,0,1-3-.14l-3.42-2.69a2,2,0,0,0-2,.41L170.19,76a2.24,2.24,0,0,0,.42,2l2.89,3.17c1,1.06,1.18,1.83.39,2.55,0,.51-.31,1.25-.36,2.27-.29.75-.58,1.49-2.36,1.67l-4.09.83A1.58,1.58,0,0,0,166,90l.34,3.56a1.61,1.61,0,0,0,1.21,1.32l4.31-.06c1.52.07,2,.6,2.22,1.37a22.63,22.63,0,0,1,1.16,2.33,2.27,2.27,0,0,1,.12,2.79l-2.69,3.43a2,2,0,0,0,.41,2l2.44,2.14a1.54,1.54,0,0,0,2,.09l2.93-3.16a2.58,2.58,0,0,1,2.82-.63l2.24.86c1,0,1.49.58,1.93,2.11l.83,4.09m9.93-23.12a8.9,8.9,0,0,1-8,9.27,8.26,8.26,0,0,1-9.26-8,8.5,8.5,0,0,1,7.76-9,8.61,8.61,0,0,1,9.52,7.78"
     id="path70" />
  <path
     class="cls-17"
     d="M249,43.58l1.18-2.29c.5-.84.89-1.07,1.5-.93l1.48-.13a1.59,1.59,0,0,1,1.56.83l1.21,2.37a1,1,0,0,0,1.22.29l1.81-.86a1.21,1.21,0,0,0,.59-1.14l-1-2.49a1.4,1.4,0,0,1,.53-1.6,14,14,0,0,1,1.08-1.19c.26-.44.64-.66,1.55-.44l2.55.76a1,1,0,0,0,.94-.58l.81-2.06a1,1,0,0,0-.39-1.06l-2.29-1.19c-1-.39-1.12-.9-1.12-1.39a10.52,10.52,0,0,0,.17-1.41c-.34-.56-.09-1,.66-1.45l2.26-1.39a1.38,1.38,0,0,0,.59-1.15l-1-2a1.22,1.22,0,0,0-1.15-.59l-2.49,1a1.64,1.64,0,0,1-1.83-.43c-.24-.36-.66-.62-.89-1-.44-.26-.66-.64-.44-1.55l.46-2.62v0a.77.77,0,0,0-.36-1L256.1,16a1,1,0,0,0-1.06.39l-1,2.47c-.28.57-1.72,1.06-1.72,1.06A4.84,4.84,0,0,0,251,20a1.6,1.6,0,0,1-1.57-.85l-1.19-2.36a1,1,0,0,0-1.22-.29l-1.93.67a1.13,1.13,0,0,0-.48,1.33l.9,2.3a2.5,2.5,0,0,1-.38,1.84c-.36.23-.62.65-1,.88a1.49,1.49,0,0,1-1.74.55l-2.44-.58-.05,0a.77.77,0,0,0-1,.41l-.81,2.06a1.24,1.24,0,0,0,.51,1.24l2.17,1c1,.4,1,3,1,3a1.27,1.27,0,0,1-.67,1.45L238.89,34a1,1,0,0,0-.59,1.15l1,2a1.18,1.18,0,0,0,1,.41l2.61-.83a1.75,1.75,0,0,1,1.71.25c.24.36.66.62.89,1a1.45,1.45,0,0,1,.5,1.73l-.57,2.43a1,1,0,0,0,.51,1.25l1.94.62a1,1,0,0,0,1.06-.39m-2-15.41,0-.12a5.32,5.32,0,0,1,7-2.88A5.25,5.25,0,0,1,257,31.83q-.07.24-.17.47A5.11,5.11,0,0,1,250.16,35a5.5,5.5,0,0,1-3.2-6.86"
     id="path72" />
  <path
     id="path122"
     style="fill:#fffffc;fill-opacity:1;fill-rule:nonzero;stroke:none;stroke-width:0.0145903"
     d="m 326.52876,54.503196 c 0,0.540127 -0.43828,0.978142 -0.97857,0.978142 v 0 c -0.54029,0 -0.97814,-0.438015 -0.97814,-0.978142 v -6.02098 c 0,-0.540716 0.43785,-0.978573 0.97814,-0.978573 v 0 c 0.54029,0 0.97857,0.437857 0.97857,0.978573 v 6.02098"
     inkscape:connector-curvature="0" />
  <path
     id="path124"
     style="fill:#fffffc;fill-opacity:1;fill-rule:nonzero;stroke:none;stroke-width:0.0145903"
     d="m 326.52876,65.321617 c 0,0.540128 -0.43828,0.978573 -0.97857,0.978573 v 0 c -0.54029,0 -0.97814,-0.438445 -0.97814,-0.978573 v -6.02098 c 0,-0.540285 0.43785,-0.978572 0.97814,-0.978572 v 0 c 0.54029,0 0.97857,0.438287 0.97857,0.978572 v 6.02098"
     inkscape:connector-curvature="0" />
  <path
     id="path126"
     style="fill:#fffffc;fill-opacity:1;fill-rule:nonzero;stroke:none;stroke-width:0.0145903"
     d="m 288.7565,126.79382 h 19.33493 v -8.52394 H 288.7565 Z"
     inkscape:connector-curvature="0" />
  <path
     id="path128"
     style="fill:#fffffc;fill-opacity:1;fill-rule:nonzero;stroke:none;stroke-width:0.0145903"
     d="m 316.69402,40.784513 c 0,1.7148 -7.28333,3.105256 -16.2679,3.105256 -8.98485,0 -16.26819,-1.390456 -16.26819,-3.105256 0,-1.714942 7.28334,-3.105249 16.26819,-3.105249 8.98457,0 16.2679,1.390307 16.2679,3.105249"
     inkscape:connector-curvature="0" />
  <path
     id="path130"
     style="fill:#244b7a;fill-opacity:1;fill-rule:nonzero;stroke:none;stroke-width:0.0145903"
     d="m 292.58938,124.01043 c -0.80831,0 -1.46443,-0.65583 -1.46443,-1.46491 0,-0.80821 0.65612,-1.46273 1.46443,-1.46273 0.80874,0 1.46428,0.65452 1.46428,1.46273 0,0.80908 -0.65554,1.46491 -1.46428,1.46491 z m 6.39668,2.19949 c -2.02484,0 -3.66392,-1.64084 -3.66392,-3.6644 0,-2.02353 1.63908,-3.66349 3.66392,-3.66349 0.20704,0 0.40998,0.0214 0.60798,0.0554 v -2.12246 l -11.02458,-9.61384 -8.35631,-59.244948 19.38089,-2.418633 V 42.0392 h -11.68231 c -0.81356,0 -1.47363,-0.658753 -1.47363,-1.473335 0,-0.813406 0.66007,-1.47216 1.47363,-1.47216 h 11.68231 v -3.498751 h -21.29922 c -3.44851,0 -6.26991,2.822781 -6.26991,6.270037 v 80.282949 c 0,3.45118 2.8214,6.26916 6.26991,6.26581 h 21.29922 V 126.156 c -0.198,0.0329 -0.40094,0.054 -0.60798,0.054"
     inkscape:connector-curvature="0" />
  <path
     id="path132"
     style="fill:#1a3551;fill-opacity:1;fill-rule:nonzero;stroke:none;stroke-width:0.0145903"
     d="m 305.38186,124.01043 c -0.80917,0 -1.46413,-0.65583 -1.46413,-1.46491 0,-0.80821 0.65496,-1.46273 1.46413,-1.46273 0.80846,0 1.46428,0.65452 1.46428,1.46273 0,0.80908 -0.65582,1.46491 -1.46428,1.46491 z m 14.2934,-88.415536 h -20.08122 v 3.498753 h 10.46518 c 0.81473,0 1.47392,0.658752 1.47392,1.472158 0,0.814583 -0.65919,1.473335 -1.47392,1.473335 h -10.46518 v 3.498311 l 19.72288,2.525592 -2.24997,66.423097 -17.47291,2.32874 v 2.12247 c 1.73348,0.29019 3.05506,1.79272 3.05506,3.60817 0,1.81549 -1.32158,3.31976 -3.05506,3.61042 v 2.25775 h 20.08122 c 3.45367,0 6.2709,-2.81981 6.2709,-6.27054 V 41.864931 c 0,-3.452068 -2.82278,-6.270037 -6.2709,-6.270037"
     inkscape:connector-curvature="0" />
  <g
     id="g134"
     transform="matrix(0.0145903,0,0,-0.0145903,262.63446,135.25267)">
    <g
       clip-path="url(#clipPath140)"
       id="g136">
      <path
         id="path148"
         style="fill:url(#radialGradient146);fill-opacity:1;fill-rule:nonzero;stroke:none"
         d="m 4040.38,1358.71 c 0,-52.26 -42.77,-95.01 -95,-95.01 H 1042.82 c -52.257,0 -95.004,42.75 -95.004,95.01 v 4713.06 c 0,52.25 42.747,95 95.004,95 h 2902.56 c 52.23,0 95,-42.75 95,-95 V 1358.71"
         inkscape:connector-curvature="0" />
    </g>
  </g>
  <path
     id="path150"
     style="fill:#fffffc;fill-opacity:1;fill-rule:nonzero;stroke:none;stroke-width:0.0145903"
     d="m 313.73131,60.173576 c 0,1.070924 -0.869,1.939934 -1.9405,1.939934 h -31.69992 c -1.07152,0 -1.94023,-0.86901 -1.94023,-1.939934 v -8.884478 c 0,-1.071513 0.86871,-1.94007 1.94023,-1.94007 h 31.69992 c 1.0715,0 1.9405,0.868557 1.9405,1.94007 v 8.884478"
     inkscape:connector-curvature="0" />
  <path
     id="path152"
     style="fill:#e46b57;fill-opacity:1;fill-rule:nonzero;stroke:none;stroke-width:0.0145903"
     d="m 280.09089,49.672203 c -0.89147,0 -1.61676,0.725285 -1.61676,1.616895 v 8.884478 c 0,0.89118 0.72529,1.616306 1.61676,1.616306 h 31.69992 c 0.89175,0 1.61688,-0.725126 1.61688,-1.616306 v -8.884478 c 0,-0.89161 -0.72513,-1.616895 -1.61688,-1.616895 z m 31.69992,12.764617 h -31.69992 c -1.2482,0 -2.26355,-1.015486 -2.26355,-2.263244 v -8.884478 c 0,-1.247759 1.01535,-2.263686 2.26355,-2.263686 h 31.69992 c 1.24834,0 2.26367,1.015927 2.26367,2.263686 v 8.884478 c 0,1.247758 -1.01533,2.263244 -2.26367,2.263244"
     inkscape:connector-curvature="0" />
  <path
     id="path154"
     style="fill:#fffffc;fill-opacity:1;fill-rule:nonzero;stroke:none;stroke-width:0.0145903"
     d="m 319.64228,77.442228 c 0,1.071944 -0.86856,1.94007 -1.94007,1.94007 h -31.70007 c -1.07165,0 -1.94022,-0.868126 -1.94022,-1.94007 v -8.8839 c 0,-1.071513 0.86857,-1.94007 1.94022,-1.94007 h 31.70007 c 1.07151,0 1.94007,0.868557 1.94007,1.94007 v 8.8839"
     inkscape:connector-curvature="0" />
  <path
     id="path156"
     style="fill:#e46b57;fill-opacity:1;fill-rule:nonzero;stroke:none;stroke-width:0.0145903"
     d="m 286.00214,66.941875 c -0.89146,0 -1.61675,0.724695 -1.61675,1.616453 v 8.8839 c 0,0.891746 0.72529,1.616895 1.61675,1.616895 h 31.70007 c 0.89162,0 1.6169,-0.725149 1.6169,-1.616895 v -8.8839 c 0,-0.891758 -0.72528,-1.616453 -1.6169,-1.616453 z m 31.70007,12.764028 h -31.70007 c -1.2482,0 -2.26354,-1.015486 -2.26354,-2.263675 v -8.8839 c 0,-1.248336 1.01534,-2.263392 2.26354,-2.263392 h 31.70007 c 1.2482,0 2.26369,1.015056 2.26369,2.263392 v 8.8839 c 0,1.248189 -1.01549,2.263675 -2.26369,2.263675"
     inkscape:connector-curvature="0" />
  <path
     id="path158"
     style="fill:#9ed5ed;fill-opacity:1;fill-rule:nonzero;stroke:none;stroke-width:0.0145903"
     d="m 282.31576,52.084858 v 1.339974 h 1.29824 v -1.339974 h 0.78642 v 3.486794 H 283.614 v -1.458891 h -1.29824 v 1.458891 h -0.79152 v -3.486794 h 0.79152"
     inkscape:connector-curvature="0" />
  <path
     id="path160"
     style="fill:#9ed5ed;fill-opacity:1;fill-rule:nonzero;stroke:none;stroke-width:0.0145903"
     d="m 286.57861,54.01939 c 0,-0.191294 -0.0828,-0.511978 -0.44501,-0.511978 -0.33106,0 -0.46542,0.300121 -0.486,0.511978 z m -0.92605,0.538078 c 0.026,0.326243 0.34667,0.48119 0.71405,0.48119 0.2689,0 0.48615,-0.03589 0.6983,-0.103154 l 0.10349,0.532541 c -0.25869,0.103607 -0.57413,0.155388 -0.91554,0.155388 -0.85879,0 -1.35033,-0.496511 -1.35033,-1.288477 0,-0.641379 0.39832,-1.350177 1.27767,-1.350177 0.8175,0 1.12783,0.636567 1.12783,1.262343 0,0.134383 -0.0155,0.253877 -0.0258,0.310334 h -1.62958"
     inkscape:connector-curvature="0" />
  <path
     id="path162"
     style="fill:#9ed5ed;fill-opacity:1;fill-rule:nonzero;stroke:none;stroke-width:0.0145903"
     d="m 287.77895,55.571652 h 0.78628 v -3.672948 h -0.78628 z"
     inkscape:connector-curvature="0" />
  <path
     id="path164"
     style="fill:#9ed5ed;fill-opacity:1;fill-rule:nonzero;stroke:none;stroke-width:0.0145903"
     d="m 289.2018,55.571652 h 0.78622 v -3.672948 h -0.78622 z"
     inkscape:connector-curvature="0" />
  <path
     id="path166"
     style="fill:#9ed5ed;fill-opacity:1;fill-rule:nonzero;stroke:none;stroke-width:0.0145903"
     d="m 291.29172,54.304044 c 0,0.434493 0.18106,0.760295 0.51737,0.760295 0.30508,0 0.50176,-0.304786 0.50176,-0.760295 0,-0.377448 -0.14489,-0.76016 -0.50176,-0.76016 -0.37774,0 -0.51737,0.387808 -0.51737,0.76016 z m 1.83122,-0.0257 c 0,0.926055 -0.65701,1.350188 -1.33457,1.350188 -0.73987,0 -1.3089,-0.486297 -1.3089,-1.303503 0,-0.817624 0.53809,-1.340257 1.35019,-1.340257 0.77606,0 1.29328,0.532982 1.29328,1.293572"
     inkscape:connector-curvature="0" />
  <path
     id="path168"
     style="fill:#9ed5ed;fill-opacity:1;fill-rule:nonzero;stroke:none;stroke-width:0.0145903"
     d="m 293.69241,54.428202 -0.11907,-2.343344 h 0.82261 l -0.11381,2.343344 z m -0.17057,0.729519 c 0,-0.27401 0.19129,-0.470976 0.46558,-0.470976 0.27416,0 0.45521,0.196966 0.46032,0.470976 0,0.268756 -0.18106,0.470818 -0.46032,0.470818 -0.27955,0 -0.46558,-0.202062 -0.46558,-0.470818"
     inkscape:connector-curvature="0" />
  <path
     id="path170"
     style="fill:#9ed5ed;fill-opacity:1;fill-rule:nonzero;stroke:none;stroke-width:0.0145903"
     d="m 310.24583,76.156661 c 0,-0.279105 0.19144,-0.48119 0.46573,-0.48119 0.274,0 0.46032,0.196537 0.46032,0.48119 0,0.274452 -0.18632,0.476095 -0.46542,0.476095 -0.26919,0 -0.46063,-0.201643 -0.46063,-0.476095"
     inkscape:connector-curvature="0" />
  <path
     id="path172"
     style="fill:#9ed5ed;fill-opacity:1;fill-rule:nonzero;stroke:none;stroke-width:0.0145903"
     d="m 312.63587,76.156661 c 0,-0.279105 0.19187,-0.48119 0.46572,-0.48119 0.27444,0 0.46019,0.196537 0.46019,0.48119 0,0.274452 -0.18575,0.476095 -0.46529,0.476095 -0.26875,0 -0.46062,-0.201643 -0.46062,-0.476095"
     inkscape:connector-curvature="0" />
  <path
     id="path174"
     style="fill:#9ed5ed;fill-opacity:1;fill-rule:nonzero;stroke:none;stroke-width:0.0145903"
     d="m 315.02621,76.156661 c 0,-0.279105 0.19141,-0.48119 0.46585,-0.48119 0.27387,0 0.46019,0.196537 0.46019,0.48119 0,0.274452 -0.18632,0.476095 -0.46572,0.476095 -0.26891,0 -0.46032,-0.201643 -0.46032,-0.476095"
     inkscape:connector-curvature="0" />
  <path
     id="path176"
     style="fill:#dde1e3;fill-opacity:1;fill-rule:nonzero;stroke:none;stroke-width:0.00656275"
     d="m 276.46338,86.457722 c 0,0.154267 0.6237,0.280462 1.38613,0.280462 h 42.34925 c 0.76205,0 1.38607,-0.126195 1.38607,-0.280462 v -5.992798 h -45.12145 v 5.992798"
     inkscape:connector-curvature="0" />
  <path
     id="path178"
     style="fill:#adadac;fill-opacity:1;fill-rule:nonzero;stroke:none;stroke-width:0.0145903"
     d="m 276.4244,117.00475 h 45.12052 v -7.21057 H 276.4244 Z"
     inkscape:connector-curvature="0" />
  <path
     id="path180"
     style="fill:#ffffff;fill-opacity:1;fill-rule:nonzero;stroke:none;stroke-width:0.0145903"
     d="m 277.49985,116.02823 h 37.79604 v -5.25809 h -37.79604 z"
     inkscape:connector-curvature="0" />
  <path
     id="path182"
     style="fill:#ffffff;fill-opacity:1;fill-rule:nonzero;stroke:none;stroke-width:0.0145903"
     d="m 317.31563,113.27913 h 1.66387 v -1.35574 c -0.0155,-0.0689 -0.20499,-0.86725 -0.83223,-0.86725 -0.62621,0 -0.81589,0.76876 -0.83164,0.83734 z m 1.76878,0.10576 h -1.87412 l 0.001,-1.50733 c 10e-4,-0.009 0.19726,-0.92678 0.93567,-0.92678 0.73886,0 0.93451,0.94735 0.93671,0.95684 l 3.7e-4,0.0102 v 1.46706"
     inkscape:connector-curvature="0" />
  <path
     id="path184"
     style="fill:#ffffff;fill-opacity:1;fill-rule:nonzero;stroke:none;stroke-width:0.0145903"
     d="m 317.31898,113.53898 c 0.0188,0.2244 0.13613,1.04714 0.82829,1.04714 0.68371,0 0.80786,-0.82537 0.82844,-1.04714 z m 0.82829,1.15205 c -0.8865,0 -0.93655,-1.19058 -0.93698,-1.20298 l -0.002,-0.054 h 1.8785 l -0.002,0.054 c -3.8e-4,0.0125 -0.05,1.20298 -0.93714,1.20298"
     inkscape:connector-curvature="0" />
  <path
     id="path186"
     style="fill:#ffffff;fill-opacity:1;fill-rule:nonzero;stroke:none;stroke-width:0.0145903"
     d="m 318.51889,115.50181 h -0.30523 v -0.49316 l 0.038,-0.002 c 0.3048,-0.0157 0.55619,-0.12415 0.74659,-0.32229 0.42517,-0.44222 0.40153,-1.16867 0.40022,-1.19903 -10e-4,-0.0228 -0.0192,-0.0402 -0.0428,-0.0402 -0.0226,10e-4 -0.0402,0.0206 -0.0399,0.0433 3.8e-4,0.007 0.0243,0.72135 -0.37745,1.13921 -0.19099,0.19857 -0.44924,0.29955 -0.76847,0.29955 -0.31851,0 -0.58055,-0.10101 -0.77826,-0.29955 -0.41174,-0.41524 -0.41348,-1.13323 -0.41348,-1.14051 3.8e-4,-0.0227 -0.0183,-0.0414 -0.0412,-0.0414 -0.0223,0 -0.0416,0.0188 -0.0416,0.0405 -3.8e-4,0.0309 -7e-4,0.75695 0.43713,1.19874 0.18661,0.18778 0.42589,0.29531 0.71142,0.31923 l 0.0369,0.002 v 0.4949 h -0.3048 v 0.16473 h -0.49242 v 0.0844 h 1.72778 v -0.0844 h -0.49271 v -0.16473"
     inkscape:connector-curvature="0" />
  <path
     id="path188"
     style="fill:#404449;fill-opacity:1;fill-rule:nonzero;stroke:none;stroke-width:0.03188954"
     d="m 277.36776,85.796208 h 13.00328 v -4.722284 h -13.00328 z"
     inkscape:connector-curvature="0" />
  <text
     xml:space="preserve"
     style="font-style:normal;font-weight:normal;font-size:5.33333333px;line-height:1.25;font-family:sans-serif;letter-spacing:0px;word-spacing:0px;fill:#000000;fill-opacity:1;stroke:none;"
     x="281.27832"
     y="101.82875"
     id="text419"><tspan
       sodipodi:role="line"
       id="tspan417"
       x="281.27832"
       y="111.56027" /></text>
  <text
     xml:space="preserve"
     style="font-style:normal;font-weight:normal;font-size:2.66474986px;line-height:1.25;font-family:sans-serif;letter-spacing:0px;word-spacing:0px;fill:#000000;fill-opacity:1;stroke:none;stroke-width:0.24982029"
     x="278.05923"
     y="84.419197"
     id="text423"><tspan
       sodipodi:role="line"
       id="tspan421"
       x="278.05923"
       y="84.419197"
       style="fill:#ffffff;stroke-width:0.24982029">Option 1</tspan></text>
  <path
     id="path250"
     style="fill:#f1bc3c;fill-opacity:1;fill-rule:nonzero;stroke:none;stroke-width:0.04006388"
     d="m 113.85601,110.1125 h 3.59824 v -8.7768 h -3.59824 z"
     inkscape:connector-curvature="0" />
  <path
     id="path252"
     style="fill:#f1bc3c;fill-opacity:1;fill-rule:nonzero;stroke:none;stroke-width:0.04006388"
     d="m 129.24695,110.1125 h 3.59823 v -8.7768 h -3.59823 z"
     inkscape:connector-curvature="0" />
  <path
     id="path254"
     style="fill:#397d6d;fill-opacity:1;fill-rule:nonzero;stroke:none;stroke-width:0.04006388"
     d="m 140.74449,98.21473 c 0,2.04325 -1.65665,3.70069 -3.70071,3.70069 h -26.44856 c -2.04407,0 -3.70071,-1.65744 -3.70071,-3.70069 V 78.1259 c 0,-2.043661 1.65664,-3.700701 3.70071,-3.700701 h 26.44856 c 2.04406,0 3.70071,1.65704 3.70071,3.700701 v 20.08883"
     inkscape:connector-curvature="0" />
  <path
     id="path256"
     style="fill:#f27142;fill-opacity:1;fill-rule:nonzero;stroke:none;stroke-width:0.04006388"
     d="m 145.43155,37.89215 c 0,-11.841273 -9.59889,-21.440579 -21.44017,-21.440579 -11.8413,0 -21.44019,9.599306 -21.44019,21.440579 0,7.137783 3.49075,13.457056 8.8549,17.354071 5.68146,5.853733 5.35296,13.465867 5.35296,13.465867 l 5.62136,1.201916 0.0894,0.630608 1.4299,-0.305689 1.42946,0.305689 0.0898,-0.630608 5.62137,-1.201916 c 0,0 -0.21515,-7.540823 5.41983,-13.383337 5.42986,-3.889801 8.97151,-10.247138 8.97151,-17.436601"
     inkscape:connector-curvature="0" />
  <path
     id="path354"
     style="fill:#38806e;fill-opacity:1;fill-rule:nonzero;stroke:none;stroke-width:0.04006388"
     d="m 111.37366,122.17252 h 7.4486 v -13.47913 h -7.4486 z"
     inkscape:connector-curvature="0" />
  <path
     id="path356"
     style="fill:#7ecaaa;fill-opacity:1;fill-rule:nonzero;stroke:none;stroke-width:0.04006388"
     d="m 111.37366,118.07879 h 7.4486 v -2.3309 h -7.4486 z"
     inkscape:connector-curvature="0" />
  <path
     id="path358"
     style="fill:#7ecaaa;fill-opacity:1;fill-rule:nonzero;stroke:none;stroke-width:0.04006388"
     d="m 111.37366,121.0391 h 7.4486 v -2.33056 h -7.4486 z"
     inkscape:connector-curvature="0" />
  <path
     id="path360"
     style="fill:#e93442;fill-opacity:1;fill-rule:nonzero;stroke:none;stroke-width:0.04006388"
     d="m 120.69652,127.79669 h 8.4e-4 c 0,-2.28805 -0.37861,-3.64181 -0.8105,-4.44829 -0.25321,-0.58333 -0.58173,-1.03165 -1.01402,-1.17588 h -7.49916 c -0.43228,0.14423 -0.90343,0.5693 -1.15664,1.15264 -0.43228,0.80688 -0.66786,2.18348 -0.66786,4.47153 h 8.4e-4 c 0,0.002 -8.4e-4,0.0152 -8.4e-4,0.0152 l 5.57409,-0.008 5.57409,0.008 c 0,0 -8.4e-4,-0.0124 -8.4e-4,-0.0152"
     inkscape:connector-curvature="0" />
  <path
     id="path362"
     style="fill:#38806e;fill-opacity:1;fill-rule:nonzero;stroke:none;stroke-width:0.04006388"
     d="m 127.87877,122.17252 h 7.44859 v -13.47913 h -7.44859 z"
     inkscape:connector-curvature="0" />
  <path
     id="path364"
     style="fill:#7ecaaa;fill-opacity:1;fill-rule:nonzero;stroke:none;stroke-width:0.04006388"
     d="m 127.87877,118.07879 h 7.44859 v -2.3309 h -7.44859 z"
     inkscape:connector-curvature="0" />
  <path
     id="path366"
     style="fill:#7ecaaa;fill-opacity:1;fill-rule:nonzero;stroke:none;stroke-width:0.04006388"
     d="m 127.87877,121.0391 h 7.44859 v -2.33056 h -7.44859 z"
     inkscape:connector-curvature="0" />
  <path
     id="path368"
     style="fill:#e93442;fill-opacity:1;fill-rule:nonzero;stroke:none;stroke-width:0.04006388"
     d="m 126.00498,127.79669 h -8.4e-4 c 0,-2.28805 0.37779,-3.64181 0.81008,-4.44829 0.25321,-0.58333 0.58174,-1.03165 1.01403,-1.17588 h 7.49916 c 0.43229,0.14423 0.90344,0.5693 1.15664,1.15264 0.43188,0.80688 0.66786,2.18348 0.66786,4.47153 h -8.4e-4 c 0,0.002 8.4e-4,0.0152 8.4e-4,0.0152 l -5.57408,-0.008 -5.57369,0.008 c 0,0 8.4e-4,-0.0124 8.4e-4,-0.0152"
     inkscape:connector-curvature="0" />
  <path
     id="path370"
     style="fill:none;stroke:#a75739;stroke-width:0.80127752;stroke-linecap:butt;stroke-linejoin:miter;stroke-miterlimit:10;stroke-dasharray:none;stroke-opacity:1"
     d="M 120.54748,67.818264 113.4706,38.630528 c 0,0 2.58972,-0.616983 5.18025,1.726752 2.59053,2.343737 4.93347,11.594888 2.46673,11.594888 -2.46673,0 -4.19308,-15.295587 2.46754,-15.295587 6.66102,0 6.04443,15.295587 2.59013,15.295587 -3.45391,0 0.61778,-14.308009 6.66063,-14.061619 l -5.42747,29.849991"
     inkscape:connector-curvature="0" />
  <path
     id="path372"
     style="fill:#ac512e;fill-opacity:1;fill-rule:nonzero;stroke:none;stroke-width:0.04006388"
     d="m 106.81237,38.630528 c 0,-2.782435 2.25559,-5.038429 5.03845,-5.038429 2.78242,0 5.03802,2.255994 5.03802,5.038429 0,2.782437 -2.2556,5.038438 -5.03802,5.038438 -2.78286,0 -5.03845,-2.256001 -5.03845,-5.038438"
     inkscape:connector-curvature="0" />
  <path
     id="path374"
     style="fill:#7dcaa5;fill-opacity:1;fill-rule:nonzero;stroke:none;stroke-width:0.04006388"
     d="m 108.10845,38.630528 c 0,-2.066893 1.67507,-3.743163 3.74237,-3.743163 2.0669,0 3.74197,1.67627 3.74197,3.743163 0,2.067296 -1.67507,3.742369 -3.74197,3.742369 -2.0673,0 -3.74237,-1.675073 -3.74237,-3.742369"
     inkscape:connector-curvature="0" />
  <path
     id="path376"
     style="fill:#4b231c;fill-opacity:1;fill-rule:nonzero;stroke:none;stroke-width:0.04006388"
     d="m 110.23103,38.630528 c 0,-0.894623 0.72555,-1.61938 1.61979,-1.61938 0.89383,0 1.61978,0.724757 1.61978,1.61938 0,0.89423 -0.72595,1.618987 -1.61978,1.618987 -0.89424,0 -1.61979,-0.724757 -1.61979,-1.618987"
     inkscape:connector-curvature="0" />
  <path
     id="path378"
     style="fill:#fffdfc;fill-opacity:1;fill-rule:nonzero;stroke:none;stroke-width:0.04006388"
     d="m 111.83118,37.119726 c 0,-0.556493 0.45112,-1.007616 1.00721,-1.007616 0.55648,0 1.00761,0.451123 1.00761,1.007616 0,0.556483 -0.45113,1.007599 -1.00761,1.007599 -0.55609,0 -1.00721,-0.451116 -1.00721,-1.007599"
     inkscape:connector-curvature="0" />
  <path
     id="path380"
     style="fill:#eb414b;fill-opacity:1;fill-rule:nonzero;stroke:none;stroke-width:0.04006388"
     d="m 128.45929,34.579276 c 0,-3.49798 2.83613,-6.333703 6.33411,-6.333703 3.49837,0 6.33408,2.835723 6.33408,6.333703 0,3.497969 -2.83571,6.333691 -6.33408,6.333691 -3.49798,0 -6.33411,-2.835722 -6.33411,-6.333691"
     inkscape:connector-curvature="0" />
  <path
     id="path382"
     style="fill:#d9c83f;fill-opacity:1;fill-rule:nonzero;stroke:none;stroke-width:0.04006388"
     d="m 130.18645,34.651385 c 0,-2.643815 2.14342,-4.786432 4.78683,-4.786432 2.64381,0 4.78683,2.142617 4.78683,4.786432 0,2.64382 -2.14302,4.786836 -4.78683,4.786836 -2.64341,0 -4.78683,-2.143016 -4.78683,-4.786836"
     inkscape:connector-curvature="0" />
  <path
     id="path384"
     style="fill:#381d1b;fill-opacity:1;fill-rule:nonzero;stroke:none;stroke-width:0.04006388"
     d="m 133.17441,34.507557 c 0,-1.034045 0.83774,-1.871385 1.87138,-1.871385 1.03325,0 1.87098,0.83734 1.87098,1.871385 0,1.03325 -0.83773,1.870984 -1.87098,1.870984 -1.03364,0 -1.87138,-0.837734 -1.87138,-1.870984"
     inkscape:connector-curvature="0" />
  <path
     id="path386"
     style="fill:#fffdfc;fill-opacity:1;fill-rule:nonzero;stroke:none;stroke-width:0.04006388"
     d="m 135.51335,34.147386 c 0,-0.695513 0.5645,-1.25921 1.25999,-1.25921 0.69512,0 1.25922,0.563697 1.25922,1.25921 0,0.695505 -0.5641,1.2592 -1.25922,1.2592 -0.69549,0 -1.25999,-0.563695 -1.25999,-1.2592"
     inkscape:connector-curvature="0" />
  <path
     id="path416"
     style="fill:#fdf1ed;fill-opacity:1;fill-rule:nonzero;stroke:none;stroke-width:0.04006388"
     d="m 140.66796,41.899741 c 0,0 1.02563,-6.046438 -4.2648,-13.495914 -5.29044,-7.449877 -10.63536,-8.043624 -12.4166,-8.421429 0,0 4.85814,-1.511206 10.74232,1.889412 5.88499,3.401019 10.4735,12.524372 5.93908,20.027931"
     inkscape:connector-curvature="0" />
  <path
     id="path418"
     style="fill:#3b221a;fill-opacity:1;fill-rule:nonzero;stroke:none;stroke-width:0.04006388"
     d="m 134.22249,70.329068 c 0,1.577713 -1.27926,2.856954 -2.85697,2.856954 h -15.03757 c -1.57772,0 -2.85695,-1.279241 -2.85695,-2.856954 v 0 c 0,-1.577716 1.27923,-2.856555 2.85695,-2.856555 h 15.03757 c 1.57771,0 2.85697,1.278839 2.85697,2.856555 v 0"
     inkscape:connector-curvature="0" />
  <path
     id="path436"
     style="fill:#3b221a;fill-opacity:1;fill-rule:nonzero;stroke:none;stroke-width:0.04006388"
     d="m 151.91029,94.984378 c 0,-2.052475 1.66945,-3.721937 3.72153,-3.721937 2.05246,0 3.72193,1.669462 3.72193,3.721937 0,2.052872 -1.66947,3.721932 -3.72193,3.721932 -2.05208,0 -3.72153,-1.66906 -3.72153,-3.721932 z m 3.72153,-14.615304 c 2.05246,0 3.72193,1.669062 3.72193,3.721936 0,2.052469 -1.66947,3.721933 -3.72193,3.721933 -2.05208,0 -3.72153,-1.669464 -3.72153,-3.721933 0,-2.052874 1.66945,-3.721936 3.72153,-3.721936 z m 6.62655,14.615304 c 0,-2.255999 -1.1346,-4.249578 -2.86135,-5.446686 1.72675,-1.19711 2.86135,-3.190689 2.86135,-5.446682 0,-3.653827 -2.97234,-6.626967 -6.62655,-6.626967 -3.65343,0 -6.62696,2.97314 -6.62696,6.626967 0,0.155846 0.0128,0.308489 0.0236,0.462334 v 3.622578 h -6.8317 v 2.905031 h 6.8317 v 3.441084 c -0.0111,0.153846 -0.0236,0.30649 -0.0236,0.462341 0,3.653822 2.97353,6.627362 6.62696,6.627362 3.65421,0 6.62655,-2.97354 6.62655,-6.627362"
     inkscape:connector-curvature="0" />
  <path
     id="path512"
     style="fill:none;stroke:#367966;stroke-width:0.80127752;stroke-linecap:butt;stroke-linejoin:miter;stroke-miterlimit:10;stroke-dasharray:none;stroke-opacity:1"
     d="m 148.50085,24.569317 -6.35172,3.70029"
     inkscape:connector-curvature="0" />
  <path
     id="path514"
     style="fill:#45231b;fill-opacity:1;fill-rule:nonzero;stroke:none;stroke-width:0.04006388"
     d="m 151.06893,23.990794 c -1.69751,-5.500769 -1.98475,-10.370138 -0.74437,-11.430227 0.33974,-0.09455 0.69068,-0.129404 1.05007,-0.09575 1.61377,0.708732 3.87698,4.663036 5.44749,9.749139 1.61097,5.217518 1.9523,9.869338 0.92425,11.238321 -0.21754,0.167469 -0.4531,0.297677 -0.70271,0.396629 -1.61378,0.07448 -4.22434,-4.18988 -5.97473,-9.858111"
     inkscape:connector-curvature="0" />
  <path
     id="path516"
     style="fill:#f1733f;fill-opacity:1;fill-rule:nonzero;stroke:none;stroke-width:0.04006388"
     d="m 151.33537,30.002373 c 2.65342,-0.451918 4.40982,-3.135403 3.92304,-5.994356 -0.48637,-2.858561 -3.03163,-4.809672 -5.68465,-4.357744"
     inkscape:connector-curvature="0" />
  <path
     id="path518"
     style="fill:#eb464c;fill-opacity:1;fill-rule:nonzero;stroke:none;stroke-width:0.04006388"
     d="m 150.24843,12.575788 c 0.0255,-0.0076 0.0506,-0.0084 0.0762,-0.01524 -1.24039,1.060091 -0.95311,5.929458 0.74438,11.430217 1.7504,5.66824 4.36095,9.932637 5.97473,9.85812 -0.0677,0.02648 -0.1306,0.06367 -0.19992,0.08493 -2.91264,0.89903 -6.74795,-3.152628 -8.57086,-9.050828 -1.82091,-5.897802 -0.9363,-11.408591 1.97555,-12.307226"
     inkscape:connector-curvature="0" />
  <path
     id="path588"
     style="fill:#ecbb45;fill-opacity:1;fill-rule:nonzero;stroke:none;stroke-width:0.04006388"
     d="m 110.93936,59.309496 c -1.01321,3.865766 -1.10016,8.577278 0.25121,12.351695 4.66622,-1.623389 9.11093,-3.553266 12.58806,-5.94027 -3.89742,-2.311688 -7.75757,-4.805664 -12.83927,-6.411425"
     inkscape:connector-curvature="0" />
  <path
     id="path590"
     style="fill:#ecbb45;fill-opacity:1;fill-rule:nonzero;stroke:none;stroke-width:0.04006388"
     d="m 136.01333,72.067439 c 1.01242,-3.866565 1.09855,-8.577677 -0.2528,-12.352094 -4.66464,1.623389 -9.10933,3.553666 -12.58687,5.940673 3.89823,2.312083 7.75757,4.805261 12.83967,6.411421"
     inkscape:connector-curvature="0" />
  <path
     id="path592"
     style="fill:#ecbb45;fill-opacity:1;fill-rule:nonzero;stroke:none;stroke-width:0.04006388"
     d="m 126.09793,67.594709 c 0,0.380604 -0.30689,0.687093 -0.68589,0.687093 h -3.87178 c -0.37861,0 -0.6867,-0.306489 -0.6867,-0.687093 v -3.869371 c 0,-0.379806 0.30809,-0.688296 0.6867,-0.688296 h 3.87178 c 0.379,0 0.68589,0.30849 0.68589,0.688296 v 3.869371"
     inkscape:connector-curvature="0" />
  <path
     id="path594"
     style="fill:#e5bf3d;fill-opacity:1;fill-rule:nonzero;stroke:none;stroke-width:0.04006388"
     d="m 115.27989,94.903046 h 16.45294 V 82.731281 h -16.45294 z"
     inkscape:connector-curvature="0" />
  <path
     id="path596"
     style="fill:none;stroke:#3b221a;stroke-width:0.40063876;stroke-linecap:butt;stroke-linejoin:miter;stroke-miterlimit:10;stroke-dasharray:none;stroke-opacity:1"
     d="m 115.27989,94.903046 h 16.45294 V 82.731281 h -16.45294 z"
     inkscape:connector-curvature="0" />
  <path
     id="path598"
     style="fill:#e5bf3d;fill-opacity:1;fill-rule:nonzero;stroke:none;stroke-width:0.04006388"
     d="m 115.27989,90.846978 h 16.45303"
     inkscape:connector-curvature="0" />
  <path
     id="path600"
     style="fill:none;stroke:#3b221a;stroke-width:0.40063876;stroke-linecap:butt;stroke-linejoin:miter;stroke-miterlimit:10;stroke-dasharray:none;stroke-opacity:1"
     d="m 115.27989,90.846978 h 16.45303"
     inkscape:connector-curvature="0" />
  <path
     id="path602"
     style="fill:#e5bf3d;fill-opacity:1;fill-rule:nonzero;stroke:none;stroke-width:0.04006388"
     d="m 115.27989,86.786905 h 16.45303"
     inkscape:connector-curvature="0" />
  <path
     id="path604"
     style="fill:none;stroke:#3b221a;stroke-width:0.40063876;stroke-linecap:butt;stroke-linejoin:miter;stroke-miterlimit:10;stroke-dasharray:none;stroke-opacity:1"
     d="m 115.27989,86.786905 h 16.45303"
     inkscape:connector-curvature="0" />
  <path
     id="path606"
     style="fill:#e5bf3d;fill-opacity:1;fill-rule:nonzero;stroke:none;stroke-width:0.04006388"
     d="M 127.61955,82.731239 V 94.903046"
     inkscape:connector-curvature="0" />
  <path
     id="path608"
     style="fill:none;stroke:#3b221a;stroke-width:0.40063876;stroke-linecap:butt;stroke-linejoin:miter;stroke-miterlimit:10;stroke-dasharray:none;stroke-opacity:1"
     d="M 127.61955,82.731239 V 94.903046"
     inkscape:connector-curvature="0" />
  <path
     id="path610"
     style="fill:#e5bf3d;fill-opacity:1;fill-rule:nonzero;stroke:none;stroke-width:0.04006388"
     d="M 123.50619,82.731239 V 94.903046"
     inkscape:connector-curvature="0" />
  <path
     id="path612"
     style="fill:none;stroke:#3b221a;stroke-width:0.40063876;stroke-linecap:butt;stroke-linejoin:miter;stroke-miterlimit:10;stroke-dasharray:none;stroke-opacity:1"
     d="M 123.50619,82.731239 V 94.903046"
     inkscape:connector-curvature="0" />
  <path
     id="path614"
     style="fill:#e5bf3d;fill-opacity:1;fill-rule:nonzero;stroke:none;stroke-width:0.04006388"
     d="M 119.39324,82.731239 V 94.903046"
     inkscape:connector-curvature="0" />
  <path
     id="path616"
     style="fill:none;stroke:#3b221a;stroke-width:0.40063876;stroke-linecap:butt;stroke-linejoin:miter;stroke-miterlimit:10;stroke-dasharray:none;stroke-opacity:1"
     d="M 119.39324,82.731239 V 94.903046"
     inkscape:connector-curvature="0" />
  <path
     id="path188-4"
     style="fill:#404449;fill-opacity:1;fill-rule:nonzero;stroke:none;stroke-width:0.03142492"
     d="m 292.24019,85.796208 h 12.62714 v -4.722284 h -12.62714 z"
     inkscape:connector-curvature="0" />
  <text
     xml:space="preserve"
     style="font-style:normal;font-weight:normal;font-size:2.66474986px;line-height:1.25;font-family:sans-serif;letter-spacing:0px;word-spacing:0px;fill:#000000;fill-opacity:1;stroke:none;stroke-width:0.24982029"
     x="292.93106"
     y="84.419197"
     id="text423-7"><tspan
       sodipodi:role="line"
       id="tspan421-0"
       x="292.93106"
       y="84.419197"
       style="fill:#ffffff;stroke-width:0.24982029">Option 2</tspan></text>
  <path
     id="path188-0"
     style="fill:#404449;fill-opacity:1;fill-rule:nonzero;stroke:none;stroke-width:0.03178987"
     d="m 306.78287,85.834317 h 12.92212 v -4.722284 h -12.92212 z"
     inkscape:connector-curvature="0" />
  <text
     xml:space="preserve"
     style="font-style:normal;font-weight:normal;font-size:2.66474986px;line-height:1.25;font-family:sans-serif;letter-spacing:0px;word-spacing:0px;fill:#000000;fill-opacity:1;stroke:none;stroke-width:0.24982029"
     x="307.47375"
     y="84.457306"
     id="text423-0"><tspan
       sodipodi:role="line"
       id="tspan421-3"
       x="307.47375"
       y="84.457306"
       style="fill:#ffffff;stroke-width:0.24982029">Option 3</tspan></text>
</svg>
