<?xml version="1.0" encoding="UTF-8" standalone="no"?>
<svg
   xmlns:dc="http://purl.org/dc/elements/1.1/"
   xmlns:cc="http://creativecommons.org/ns#"
   xmlns:rdf="http://www.w3.org/1999/02/22-rdf-syntax-ns#"
   xmlns:svg="http://www.w3.org/2000/svg"
   xmlns="http://www.w3.org/2000/svg"
   xmlns:sodipodi="http://sodipodi.sourceforge.net/DTD/sodipodi-0.dtd"
   xmlns:inkscape="http://www.inkscape.org/namespaces/inkscape"
   id="ICONS"
   viewBox="0 0 400 140"
   version="1.1"
   sodipodi:docname="disa-framework-messaging-sign-in.svg"
   inkscape:version="0.92.1 r15371">
  <metadata
     id="metadata161">
    <rdf:RDF>
      <cc:Work
         rdf:about="">
        <dc:format>image/svg+xml</dc:format>
        <dc:type
           rdf:resource="http://purl.org/dc/dcmitype/StillImage" />
      </cc:Work>
    </rdf:RDF>
  </metadata>
  <sodipodi:namedview
     pagecolor="#ffffff"
     bordercolor="#666666"
     borderopacity="1"
     objecttolerance="10"
     gridtolerance="10"
     guidetolerance="10"
     inkscape:pageopacity="0"
     inkscape:pageshadow="2"
     inkscape:window-width="1903"
     inkscape:window-height="1096"
     id="namedview159"
     showgrid="false"
     inkscape:zoom="2.397092"
     inkscape:cx="330.99396"
     inkscape:cy="97.780982"
     inkscape:window-x="2489"
     inkscape:window-y="-9"
     inkscape:window-maximized="1"
     inkscape:current-layer="ICONS" />
  <defs
     id="defs4">
    <style
       id="style2">.cls-1,.cls-12,.cls-13,.cls-16,.cls-17,.cls-6{fill:none;}.cls-1{stroke:#6d6e71;stroke-width:1.5px;}.cls-1,.cls-12{stroke-linecap:round;}.cls-1,.cls-13,.cls-16,.cls-6{stroke-miterlimit:10;}.cls-2{fill:#6d6e71;}.cls-3{fill:#fff;}.cls-4{fill:#0b9e0b;}.cls-5{fill:#05930c;}.cls-6{stroke:#58595b;}.cls-7{fill:#55a5e4;}.cls-8{fill:#2b6942;}.cls-9{fill:#939598;}.cls-10{fill:#bad80a;}.cls-11{fill:#414042;}.cls-12{stroke:#05930c;stroke-linejoin:round;stroke-width:4px;}.cls-13{stroke:#757575;}.cls-14{fill:#757575;}.cls-15{fill:#5d5f5e;}.cls-16{stroke:#334d63;stroke-width:2px;}.cls-18{fill:#58595b;}</style>
  </defs>
  <title
     id="title6">BotFramework-Developing-c-sharp</title>
  <line
     class="cls-1"
     x1="183"
     y1="72"
     x2="230.97"
     y2="72"
     id="line8" />
  <path
     class="cls-2"
     d="M222.25,78.12a.64.64,0,0,1,.2-.88L230.68,72l-8.23-5.24a.64.64,0,0,1,.68-1.08l9.07,5.78a.64.64,0,0,1,0,1.08l-9.07,5.78a.64.64,0,0,1-.88-.2Z"
     id="path10" />
  <path
     class="cls-3"
     d="M248,82.55a1.47,1.47,0,0,1-1.48-1.48,1.46,1.46,0,0,1,.42-1.06,1.42,1.42,0,0,1,1.05-.43,1.45,1.45,0,0,1,.58.12A1.55,1.55,0,0,1,249,80a1.48,1.48,0,0,1,.45,1.07,1.37,1.37,0,0,1-.12.58,1.59,1.59,0,0,1-.32.47,1.48,1.48,0,0,1-.47.32A1.45,1.45,0,0,1,248,82.55Z"
     id="path12" />
  <circle
     class="cls-4"
     cx="280"
     cy="71"
     r="40"
     id="circle14" />
  <path
     class="cls-5"
     d="M252.27,42.19a40,40,0,1,0,56.54,56.54Z"
     id="path16" />
  <path
     class="cls-3"
     d="M277.25,85.6a20.65,20.65,0,0,1-8.88,1.83,16.17,16.17,0,0,1-6.47-1.25,14.4,14.4,0,0,1-5-3.48,15.53,15.53,0,0,1-3.16-5.3,19.53,19.53,0,0,1-1.11-6.7,20.88,20.88,0,0,1,1.18-7.11,16.9,16.9,0,0,1,3.39-5.72,15.65,15.65,0,0,1,5.33-3.81,17.19,17.19,0,0,1,7-1.38A21,21,0,0,1,277.25,54v3.33a17,17,0,0,0-7.71-1.8,14.12,14.12,0,0,0-5.79,1.13,12,12,0,0,0-4.27,3.13,13.87,13.87,0,0,0-2.65,4.73,18.69,18.69,0,0,0-.91,6,17.87,17.87,0,0,0,.82,5.47,13.17,13.17,0,0,0,2.43,4.49,11.51,11.51,0,0,0,4,3,12.91,12.91,0,0,0,5.55,1.13,17.31,17.31,0,0,0,8.53-2Z"
     id="path18" />
  <path
     class="cls-3"
     d="M306.74,64.91H300.5l-1.64,7.57h6.63L305,74.63h-6.54l-2,9.33H294l2-9.33h-6.07l-2,9.33h-2.41l2-9.33h-6.37l.45-2.16H288l1.59-7.57H282.9l.47-2.16H290l2-9.52h2.41l-2,9.52h6.09l2-9.52H303l-2,9.52h6.3Zm-14.72,0-1.66,7.57h6.12l1.64-7.57Z"
     id="path20" />
  <path
     class="cls-7"
     d="M346.8,83.29l1.9-3.67c.82-1.35,1.44-1.71,2.41-1.49l2.37-.21a2.5,2.5,0,0,1,2.5,1.37l2,3.81a1.52,1.52,0,0,0,2,.46l2.91-1.37a2,2,0,0,0,1-1.84l-1.64-4a2.25,2.25,0,0,1,.87-2.64,22.5,22.5,0,0,1,1.74-1.91c.43-.7,1-1.05,2.5-.7l4.1,1.25a1.6,1.6,0,0,0,1.51-.94l1.25-3.31a1.56,1.56,0,0,0-.64-1.7l-3.69-1.9c-1.65-.65-1.73-1.46-1.79-2.22A17.13,17.13,0,0,0,368.3,60c-.56-.91-.19-1.59,1.06-2.34L373,55.44a2.23,2.23,0,0,0,.95-1.84l-1.62-3.21a2,2,0,0,0-1.79-1l-4,1.64a2.64,2.64,0,0,1-2.94-.69c-.38-.6-1.05-1-1.43-1.62-.7-.43-1.05-1-.7-2.5L362.2,42l0-.06a1.25,1.25,0,0,0-.65-1.64l-3.31-1.25a1.56,1.56,0,0,0-1.7.63l-1.75,4a2.65,2.65,0,0,1-2.45,1.46l-.3.19a7.77,7.77,0,0,0-2.07,0,2.56,2.56,0,0,1-2.5-1.38l-1.94-3.81a1.53,1.53,0,0,0-2-.46l-3.1,1.08a1.81,1.81,0,0,0-.76,2.15l1.45,3.75a4,4,0,0,1-.7,2.94c-.6.37-1,1.05-1.62,1.42a2.4,2.4,0,0,1-2.79.89l-3.9-1-.06,0a1.25,1.25,0,0,0-1.64.65l-1.25,3.31a2,2,0,0,0,.81,2l3.5,1.6c1.68.65,1.91,1.75,1.68,2.73a11.3,11.3,0,0,0,.05,2.19,2.05,2.05,0,0,1-1.08,2.33l-3.63,2.24c-.95.59-1.14,1.54-.95,1.84L331.16,73a1.9,1.9,0,0,0,1.65.65L337,72.26a2.81,2.81,0,0,1,2.75.4c.37.6,1.05,1,1.42,1.62a2.33,2.33,0,0,1,.89,2.75l-.94,3.9a1.67,1.67,0,0,0,.82,2l3.13,1a1.56,1.56,0,0,0,1.7-.62m-3.21-24.77.08-.2a8.55,8.55,0,0,1,11.17-4.63,8.44,8.44,0,0,1,5,10.72,8.21,8.21,0,0,1-11.11,5.15,8.84,8.84,0,0,1-5.14-11"
     id="path24" />
  <path
     class="cls-8"
     d="M321.63,43.48l1.48-2.86c.63-1.05,1.11-1.34,1.88-1.16l1.85-.16a2,2,0,0,1,1.95,1l1.51,3a1.25,1.25,0,0,0,1.53.36l2.26-1.08a1.51,1.51,0,0,0,.74-1.42L333.56,38a1.75,1.75,0,0,1,.66-2,17.5,17.5,0,0,1,1.35-1.49c.32-.55.8-.82,1.94-.55l3.19,1a1.25,1.25,0,0,0,1.18-.72l1-2.57a1.25,1.25,0,0,0-.49-1.32l-2.86-1.49c-1.29-.49-1.4-1.12-1.4-1.74a13.15,13.15,0,0,0,.21-1.76c-.43-.7-.11-1.24.82-1.81L342,21.79a1.73,1.73,0,0,0,.74-1.44l-1.25-2.5a1.52,1.52,0,0,0-1.44-.74l-3.11,1.25a2,2,0,0,1-2.29-.54c-.3-.45-.82-.77-1.11-1.25-.55-.33-.82-.8-.55-1.94l.57-3.27v0a1,1,0,0,0-.45-1.28l-2.58-1a1.25,1.25,0,0,0-1.33.49l-1.29,3.09c-.35.72-2.15,1.32-2.15,1.32a6.05,6.05,0,0,0-1.61,0,2,2,0,0,1-2-1.06l-1.49-2.95a1.25,1.25,0,0,0-1.53-.36l-2.41.84a1.41,1.41,0,0,0-.6,1.66l1.13,2.87a3.13,3.13,0,0,1-.48,2.3c-.45.29-.77.81-1.25,1.1a1.86,1.86,0,0,1-2.18.69l-3-.72-.07,0a1,1,0,0,0-1.26.52l-1,2.57a1.55,1.55,0,0,0,.64,1.55l2.71,1.25c1.25.5,1.28,3.73,1.28,3.73a1.59,1.59,0,0,1-.84,1.81L309,31.44a1.3,1.3,0,0,0-.74,1.44l1.25,2.5a1.47,1.47,0,0,0,1.25.51l3.26-1a2.19,2.19,0,0,1,2.14.31c.3.45.82.78,1.11,1.25a1.81,1.81,0,0,1,.63,2.16l-.71,3a1.25,1.25,0,0,0,.64,1.56l2.42.78a1.25,1.25,0,0,0,1.33-.49M319.1,24.2l.06-.15a6.65,6.65,0,0,1,8.69-3.6,6.56,6.56,0,0,1,3.85,8.34q-.09.3-.21.58a6.39,6.39,0,0,1-8.36,3.42,6.88,6.88,0,0,1-4-8.58"
     id="path26" />
  <path
     id="path944"
     style="fill:#14263b;fill-opacity:1;fill-rule:nonzero;stroke:none;stroke-width:0.03007732"
     d="m 116.01324,126.42305 h 23.67191 v -10.43579 h -23.67191 z"
     inkscape:connector-curvature="0" />
  <path
     id="path946"
     style="fill:#14263b;fill-opacity:1;fill-rule:nonzero;stroke:none;stroke-width:0.03007732"
     d="m 105.48136,21.021881 c 0,2.099985 8.91702,3.802069 19.9169,3.802069 11.00049,0 19.91751,-1.702084 19.91751,-3.802069 0,-2.099098 -8.91702,-3.801782 -19.91751,-3.801782 -10.99988,0 -19.9169,1.702684 -19.9169,3.801782"
     inkscape:connector-curvature="0" />
  <path
     id="path948"
     style="fill:#234757;fill-opacity:1;fill-rule:nonzero;stroke:none;stroke-width:0.03007732"
     d="m 117.53815,121.12281 c 0,-0.98924 0.80336,-1.78989 1.79261,-1.78989 0.99105,0 1.79261,0.80065 1.79261,1.78989 0,0.99106 -0.80156,1.79442 -1.79261,1.79442 -0.98925,0 -1.79261,-0.80336 -1.79261,-1.79442 z M 94.15394,22.344974 v 98.286376 c 0,4.22377 3.44896,7.67695 7.67784,7.67695 h 24.5855 v -2.76441 c -2.12286,-0.35582 -3.74102,-2.19775 -3.74102,-4.42108 0,-2.22151 1.61816,-4.06194 3.74102,-4.41775 v -2.59748 h -25.22645 c -0.93329,0 -1.69726,-0.76397 -1.69726,-1.69756 V 28.220582 c 0,-0.933904 0.76397,-1.697572 1.69726,-1.697572 h 25.22645 v -3.964781 h -12.81324 c -0.99676,0 -1.80433,-0.806987 -1.80433,-1.804044 0,-0.995557 0.80757,-1.802231 1.80433,-1.802231 h 12.81324 v -4.283919 h -24.5855 c -4.22195,0 -7.67784,3.450474 -7.67784,7.676939"
     inkscape:connector-curvature="0" />
  <path
     id="path950"
     style="fill:#89b8c0;fill-opacity:1;fill-rule:nonzero;stroke:none;stroke-width:0.03007732"
     d="m 133.20032,121.12281 c 0,-0.98924 0.80246,-1.78989 1.79321,-1.78989 0.98924,0 1.79291,0.80065 1.79291,1.78989 0,0.99106 -0.80367,1.79442 -1.79291,1.79442 -0.99075,0 -1.79321,-0.80336 -1.79321,-1.79442 z m -6.78304,4.42108 v 2.76441 h 26.07704 c 4.22196,0.004 7.67664,-3.44597 7.67664,-7.67184 V 22.344974 c 0,-4.221053 -3.45468,-7.676939 -7.67664,-7.676939 h -26.07704 v 4.283919 h 14.30298 c 0.99556,0 1.80403,0.806674 1.80403,1.802231 0,0.997057 -0.80847,1.804044 -1.80403,1.804044 h -14.30298 v 3.964781 h 26.62204 c 0.93391,0 1.69666,0.763668 1.69666,1.697572 v 84.189438 c 0,0.93359 -0.76275,1.69756 -1.69666,1.69756 h -26.62204 v 2.59748 c 0.24242,-0.0404 0.49087,-0.0667 0.74442,-0.0667 2.47866,0 4.48543,2.00826 4.48543,4.48452 0,2.47898 -2.00677,4.48724 -4.48543,4.48724 -0.25355,0 -0.502,-0.0265 -0.74442,-0.0661"
     inkscape:connector-curvature="0" />
  <path
     id="path952"
     style="fill:#ade4f1;fill-opacity:1;fill-rule:nonzero;stroke:none;stroke-width:0.03007732"
     d="m 101.19083,26.52301 h 51.84849 c 0.93391,0 1.69666,0.763668 1.69666,1.697572 v 84.189438 c 0,0.28092 -0.0759,0.54259 -0.1973,0.77689 L 100.07467,26.952818 c 0.29986,-0.264084 0.68756,-0.429808 1.11616,-0.429808"
     inkscape:connector-curvature="0" />
  <path
     id="path954"
     style="fill:#9bdef2;fill-opacity:1;fill-rule:nonzero;stroke:none;stroke-width:0.03007732"
     d="m 100.07467,26.952818 54.46401,86.234092 c -0.28363,0.54351 -0.84637,0.92067 -1.49936,0.92067 h -51.84849 c -0.93329,0 -1.69726,-0.76397 -1.69726,-1.69756 V 28.220582 c 0,-0.505908 0.22829,-0.955863 0.5811,-1.267764"
     inkscape:connector-curvature="0" />
  <path
     id="path960"
     style="fill:#ed4f38;fill-opacity:1;fill-rule:nonzero;stroke:none;stroke-width:0.03007732"
     d="m 135.97135,87.655469 c 0,1.568842 -1.27198,2.840806 -2.84081,2.840806 h -13.42711 c -1.56885,0 -2.84111,-1.271964 -2.84111,-2.840806 v 0 c 0,-1.567931 1.27226,-2.840195 2.84111,-2.840195 h 13.42711 c 1.56883,0 2.84081,1.272264 2.84081,2.840195 v 0"
     inkscape:connector-curvature="0" />
  <path
     id="path962"
     style="fill:#ffffff;fill-opacity:1;fill-rule:nonzero;stroke:none;stroke-width:0.03007732"
     d="m 118.70606,88.416437 c 0.17355,0.08899 0.43973,0.178048 0.71434,0.178048 0.29596,0 0.45296,-0.122356 0.45296,-0.30919 0,-0.17716 -0.13565,-0.278519 -0.47762,-0.400937 -0.47373,-0.164512 -0.78202,-0.427096 -0.78202,-0.841256 0,-0.486049 0.40514,-0.857804 1.07737,-0.857804 0.32123,0 0.55824,0.06674 0.72758,0.143465 l -0.14468,0.519744 c -0.11336,-0.05449 -0.31611,-0.134754 -0.59523,-0.134754 -0.27942,0 -0.41416,0.12693 -0.41416,0.274907 0,0.181359 0.16031,0.261372 0.52755,0.400638 0.5032,0.185871 0.74021,0.448442 0.74021,0.849979 0,0.477626 -0.36755,0.883663 -1.14956,0.883663 -0.32513,0 -0.64667,-0.08536 -0.80788,-0.173536 l 0.13114,-0.532967"
     inkscape:connector-curvature="0" />
  <path
     id="path964"
     style="fill:#ffffff;fill-opacity:1;fill-rule:nonzero;stroke:none;stroke-width:0.03007732"
     d="m 120.96727,89.079934 h 0.64655 v -2.847943 h -0.64655 z"
     inkscape:connector-curvature="0" />
  <path
     id="path966"
     style="fill:#ffffff;fill-opacity:1;fill-rule:nonzero;stroke:none;stroke-width:0.03007732"
     d="m 124.5516,88.949404 c -0.19882,0.06712 -0.57509,0.160313 -0.95136,0.160313 -0.51974,0 -0.89571,-0.131142 -1.15738,-0.38499 -0.26257,-0.244837 -0.40603,-0.616592 -0.40182,-1.034964 0.004,-0.94684 0.69238,-1.48793 1.62718,-1.48793 0.36724,0 0.65087,0.07224 0.79013,0.140166 l -0.13566,0.515532 c -0.1558,-0.06799 -0.35069,-0.122731 -0.66349,-0.122731 -0.53628,0 -0.94233,0.304077 -0.94233,0.921568 0,0.586496 0.36814,0.933592 0.89661,0.933592 0.14798,0 0.26618,-0.0165 0.3164,-0.04237 v -0.596132 h -0.43972 v -0.503197 h 1.06144 v 1.501166"
     inkscape:connector-curvature="0" />
  <path
     id="path968"
     style="fill:#ffffff;fill-opacity:1;fill-rule:nonzero;stroke:none;stroke-width:0.03007732"
     d="m 125.05478,89.079934 v -2.848018 h 0.75223 l 0.59102,1.043987 c 0.16904,0.299266 0.33837,0.655085 0.465,0.97571 h 0.0125 c -0.0421,-0.375979 -0.0545,-0.760956 -0.0545,-1.187465 v -0.832232 h 0.59193 v 2.848018 h -0.67644 l -0.60876,-1.098716 c -0.16904,-0.30469 -0.35491,-0.671933 -0.49417,-1.005793 l -0.0132,0.005 c 0.0165,0.375954 0.0256,0.777791 0.0256,1.242793 v 0.857204 h -0.59102"
     inkscape:connector-curvature="0" />
  <path
     id="path970"
     style="fill:#ffffff;fill-opacity:1;fill-rule:nonzero;stroke:none;stroke-width:0.03007732"
     d="m 127.81799,88.183936 h 1.10721 v -0.426371 h -1.10721 z"
     inkscape:connector-curvature="0" />
  <path
     id="path972"
     style="fill:#ffffff;fill-opacity:1;fill-rule:nonzero;stroke:none;stroke-width:0.03007732"
     d="m 129.97362,86.231916 v 1.639206 c 0,0.490874 0.18589,0.73991 0.51524,0.73991 0.33837,0 0.52424,-0.236713 0.52424,-0.73991 v -1.639206 h 0.64185 v 1.597113 c 0,0.87915 -0.44364,1.297522 -1.18715,1.297522 -0.71795,0 -1.14084,-0.397313 -1.14084,-1.305658 v -1.588977 h 0.64666"
     inkscape:connector-curvature="0" />
  <path
     id="path974"
     style="fill:#ffffff;fill-opacity:1;fill-rule:nonzero;stroke:none;stroke-width:0.03007732"
     d="m 132.85143,87.562833 c 0.0545,0.0125 0.12235,0.01687 0.21565,0.01687 0.34198,0 0.55313,-0.172635 0.55313,-0.46439 0,-0.262271 -0.18138,-0.419284 -0.5029,-0.419284 -0.13114,0 -0.21927,0.01325 -0.26588,0.02562 z m -0.63794,-1.293023 c 0.1982,-0.03337 0.47762,-0.05899 0.87044,-0.05899 0.39731,0 0.68004,0.07574 0.87042,0.227977 0.18227,0.143465 0.30469,0.380478 0.30469,0.658997 0,0.279119 -0.0935,0.51612 -0.26257,0.676432 -0.21926,0.206943 -0.5453,0.300478 -0.92578,0.300478 -0.0845,0 -0.16031,-0.005 -0.21926,-0.01325 v 1.018416 h -0.63794 v -2.810124"
     inkscape:connector-curvature="0" />
  <path
     id="path976"
     style="fill:#ffffff;fill-opacity:1;fill-rule:nonzero;stroke:none;stroke-width:0.03007732"
     d="m 138.75952,75.388146 -30.50714,0.0012 V 70.33756 l 30.50744,-0.0012 v 5.051799"
     inkscape:connector-curvature="0" />
  <path
     id="path978"
     style="fill:#ffffff;fill-opacity:1;fill-rule:nonzero;stroke:none;stroke-width:0.03007732"
     d="m 138.75952,82.463529 -30.50743,0.0012 v -5.052087 l 30.50773,-0.0012 v 5.052087"
     inkscape:connector-curvature="0" />
  <path
     id="path980"
     style="fill:#5d9390;fill-opacity:1;fill-rule:nonzero;stroke:none;stroke-width:0.03007732"
     d="m 139.42542,75.493104 h 5.15674 v -5.15672 h -5.15674 z"
     inkscape:connector-curvature="0" />
  <path
     id="path982"
     style="fill:#5d9390;fill-opacity:1;fill-rule:nonzero;stroke:none;stroke-width:0.03007732"
     d="m 139.42542,82.568188 h 5.15674 v -5.156721 h -5.15674 z"
     inkscape:connector-curvature="0" />
  <path
     id="path984"
     style="fill:#a0a29f;fill-opacity:1;fill-rule:nonzero;stroke:none;stroke-width:0.03007732"
     d="m 113.09152,71.225133 v 1.643731 c 0,0.491461 0.18287,0.741697 0.50681,0.741697 0.33265,0 0.51522,-0.237901 0.51522,-0.741697 v -1.644631 h 0.63193 v 1.602525 c 0,0.88065 -0.43642,1.301147 -1.16791,1.301147 -0.70621,0 -1.12157,-0.398238 -1.12219,-1.310183 v -1.593489 l 0.63614,8.87e-4"
     inkscape:connector-curvature="0" />
  <path
     id="path986"
     style="fill:#a0a29f;fill-opacity:1;fill-rule:nonzero;stroke:none;stroke-width:0.03007732"
     d="m 115.31605,73.415966 c 0.17052,0.08811 0.43221,0.17716 0.7026,0.17716 0.29054,0 0.44485,-0.122731 0.44485,-0.309202 0,-0.17806 -0.13295,-0.279419 -0.47042,-0.402737 -0.46529,-0.165424 -0.76848,-0.427996 -0.76848,-0.843056 0,-0.487861 0.39944,-0.861416 1.05902,-0.861416 0.31643,0 0.54892,0.06887 0.71525,0.145265 l -0.14076,0.520644 c -0.11273,-0.05449 -0.3119,-0.135654 -0.58681,-0.135654 -0.27371,0 -0.40695,0.12783 -0.40695,0.275807 0,0.182272 0.15791,0.262584 0.51973,0.402437 0.49418,0.186784 0.72668,0.449355 0.72668,0.851792 8.8e-4,0.479438 -0.36123,0.886387 -1.1291,0.886387 -0.32093,0 -0.63644,-0.08486 -0.79464,-0.17356 l 0.12903,-0.533867"
     inkscape:connector-curvature="0" />
  <path
     id="path988"
     style="fill:#a0a29f;fill-opacity:1;fill-rule:nonzero;stroke:none;stroke-width:0.03007732"
     d="m 119.20654,72.872463 h -1.03075 v 0.678244 h 1.15137 v 0.530268 h -1.78719 v -2.856742 h 1.72914 V 71.7539 h -1.09332 v 0.59342 h 1.03075 v 0.525143"
     inkscape:connector-curvature="0" />
  <path
     id="path990"
     style="fill:#a0a29f;fill-opacity:1;fill-rule:nonzero;stroke:none;stroke-width:0.03007732"
     d="m 120.38768,72.491085 h 0.24934 c 0.31641,0 0.5029,-0.161212 0.5029,-0.411448 0,-0.262584 -0.17415,-0.393714 -0.46499,-0.398225 -0.15431,0 -0.24153,0.0125 -0.28725,0.02137 z m -0.62711,-1.228958 c 0.20362,-0.03424 0.50741,-0.05899 0.84397,-0.05899 0.41477,0 0.70651,0.06262 0.90533,0.223778 0.16662,0.135654 0.25836,0.33476 0.25836,0.597944 0,0.364831 -0.25385,0.615079 -0.49537,0.703803 v 0.0125 c 0.1958,0.08124 0.30407,0.271595 0.37446,0.533879 0.0864,0.322425 0.17445,0.695979 0.22829,0.806074 h -0.64757 c -0.0466,-0.08086 -0.11273,-0.313713 -0.19641,-0.665921 -0.074,-0.355807 -0.19459,-0.453567 -0.45175,-0.458078 h -0.1922 v 1.123999 h -0.62711 v -2.81885"
     inkscape:connector-curvature="0" />
  <path
     id="path992"
     style="fill:#a0a29f;fill-opacity:1;fill-rule:nonzero;stroke:none;stroke-width:0.03007732"
     d="m 123.06637,74.080975 v -2.856742 h 0.7393 l 0.5814,1.046687 c 0.16633,0.300178 0.33295,0.655985 0.45807,0.978722 h 0.0125 c -0.0424,-0.377179 -0.0548,-0.763068 -0.0548,-1.191064 v -0.834345 h 0.58229 v 2.855842 l -0.66501,8.87e-4 -0.59823,-1.10294 c -0.16663,-0.304678 -0.34981,-0.67372 -0.48605,-1.008493 l -0.0125,0.005 c 0.0165,0.376867 0.0246,0.779304 0.0246,1.246406 v 0.859603 l -0.58169,8.88e-4"
     inkscape:connector-curvature="0" />
  <path
     id="path994"
     style="fill:#a0a29f;fill-opacity:1;fill-rule:nonzero;stroke:none;stroke-width:0.03007732"
     d="m 127.29734,72.863752 -0.17445,-0.606068 c -0.0502,-0.169323 -0.0996,-0.381378 -0.14075,-0.550714 h -0.009 c -0.0421,0.169336 -0.0836,0.385902 -0.12933,0.550714 l -0.16663,0.606068 z m -0.70982,0.483637 -0.20001,0.732686 h -0.65629 l 0.8554,-2.855842 0.83134,-8.87e-4 0.86863,2.856741 h -0.68186 l -0.21565,-0.732673 h -0.80156"
     inkscape:connector-curvature="0" />
  <path
     id="path996"
     style="fill:#a0a29f;fill-opacity:1;fill-rule:nonzero;stroke:none;stroke-width:0.03007732"
     d="m 131.03055,72.98707 c -0.0125,-0.343796 -0.0246,-0.759456 -0.0246,-1.174229 l -0.0125,-8.87e-4 c -0.0872,0.36453 -0.20422,0.772379 -0.3119,1.107152 l -0.34078,1.114364 h -0.49417 l -0.29956,-1.106553 c -0.0915,-0.33476 -0.18679,-0.740797 -0.25386,-1.114063 h -0.007 c -0.0165,0.38559 -0.0289,0.826221 -0.05,1.18204 l -0.0496,1.085193 h -0.5856 l 0.17775,-2.856754 h 0.84398 l 0.27399,0.953151 c 0.0872,0.331161 0.17536,0.687268 0.23702,1.022028 h 0.0125 c 0.0791,-0.330548 0.17444,-0.707414 0.26588,-1.025627 l 0.29956,-0.949552 h 0.82624 l 0.15429,2.856754 h -0.61982 l -0.0415,-1.093017"
     inkscape:connector-curvature="0" />
  <path
     id="path998"
     style="fill:#a0a29f;fill-opacity:1;fill-rule:nonzero;stroke:none;stroke-width:0.03007732"
     d="m 133.84488,72.872463 h -1.02955 v 0.678244 l 1.15046,-8.87e-4 8.9e-4,0.530267 h -1.7875 v -2.856779 h 1.72914 v 0.529355 h -1.093 v 0.594032 h 1.03044 l -8.9e-4,0.525743"
     inkscape:connector-curvature="0" />
  <path
     id="path1000"
     style="fill:#a0a29f;fill-opacity:1;fill-rule:nonzero;stroke:none;stroke-width:0.03007732"
     d="m 113.50779,79.853424 c 0.0541,0.0125 0.12036,0.016 0.21206,0.016 0.33626,0 0.54409,-0.173548 0.54409,-0.466202 0,-0.262272 -0.17896,-0.419272 -0.49477,-0.419272 -0.12843,0 -0.21596,0.01262 -0.26138,0.02562 z m -0.62771,-1.297548 c 0.19521,-0.03337 0.4695,-0.05899 0.856,-0.05899 0.39041,0 0.66892,0.07574 0.85601,0.22799 0.17866,0.144677 0.29896,0.38169 0.29896,0.661697 0,0.280031 -0.0911,0.517031 -0.25716,0.678244 -0.21625,0.207842 -0.53629,0.301378 -0.91014,0.301378 -0.083,0 -0.1579,-0.005 -0.21596,-0.01325 v 1.021728 h -0.62741 v -2.818848"
     inkscape:connector-curvature="0" />
  <path
     id="path1002"
     style="fill:#a0a29f;fill-opacity:1;fill-rule:nonzero;stroke:none;stroke-width:0.03007732"
     d="m 116.40965,80.157201 -0.17534,-0.605155 c -0.0494,-0.169949 -0.0996,-0.381378 -0.14077,-0.551327 h -0.008 c -0.0421,0.169949 -0.0836,0.38589 -0.12933,0.551327 l -0.16573,0.606355 z m -0.71072,0.483637 -0.20002,0.733886 h -0.65599 l 0.85601,-2.857642 h 0.83043 l 0.86864,2.857642 h -0.68096 l -0.21655,-0.733886 h -0.80156"
     inkscape:connector-curvature="0" />
  <path
     id="path1004"
     style="fill:#a0a29f;fill-opacity:1;fill-rule:nonzero;stroke:none;stroke-width:0.03007732"
     d="m 117.79441,80.708815 c 0.17084,0.08899 0.43252,0.17776 0.70201,0.17776 0.29085,0 0.44484,-0.122356 0.44484,-0.308902 0,-0.178047 -0.13293,-0.280319 -0.4695,-0.402724 -0.46499,-0.165425 -0.76817,-0.428009 -0.76878,-0.843981 0,-0.486949 0.39882,-0.860503 1.05963,-0.860503 0.3161,0 0.5486,0.06799 0.71433,0.144377 l -0.14016,0.521531 c -0.11273,-0.05562 -0.31251,-0.135654 -0.5865,-0.135654 -0.27401,0 -0.40725,0.12783 -0.40725,0.27582 0,0.182271 0.1579,0.262571 0.51913,0.402437 0.49507,0.185871 0.72757,0.449342 0.72757,0.85178 0,0.478237 -0.36123,0.886374 -1.13031,0.886374 -0.31972,0 -0.63584,-0.08486 -0.79374,-0.174448 l 0.12873,-0.533867"
     inkscape:connector-curvature="0" />
  <path
     id="path1006"
     style="fill:#a0a29f;fill-opacity:1;fill-rule:nonzero;stroke:none;stroke-width:0.03007732"
     d="m 120.03969,80.708815 c 0.17023,0.08899 0.43191,0.17776 0.702,0.17776 0.29085,0 0.44514,-0.122356 0.44514,-0.308902 0,-0.178047 -0.13324,-0.280319 -0.4698,-0.402724 -0.465,-0.165425 -0.76878,-0.428009 -0.76878,-0.843981 0,-0.486949 0.39883,-0.860503 1.05962,-0.860503 0.31612,0 0.54802,0.06799 0.71434,0.144377 l -0.14106,0.521531 c -0.11161,-0.05562 -0.3116,-0.135654 -0.5856,-0.135654 -0.27401,0 -0.40695,0.126931 -0.40695,0.27582 0,0.182271 0.1576,0.261372 0.51883,0.402437 0.49508,0.185871 0.72758,0.449342 0.72758,0.85088 0,0.479137 -0.36215,0.887274 -1.13031,0.887274 -0.31943,0 -0.63584,-0.08536 -0.79344,-0.174448 l 0.12843,-0.533867"
     inkscape:connector-curvature="0" />
  <path
     id="path1008"
     style="fill:#a0a29f;fill-opacity:1;fill-rule:nonzero;stroke:none;stroke-width:0.03007732"
     d="m 122.71687,81.373824 -0.66501,-2.856742 h 0.67735 l 0.21234,1.178729 c 0.0616,0.338972 0.11973,0.707414 0.16542,0.995257 h 0.009 c 0.046,-0.309189 0.11186,-0.652673 0.18348,-1.004281 l 0.2361,-1.169705 h 0.67284 l 0.22557,1.2043 c 0.0616,0.33476 0.10736,0.639438 0.14889,0.95735 h 0.009 c 0.0415,-0.317912 0.10411,-0.652673 0.16213,-0.991945 l 0.22829,-1.169705 h 0.64395 l -0.72337,2.856742 h -0.68545 l -0.23702,-1.228958 c -0.0535,-0.287843 -0.0992,-0.555826 -0.13294,-0.881563 h -0.008 c -0.0502,0.322425 -0.096,0.59372 -0.16211,0.881563 l -0.26589,1.228958 h -0.69418"
     inkscape:connector-curvature="0" />
  <path
     id="path1010"
     style="fill:#a0a29f;fill-opacity:1;fill-rule:nonzero;stroke:none;stroke-width:0.03007732"
     d="m 126.4633,79.953871 c 0,0.560337 0.25717,0.954063 0.68185,0.954063 0.4271,0 0.67284,-0.415972 0.67284,-0.970898 0,-0.51252 -0.24123,-0.954064 -0.67735,-0.954064 -0.42799,0 -0.67734,0.415973 -0.67734,0.970899 z m 2.02331,-0.03787 c 0,0.936304 -0.55673,1.504466 -1.37604,1.504466 -0.83074,0 -1.31588,-0.64035 -1.31588,-1.454236 0,-0.855391 0.53567,-1.495741 1.3628,-1.495741 0.8596,0 1.32912,0.657185 1.32912,1.445511"
     inkscape:connector-curvature="0" />
  <path
     id="path1012"
     style="fill:#a0a29f;fill-opacity:1;fill-rule:nonzero;stroke:none;stroke-width:0.03007732"
     d="m 129.53119,79.783935 h 0.24934 c 0.31641,0 0.5032,-0.161213 0.5032,-0.410549 0,-0.263484 -0.17445,-0.394613 -0.46621,-0.398225 -0.15308,0 -0.24122,0.0125 -0.28633,0.02012 z m -0.62711,-1.228959 c 0.20362,-0.03337 0.50649,-0.05899 0.84307,-0.05899 0.41567,0 0.70651,0.06349 0.90652,0.22469 0.16542,0.134741 0.25717,0.334747 0.25717,0.597031 0,0.364831 -0.25386,0.615079 -0.49417,0.704103 v 0.0125 c 0.19459,0.08124 0.30288,0.272195 0.37355,0.534767 0.087,0.321537 0.17415,0.695091 0.22889,0.805174 h -0.64816 c -0.046,-0.07999 -0.11186,-0.313701 -0.19551,-0.665909 -0.0752,-0.355819 -0.1958,-0.453566 -0.45295,-0.458078 l -0.1913,8.87e-4 v 1.123087 h -0.62711 v -2.818847"
     inkscape:connector-curvature="0" />
  <path
     id="path1014"
     style="fill:#a0a29f;fill-opacity:1;fill-rule:nonzero;stroke:none;stroke-width:0.03007732"
     d="m 132.00474,80.885963 c 0.0548,0.013 0.14197,0.013 0.22017,0.013 0.57357,0.005 0.94804,-0.317926 0.94804,-1.000669 0.004,-0.592833 -0.33657,-0.907134 -0.88096,-0.907134 -0.14167,0 -0.2325,0.01325 -0.28725,0.0255 z m -0.63582,-2.330987 c 0.23339,-0.03787 0.53628,-0.05899 0.85599,-0.05899 0.53207,0 0.87766,0.09686 1.14716,0.30469 0.29144,0.220165 0.47371,0.572673 0.47371,1.076469 0,0.547102 -0.1946,0.923968 -0.465,1.157669 -0.29505,0.249949 -0.74351,0.368155 -1.29302,0.368155 -0.32784,0 -0.56034,-0.02137 -0.71884,-0.04149 v -2.806512"
     inkscape:connector-curvature="0" />
  <path
     id="path1016"
     style="fill:#e46b57;fill-opacity:1;fill-rule:nonzero;stroke:none;stroke-width:0.03007732"
     d="m 143.84558,47.812949 c 0,9.625648 -7.80265,17.428305 -17.4283,17.428305 -9.62535,0 -17.42861,-7.802657 -17.42861,-17.428305 0,-9.625347 7.80326,-17.428004 17.42861,-17.428004 9.62565,0 17.4283,7.802657 17.4283,17.428004"
     inkscape:connector-curvature="0" />
  <path
     id="path1018"
     style="fill:#ffffff;fill-opacity:1;fill-rule:nonzero;stroke:none;stroke-width:0.03007732"
     d="m 123.7034,56.105568 h 5.0087 v -5.893056 h -5.0087 z"
     inkscape:connector-curvature="0" />
  <path
     id="path1020"
     style="fill:#c8c8c3;fill-opacity:1;fill-rule:nonzero;stroke:none;stroke-width:0.03007732"
     d="m 123.69619,53.309879 5.16307,-2.875989 -5.16458,-1.178728 10e-4,4.054717"
     inkscape:connector-curvature="0" />
  <path
     id="path1022"
     style="fill:#ffffff;fill-opacity:1;fill-rule:nonzero;stroke:none;stroke-width:0.03007732"
     d="m 132.11062,43.364506 c -0.14016,0.950752 0.12753,1.777873 0.59704,1.84645 0.4695,0.06886 0.96367,-0.646662 1.10293,-1.598014 0.13925,-0.950439 -0.12873,-1.77756 -0.59793,-1.846136 -0.46952,-0.06887 -0.96368,0.646361 -1.10204,1.5977"
     inkscape:connector-curvature="0" />
  <path
     id="path1024"
     style="fill:#e46b5b;fill-opacity:1;fill-rule:nonzero;stroke:none;stroke-width:0.03007732"
     d="m 116.6978,62.281641 c -0.0125,-0.0087 -0.0256,-0.01775 -0.0379,-0.0255 0.0125,0.0087 0.0256,0.01687 0.0379,0.0255"
     inkscape:connector-curvature="0" />
  <path
     id="path1026"
     style="fill:#e46b5b;fill-opacity:1;fill-rule:nonzero;stroke:none;stroke-width:0.03007732"
     d="m 117.58478,62.836567 c -0.12783,-0.07574 -0.24845,-0.148877 -0.36123,-0.218366 0.11998,0.07374 0.24061,0.14619 0.36123,0.218366"
     inkscape:connector-curvature="0" />
  <path
     id="path1028"
     style="fill:#e46b5b;fill-opacity:1;fill-rule:nonzero;stroke:none;stroke-width:0.03007732"
     d="m 118.17489,63.171327 c -0.0667,-0.03612 -0.13113,-0.07224 -0.19549,-0.108233 0.0652,0.03612 0.13053,0.07311 0.19549,0.108233"
     inkscape:connector-curvature="0" />
  <path
     id="path1030"
     style="fill:#f6c5c2;fill-opacity:1;fill-rule:nonzero;stroke:none;stroke-width:0.03007732"
     d="m 117.22355,62.618201 c -0.17686,-0.110358 -0.35311,-0.220453 -0.52575,-0.33656 0.15219,0.100485 0.32753,0.213254 0.52575,0.33656"
     inkscape:connector-curvature="0" />
  <path
     id="path1032"
     style="fill:#f6c5c2;fill-opacity:1;fill-rule:nonzero;stroke:none;stroke-width:0.03007732"
     d="m 117.9794,63.063044 c -0.13296,-0.07336 -0.26409,-0.149776 -0.39462,-0.226477 0.12512,0.07311 0.25625,0.148889 0.39462,0.226477"
     inkscape:connector-curvature="0" />
  <path
     id="path1034"
     style="fill:#f6c5c2;fill-opacity:1;fill-rule:nonzero;stroke:none;stroke-width:0.03007732"
     d="m 116.04241,61.818151 c 0,0 0.21747,0.170236 0.61749,0.437932 -0.20964,-0.141966 -0.41417,-0.289043 -0.61749,-0.438832 0,0 0,0 0,8.88e-4"
     inkscape:connector-curvature="0" />
  <path
     id="path1036"
     style="fill:#e1e8e0;fill-opacity:1;fill-rule:nonzero;stroke:none;stroke-width:0.03007732"
     d="m 119.79937,42.846575 c 0,4.493561 2.82335,8.144641 6.33428,8.2451 V 36.222346 c -3.45016,0.111857 -6.33428,2.193545 -6.33428,6.624229"
     inkscape:connector-curvature="0" />
  <path
     id="path1038"
     style="fill:#ffffff;fill-opacity:1;fill-rule:nonzero;stroke:none;stroke-width:0.03007732"
     d="m 126.42872,36.217234 c -0.0984,0 -0.19731,0.0025 -0.29507,0.005 v 14.869317 c 0.0494,8.88e-4 0.099,0.005 0.14799,0.005 3.5801,0 6.48166,-3.693786 6.48166,-8.249599 0,-4.555814 -2.75448,-6.629341 -6.33458,-6.629341"
     inkscape:connector-curvature="0" />
  <path
     id="path1040"
     style="fill:#368683;fill-opacity:1;fill-rule:nonzero;stroke:none;stroke-width:0.03007732"
     d="m 130.18597,39.531754 c 0,0 -3.26549,4.108559 -8.9868,3.388822 l -0.51553,1.251817 -1.76794,-2.062104 c 0,0 -0.66321,-5.597988 4.56754,-7.144872 5.22894,-1.546883 6.33428,1.619972 6.33428,1.619972 0,0 2.66576,0.124231 3.39514,5.181417 0,0 -1.25964,0.858703 -1.11197,1.963443 0,0 -1.69396,-1.69396 -1.91472,-4.198495"
     inkscape:connector-curvature="0" />
  <path
     id="path1042"
     style="fill:#e1e8e0;fill-opacity:1;fill-rule:nonzero;stroke:none;stroke-width:0.03007732"
     d="m 120.23879,43.287218 c 0.0909,0.938104 -0.18497,1.733355 -0.61568,1.774861 -0.4298,0.04149 -0.85269,-0.685168 -0.94442,-1.624484 -0.0905,-0.938716 0.18528,-1.733355 0.61598,-1.774861 0.4307,-0.04212 0.8536,0.685468 0.94412,1.624484"
     inkscape:connector-curvature="0" />
  <path
     id="path1044"
     style="fill:#c3ebe5;fill-opacity:1;fill-rule:nonzero;stroke:none;stroke-width:0.03007732"
     d="m 136.4604,62.04914 c 0,0 -1.10474,-7.122913 -6.63566,-8.301642 l -3.53589,2.35807 -3.32203,-2.284081 c 0,0 -6.11322,0.851192 -6.92441,7.995764 0.20332,0.149789 0.40785,0.296866 0.61749,0.438832 0.0125,0.0075 0.0256,0.01687 0.0379,0.0255 0.17265,0.116107 0.3489,0.226177 0.52576,0.33656 0.11273,0.06949 0.2334,0.142577 0.36123,0.218366 0.13053,0.07674 0.26166,0.153101 0.39461,0.226477 0.0644,0.03612 0.12873,0.07224 0.1955,0.108233 2.12918,1.145046 4.52604,1.850661 7.06998,2.019697 l 0.61838,-6.435645 -0.84818,-1.676214 0.19912,-0.342871 0.75494,-0.603356 0.43582,-0.03524 0.75253,0.785928 0.32393,0.195494 -0.84908,1.676214 0.59193,6.459404 c 3.41708,-0.156701 6.5767,-1.292123 9.20335,-3.139473 0.0112,-0.0087 0.0222,-0.0165 0.0327,-0.02612"
     inkscape:connector-curvature="0" />
  <path
     id="path1046"
     style="fill:#87c8bb;fill-opacity:1;fill-rule:nonzero;stroke:none;stroke-width:0.03007732"
     d="m 127.48141,57.079166 0.36666,-0.710127 -1.44311,-0.271295 -0.43582,0.03524 -0.82654,0.511921 -0.12753,0.434307 0.84818,1.676213 -0.61837,6.435646 c 0.17023,0.01125 0.33925,0.02737 0.5101,0.03362 0.22017,0.0087 0.44033,0.0165 0.6623,0.0165 0.13595,0 0.26949,-0.0075 0.40544,-0.01 0.13475,-0.0037 0.26769,-0.01 0.40155,-0.01687 l -0.59194,-6.459404 0.84908,-1.676201"
     inkscape:connector-curvature="0" />
  <path
     id="path1048"
     style="fill:#87c8bb;fill-opacity:1;fill-rule:nonzero;stroke:none;stroke-width:0.03007732"
     d="m 123.26217,53.085202 3.02668,3.020366 -1.9072,1.524012 -1.7099,-3.882082 0.59042,-0.662296"
     inkscape:connector-curvature="0" />
  <path
     id="path1050"
     style="fill:#87c8bb;fill-opacity:1;fill-rule:nonzero;stroke:none;stroke-width:0.03007732"
     d="m 129.23553,53.085202 -2.94668,3.020366 1.97037,1.584765 1.56552,-3.942835 -0.58921,-0.662296"
     inkscape:connector-curvature="0" />
  <path
     id="path1052"
     style="fill:#87c8bb;fill-opacity:1;fill-rule:nonzero;stroke:none;stroke-width:0.03007732"
     d="m 128.20026,60.884547 h 3.21618 v -0.753108 h -3.21618 z"
     inkscape:connector-curvature="0" />
  <path
     id="path1054"
     style="fill:#87c8bb;fill-opacity:1;fill-rule:nonzero;stroke:none;stroke-width:0.03007732"
     d="m 128.33321,63.20051 1.46687,0.686968 1.48583,-0.671333 v -2.242562 l -2.9527,-0.01 z m 1.46597,0.834033 -1.59892,-0.749521 v -2.456117 l 3.21978,0.01125 v 2.460916 l -1.62086,0.732985"
     inkscape:connector-curvature="0" />
  <path
     id="path1056"
     style="fill:#87c8bb;fill-opacity:1;fill-rule:nonzero;stroke:none;stroke-width:0.03007732"
     d="m 118.36709,58.155635 c 0,0 0.0915,0.05262 0.23761,0.170836 0.14376,0.118857 0.33656,0.30559 0.53838,0.556738 0.0951,0.12843 0.20694,0.264984 0.29958,0.424396 0.10135,0.154289 0.19639,0.324225 0.28453,0.505597 0.0905,0.179859 0.16903,0.372654 0.24994,0.568148 0.0661,0.200019 0.13926,0.40275 0.19219,0.60968 0.0457,0.20873 0.10823,0.41506 0.13475,0.623803 0.031,0.20783 0.0635,0.412048 0.0767,0.611167 0.0156,0.199119 0.021,0.392201 0.028,0.574473 -0.001,0.182271 -0.0125,0.354919 -0.0211,0.51252 -0.008,0.317313 -0.0686,0.578684 -0.096,0.761256 -0.0334,0.181372 -0.0571,0.284531 -0.0571,0.284531 0,0 -0.0214,-0.105859 -0.0487,-0.287231 -0.013,-0.09086 -0.0306,-0.200918 -0.0449,-0.326949 -0.0125,-0.125717 -0.0351,-0.266783 -0.059,-0.419872 -0.0246,-0.152501 -0.0494,-0.318225 -0.0704,-0.492673 -0.0327,-0.173535 -0.0697,-0.354907 -0.096,-0.54349 -0.0274,-0.188583 -0.0857,-0.377778 -0.1191,-0.574173 -0.037,-0.196419 -0.0977,-0.388602 -0.14257,-0.585908 -0.0479,-0.195507 -0.11461,-0.385903 -0.16572,-0.577785 -0.0695,-0.184984 -0.11786,-0.376266 -0.1913,-0.550727 -0.0704,-0.174447 -0.13113,-0.347983 -0.20422,-0.505596 -0.0676,-0.161212 -0.14287,-0.306489 -0.20633,-0.446655 -0.0737,-0.132929 -0.13204,-0.262259 -0.1961,-0.369942 -0.0616,-0.109233 -0.11824,-0.203319 -0.16483,-0.281831 -0.096,-0.153989 -0.15851,-0.240313 -0.15851,-0.240313"
     inkscape:connector-curvature="0" />
  <path
     id="path1058"
     style="fill:#87c8bb;fill-opacity:1;fill-rule:nonzero;stroke:none;stroke-width:0.03007732"
     d="m 134.09783,58.155635 c 0,0 -0.0926,0.05262 -0.23881,0.170836 -0.14347,0.118857 -0.33657,0.30559 -0.53808,0.556738 -0.0951,0.12843 -0.20724,0.264984 -0.29868,0.424396 -0.10136,0.154289 -0.19731,0.324225 -0.28453,0.505597 -0.0917,0.179859 -0.16994,0.372654 -0.25025,0.568148 -0.0661,0.200019 -0.13895,0.40275 -0.19278,0.60968 -0.0457,0.20873 -0.10861,0.41506 -0.13475,0.623803 -0.031,0.20783 -0.0626,0.412048 -0.0767,0.611167 -0.0159,0.199119 -0.0211,0.392201 -0.0274,0.574473 8.8e-4,0.182271 0.0112,0.354919 0.0201,0.51252 0.009,0.317313 0.0689,0.578684 0.0971,0.761256 0.0334,0.181372 0.0571,0.284531 0.0571,0.284531 0,0 0.0205,-0.105859 0.0484,-0.287231 0.0132,-0.09086 0.031,-0.200918 0.0443,-0.326949 0.0125,-0.125717 0.0361,-0.266783 0.0599,-0.419872 0.0246,-0.152501 0.0485,-0.318225 0.0704,-0.492673 0.0327,-0.173535 0.0686,-0.354907 0.096,-0.54349 0.0274,-0.188583 0.0845,-0.377778 0.11911,-0.574173 0.0361,-0.196419 0.0969,-0.388602 0.14167,-0.585908 0.0475,-0.195507 0.11549,-0.385903 0.16573,-0.577785 0.0704,-0.184984 0.11885,-0.376266 0.19099,-0.550727 0.0716,-0.174447 0.13233,-0.347983 0.20542,-0.505596 0.0667,-0.161212 0.14257,-0.306489 0.20513,-0.446655 0.074,-0.132929 0.13294,-0.262259 0.19731,-0.369942 0.0607,-0.109233 0.11736,-0.203319 0.16482,-0.281831 0.096,-0.153989 0.1585,-0.240313 0.1585,-0.240313"
     inkscape:connector-curvature="0" />
  <path
     id="path1064"
     style="fill:#fcd1ad;fill-opacity:1;fill-rule:nonzero;stroke:none;stroke-width:0.03007732"
     d="m 163.98447,126.58877 c 0.0342,-0.12512 0.0712,-0.24843 0.11098,-0.36935 -0.0397,0.12098 -0.0767,0.24423 -0.11098,0.36935"
     inkscape:connector-curvature="0" />
  <path
     id="path1066"
     style="fill:#fcd1ad;fill-opacity:1;fill-rule:nonzero;stroke:none;stroke-width:0.03007732"
     d="m 163.83197,126.21069 c 0.0539,0.12423 0.10498,0.25025 0.1525,0.37808 -0.0475,-0.12783 -0.0986,-0.25385 -0.1525,-0.37808"
     inkscape:connector-curvature="0" />
  <path
     id="path1068"
     style="fill:#fcd1ad;fill-opacity:1;fill-rule:nonzero;stroke:none;stroke-width:0.03007732"
     d="m 164.22508,125.85067 c 0.0887,-0.2337 0.18648,-0.45837 0.29325,-0.67584 -0.10673,0.21747 -0.20543,0.44214 -0.29325,0.67584"
     inkscape:connector-curvature="0" />
  <path
     id="path1070"
     style="fill:#fcd1ad;fill-opacity:1;fill-rule:nonzero;stroke:none;stroke-width:0.02406561"
     d="m 180.4626,109.31453 c 0.18049,0.17977 0.35184,0.36941 0.51235,0.56891 -0.16051,-0.1995 -0.33258,-0.38914 -0.51235,-0.56891"
     inkscape:connector-curvature="0" />
  <path
     id="path1072"
     style="fill:#fcd1ad;fill-opacity:1;fill-rule:nonzero;stroke:none;stroke-width:0.02406561"
     d="m 180.99132,109.9039 c 0.0676,0.0837 0.13236,0.17038 0.19661,0.25798 -0.0643,-0.0876 -0.12899,-0.17424 -0.19661,-0.25798"
     inkscape:connector-curvature="0" />
  <path
     id="path1074"
     style="fill:#fcd1ad;fill-opacity:1;fill-rule:nonzero;stroke:none;stroke-width:0.03007732"
     d="m 146.12905,125.21274 c 0.14438,-0.3101 0.30649,-0.60336 0.48425,-0.88158 -0.17776,0.27822 -0.33987,0.57238 -0.48425,0.88158"
     inkscape:connector-curvature="0" />
  <path
     id="path1076"
     style="fill:#fcd1ad;fill-opacity:1;fill-rule:nonzero;stroke:none;stroke-width:0.03007732"
     d="m 163.01266,124.72308 c 0.0707,0.10285 0.13836,0.20693 0.20543,0.3128 -0.0661,-0.10586 -0.13475,-0.20995 -0.20543,-0.3128"
     inkscape:connector-curvature="0" />
  <path
     id="path1078"
     style="fill:#fcd1ad;fill-opacity:1;fill-rule:nonzero;stroke:none;stroke-width:0.03007732"
     d="m 163.66293,125.83985 c 0.0406,0.0849 0.08,0.17174 0.11886,0.25896 -0.0387,-0.0872 -0.0782,-0.17415 -0.11886,-0.25896"
     inkscape:connector-curvature="0" />
  <path
     id="path1080"
     style="fill:#fcd1ad;fill-opacity:1;fill-rule:nonzero;stroke:none;stroke-width:0.03007732"
     d="m 163.47345,125.47351 c 0.0451,0.0817 0.0881,0.16572 0.13114,0.25023 -0.043,-0.0845 -0.086,-0.16843 -0.13114,-0.25023"
     inkscape:connector-curvature="0" />
  <path
     id="path1082"
     style="fill:#fcd1ad;fill-opacity:1;fill-rule:nonzero;stroke:none;stroke-width:0.03007732"
     d="m 163.2611,125.10625 c 0.0539,0.0879 0.10586,0.17596 0.1561,0.2659 -0.0502,-0.09 -0.10223,-0.17807 -0.1561,-0.2659"
     inkscape:connector-curvature="0" />
  <path
     id="path1084"
     style="fill:#fcd1ad;fill-opacity:1;fill-rule:nonzero;stroke:none;stroke-width:0.03007732"
     d="m 164.10417,126.19326 c 0.0379,-0.11461 0.0767,-0.22649 0.11911,-0.33657 -0.0424,0.1101 -0.0812,0.22196 -0.11911,0.33657"
     inkscape:connector-curvature="0" />
  <path
     id="path1086"
     style="fill:#fcd1ad;fill-opacity:1;fill-rule:nonzero;stroke:none;stroke-width:0.02406561"
     d="m 181.93926,109.65361 c -0.0943,0.13333 -0.18338,0.27195 -0.26713,0.41658 0.0837,-0.14463 0.17328,-0.28325 0.26713,-0.41658"
     inkscape:connector-curvature="0" />
  <path
     id="path1088"
     style="fill:#fcd1ad;fill-opacity:1;fill-rule:nonzero;stroke:none;stroke-width:0.03007732"
     d="m 146.12815,125.21454 c -0.0319,0.0661 -0.0635,0.13204 -0.0926,0.20002 0.021,0.0827 0.0539,-0.005 0.0926,-0.20002"
     inkscape:connector-curvature="0" />
  <path
     id="path1090"
     style="fill:#fcd1ad;fill-opacity:1;fill-rule:nonzero;stroke:none;stroke-width:0.02406561"
     d="m 181.5494,110.29232 c 0.0395,-0.0748 0.0797,-0.14825 0.12201,-0.21996 -0.0416,0.0717 -0.0825,0.14511 -0.12201,0.21996"
     inkscape:connector-curvature="0" />
  <path
     id="path1092"
     style="fill:#fcd1ad;fill-opacity:1;fill-rule:nonzero;stroke:none;stroke-width:0.02406561"
     d="m 181.23583,110.22951 c 0.0691,0.0965 0.13524,0.19445 0.1995,0.29528 -0.0635,-0.10083 -0.13044,-0.19878 -0.1995,-0.29528"
     inkscape:connector-curvature="0" />
  <path
     id="path1094"
     style="fill:#77a437;fill-opacity:1;fill-rule:nonzero;stroke:none;stroke-width:0.02406561"
     d="m 181.18793,110.16188 c 0.0161,0.0224 0.0325,0.045 0.0479,0.0676 -0.0154,-0.0226 -0.0318,-0.0452 -0.0479,-0.0676"
     inkscape:connector-curvature="0" />
  <path
     id="path1096"
     style="fill:#77a437;fill-opacity:1;fill-rule:nonzero;stroke:none;stroke-width:0.03007732"
     d="m 163.4172,125.37215 c 0.0192,0.0342 0.0379,0.0671 0.0563,0.10136 -0.0184,-0.0342 -0.037,-0.0677 -0.0563,-0.10136"
     inkscape:connector-curvature="0" />
  <path
     id="path1098"
     style="fill:#77a437;fill-opacity:1;fill-rule:nonzero;stroke:none;stroke-width:0.03007732"
     d="m 163.21809,125.03588 c 0.0141,0.0235 0.0289,0.0475 0.043,0.0704 -0.0141,-0.0229 -0.0289,-0.0469 -0.043,-0.0704"
     inkscape:connector-curvature="0" />
  <path
     id="path1100"
     style="fill:#77a437;fill-opacity:1;fill-rule:nonzero;stroke:none;stroke-width:0.03007732"
     d="m 163.60459,125.72374 c 0.0195,0.0389 0.0387,0.0764 0.0584,0.11611 -0.0195,-0.0397 -0.0387,-0.0772 -0.0584,-0.11611"
     inkscape:connector-curvature="0" />
  <path
     id="path1102"
     style="fill:#77a437;fill-opacity:1;fill-rule:nonzero;stroke:none;stroke-width:0.03007732"
     d="m 163.78174,126.09881 c 0.0169,0.037 0.0346,0.074 0.0502,0.11186 -0.0156,-0.0379 -0.0334,-0.0749 -0.0502,-0.11186"
     inkscape:connector-curvature="0" />
  <path
     id="path1104"
     style="fill:#77a437;fill-opacity:1;fill-rule:nonzero;stroke:none;stroke-width:0.03007732"
     d="m 146.12815,125.21364 c 0,0 0,0 0,8.8e-4 0,-8.8e-4 0,-10e-4 8.9e-4,-10e-4 l -8.9e-4,8.9e-4"
     inkscape:connector-curvature="0" />
  <path
     id="path1106"
     style="fill:#77a437;fill-opacity:1;fill-rule:nonzero;stroke:none;stroke-width:0.03007732"
     d="m 163.00484,124.71164 c 0.002,0.004 0.005,0.007 0.007,0.0112 -0.002,-0.004 -0.005,-0.007 -0.007,-0.0112"
     inkscape:connector-curvature="0" />
  <path
     id="path1108"
     style="fill:#77a437;fill-opacity:1;fill-rule:nonzero;stroke:none;stroke-width:0.03007732"
     d="m 146.6133,124.33116 c 8.9e-4,-10e-4 10e-4,-0.004 0.004,-0.005 -0.001,8.9e-4 -0.002,0.002 -0.004,0.005"
     inkscape:connector-curvature="0" />
  <path
     id="path1110"
     style="fill:#77a437;fill-opacity:1;fill-rule:nonzero;stroke:none;stroke-width:0.03007732"
     d="m 164.09545,126.21942 c 0.002,-0.01 0.006,-0.0175 0.009,-0.0261 -0.002,0.009 -0.006,0.0165 -0.009,0.0261"
     inkscape:connector-curvature="0" />
  <path
     id="path1112"
     style="fill:#77a437;fill-opacity:1;fill-rule:nonzero;stroke:none;stroke-width:0.02406561"
     d="m 180.46187,109.31381 v 0 c 0,0 0,0 7.1e-4,7.1e-4 -7.1e-4,-7.1e-4 -7.1e-4,-7.1e-4 -7.1e-4,-7.1e-4"
     inkscape:connector-curvature="0" />
  <path
     id="path1114"
     style="fill:#77a437;fill-opacity:1;fill-rule:nonzero;stroke:none;stroke-width:0.02406561"
     d="m 181.67141,110.07236 c 7.1e-4,-7.1e-4 7.1e-4,-0.002 7.1e-4,-0.002 0,0 0,0.001 -7.1e-4,0.002"
     inkscape:connector-curvature="0" />
  <path
     id="path1116"
     style="fill:#77a437;fill-opacity:1;fill-rule:nonzero;stroke:none;stroke-width:0.02406561"
     d="m 181.43533,110.52479 c 0.0366,-0.0789 0.0746,-0.15642 0.11407,-0.23247 -0.0395,0.076 -0.0775,0.15354 -0.11407,0.23247"
     inkscape:connector-curvature="0" />
  <path
     id="path1118"
     style="fill:#77a437;fill-opacity:1;fill-rule:nonzero;stroke:none;stroke-width:0.03007732"
     d="m 164.51983,125.17122 c -6.6e-4,8.9e-4 -6.6e-4,10e-4 -0.001,0.004 8.9e-4,-10e-4 8.9e-4,-0.003 0.001,-0.004 v 0"
     inkscape:connector-curvature="0" />
  <path
     id="path1120"
     style="fill:#77a437;fill-opacity:1;fill-rule:nonzero;stroke:none;stroke-width:0.03007732"
     d="m 164.22327,125.85669 c 6.7e-4,-0.002 6.7e-4,-0.004 10e-4,-0.006 -10e-4,0.002 -10e-4,0.004 -10e-4,0.006"
     inkscape:connector-curvature="0" />
  <path
     id="path1122"
     style="fill:#77a437;fill-opacity:1;fill-rule:nonzero;stroke:none;stroke-width:0.02406561"
     d="m 180.97495,109.88344 c 0.006,0.007 0.0106,0.0135 0.0164,0.0205 -0.006,-0.007 -0.0106,-0.0135 -0.0164,-0.0205"
     inkscape:connector-curvature="0" />
  <path
     id="path1124"
     style="fill:#77a437;fill-opacity:1;fill-rule:nonzero;stroke:none;stroke-width:0.02406561"
     d="m 181.94287,109.64712 c -0.001,0.002 -0.002,0.004 -0.004,0.006 0.001,-0.002 0.002,-0.004 0.004,-0.006 v 0"
     inkscape:connector-curvature="0" />
  <path
     id="path1126"
     style="fill:#fcd1ad;fill-opacity:1;fill-rule:nonzero;stroke:none;stroke-width:0.03007732"
     d="m 147.19921,123.53894 c 0,-6.8e-4 0,-10e-4 0,-10e-4 0,0 0,8.8e-4 0,10e-4 v 0"
     inkscape:connector-curvature="0" />
  <path
     id="path1128"
     style="fill:#fcd1ad;fill-opacity:1;fill-rule:nonzero;stroke:none;stroke-width:0.03007732"
     d="m 147.19921,123.53742 c -0.007,0.01 -0.016,0.0192 -0.0237,0.0289 v 0 c 0.007,-0.01 0.016,-0.0201 0.0237,-0.0289"
     inkscape:connector-curvature="0" />
  <path
     id="path1130"
     style="fill:#fcd1ad;fill-opacity:1;fill-rule:nonzero;stroke:none;stroke-width:0.03007732"
     d="m 162.44029,123.98047 c 0.20001,0.2325 0.38829,0.47552 0.56455,0.73117 -0.17626,-0.25565 -0.36454,-0.49867 -0.56455,-0.73117"
     inkscape:connector-curvature="0" />
  <path
     id="path1132"
     style="fill:#fcd1ad;fill-opacity:1;fill-rule:nonzero;stroke:none;stroke-width:0.03007732"
     d="m 162.23666,123.75128 v 8.8e-4 0 -8.8e-4"
     inkscape:connector-curvature="0" />
  <path
     id="path1136"
     style="fill:#77a437;fill-opacity:1;fill-rule:nonzero;stroke:none;stroke-width:0.03007732"
     d="m 162.44029,123.98047 c -0.0662,-0.0776 -0.13474,-0.15339 -0.20363,-0.22919 8.9e-4,8.8e-4 0.001,0.002 0.002,0.004 0.0686,0.074 0.13566,0.14889 0.20092,0.22557"
     inkscape:connector-curvature="0" />
  <path
     id="path1138"
     style="fill:#77a437;fill-opacity:1;fill-rule:nonzero;stroke:none;stroke-width:0.03007732"
     d="m 163.00484,124.71164 c -0.17626,-0.25565 -0.36454,-0.49867 -0.56455,-0.73117 -0.0652,-0.0767 -0.13234,-0.15159 -0.20091,-0.22559 0.2758,0.29868 0.53116,0.61749 0.76546,0.95676"
     inkscape:connector-curvature="0" />
  <path
     id="path1140"
     style="fill:#77a437;fill-opacity:1;fill-rule:nonzero;stroke:none;stroke-width:0.03007732"
     d="m 162.23938,123.75488 c -8.9e-4,-8.9e-4 -0.001,-0.002 -0.002,-0.004 v 8.8e-4 c 8.8e-4,9e-4 0.001,10e-4 0.002,0.002"
     inkscape:connector-curvature="0" />
  <path
     id="path1144"
     style="fill:#77a437;fill-opacity:1;fill-rule:nonzero;stroke:none;stroke-width:0.03007732"
     d="m 146.86896,123.96092 c 0.0156,-0.0229 0.0316,-0.0449 0.0475,-0.0667 -0.016,0.022 -0.0319,0.0439 -0.0475,0.0667"
     inkscape:connector-curvature="0" />
  <path
     id="path1146"
     style="fill:#77a437;fill-opacity:1;fill-rule:nonzero;stroke:none;stroke-width:0.03007732"
     d="m 147.19921,123.53894 c 0,-6.8e-4 0,-10e-4 0,-10e-4 -0.007,0.009 -0.016,0.0192 -0.0237,0.0289 0.007,-0.009 0.016,-0.0184 0.0237,-0.0274"
     inkscape:connector-curvature="0" />
  <path
     id="path1150"
     style="fill:#77a437;fill-opacity:1;fill-rule:nonzero;stroke:none;stroke-width:0.02406561"
     d="m 157.11004,124.76707 c 0.0154,0.0768 0.0274,0.1403 0.0366,0.18964 -0.009,-0.0493 -0.0212,-0.11287 -0.0366,-0.18964"
     inkscape:connector-curvature="0" />
</svg>
