<?xml version="1.0" encoding="UTF-8" standalone="no"?>
<svg
   xmlns:dc="http://purl.org/dc/elements/1.1/"
   xmlns:cc="http://creativecommons.org/ns#"
   xmlns:rdf="http://www.w3.org/1999/02/22-rdf-syntax-ns#"
   xmlns:svg="http://www.w3.org/2000/svg"
   xmlns="http://www.w3.org/2000/svg"
   xmlns:sodipodi="http://sodipodi.sourceforge.net/DTD/sodipodi-0.dtd"
   xmlns:inkscape="http://www.inkscape.org/namespaces/inkscape"
   id="ICONS"
   viewBox="0 0 400 140"
   version="1.1"
   sodipodi:docname="disa-framework-messaging-location.svg"
   inkscape:version="0.92.1 r15371">
  <metadata
     id="metadata119">
    <rdf:RDF>
      <cc:Work
         rdf:about="">
        <dc:format>image/svg+xml</dc:format>
        <dc:type
           rdf:resource="http://purl.org/dc/dcmitype/StillImage" />
        <dc:title>bot-framework-intelligence-location</dc:title>
      </cc:Work>
    </rdf:RDF>
  </metadata>
  <sodipodi:namedview
     pagecolor="#ffffff"
     bordercolor="#666666"
     borderopacity="1"
     objecttolerance="10"
     gridtolerance="10"
     guidetolerance="10"
     inkscape:pageopacity="0"
     inkscape:pageshadow="2"
     inkscape:window-width="1903"
     inkscape:window-height="1096"
     id="namedview117"
     showgrid="false"
     inkscape:zoom="1.695"
     inkscape:cx="260.91036"
     inkscape:cy="78.871566"
     inkscape:window-x="2489"
     inkscape:window-y="-9"
     inkscape:window-maximized="1"
     inkscape:current-layer="ICONS" />
  <defs
     id="defs4">
    <style
       id="style2">.cls-1,.cls-10,.cls-2{fill:none;}.cls-1{stroke:#d1d3d4;stroke-width:18px;}.cls-1,.cls-2{stroke-miterlimit:10;}.cls-2{stroke:#f1f2f2;stroke-width:2px;}.cls-3{fill:#d1d3d4;}.cls-4{fill:#bad80a;}.cls-5{fill:#5c2d91;}.cls-6{fill:#0078d7;}.cls-7{fill:#acacac;}.cls-8{fill:#80a7e2;}.cls-9{fill:#0050c5;}.cls-10{stroke:#2a6dcf;stroke-linecap:round;stroke-linejoin:round;stroke-width:4px;}.cls-11{fill:#a7a9ac;}.cls-12{fill:#e6e7e8;}.cls-13{fill:#fff;}.cls-14{fill:#c6df33;}.cls-15{fill:#939598;}</style>
  </defs>
  <title
     id="title6">bot-framework-intelligence-location</title>
  <path
     class="cls-1"
     d="M8,113H343a4,4,0,0,0,4-4V41a4,4,0,0,1,4-4h26"
     id="path8" />
  <line
     class="cls-1"
     x1="384"
     y1="135"
     x2="384"
     y2="5"
     id="line10" />
  <line
     class="cls-1"
     x1="160"
     y1="134.88"
     x2="160"
     y2="108"
     id="line12" />
  <line
     class="cls-2"
     x1="127"
     y1="113"
     x2="141"
     y2="113"
     id="line14" />
  <line
     class="cls-2"
     x1="170"
     y1="113"
     x2="184"
     y2="113"
     id="line16" />
  <line
     class="cls-2"
     x1="41"
     y1="113"
     x2="55"
     y2="113"
     id="line20" />
  <path
     class="cls-3"
     d="M106.36,27.19h.32A17.87,17.87,0,0,1,108.06,14H8V32H108.65Z"
     id="path22" />
  <rect
     class="cls-4"
     x="314"
     y="12"
     width="4"
     height="36"
     id="rect24" />
  <path
     class="cls-3"
     d="M201,46V27a13,13,0,0,0-13-13H139.94a17.87,17.87,0,0,1,1.39,13.19h.15L140.31,30l-.87,2H183V51a13,13,0,0,0,13,13H343V46Z"
     id="path26" />
  <line
     class="cls-2"
     x1="170"
     y1="23.23"
     x2="184"
     y2="23.23"
     id="line28" />
  <line
     class="cls-2"
     x1="72.25"
     y1="23.11"
     x2="86.25"
     y2="23.11"
     id="line30" />
  <line
     class="cls-2"
     x1="29.25"
     y1="23.11"
     x2="43.25"
     y2="23.11"
     id="line32" />
  <line
     class="cls-2"
     x1="213"
     y1="113"
     x2="227"
     y2="113"
     id="line34" />
  <line
     class="cls-2"
     x1="256"
     y1="113"
     x2="270"
     y2="113"
     id="line36" />
  <line
     class="cls-2"
     x1="299"
     y1="113"
     x2="313"
     y2="113"
     id="line38" />
  <line
     class="cls-2"
     x1="332"
     y1="113"
     x2="346"
     y2="113"
     id="line40" />
  <line
     class="cls-2"
     x1="203"
     y1="56"
     x2="217"
     y2="56"
     id="line42" />
  <line
     class="cls-2"
     x1="256"
     y1="56"
     x2="270"
     y2="56"
     id="line44" />
  <line
     class="cls-2"
     x1="299"
     y1="56"
     x2="313"
     y2="56"
     id="line46" />
  <line
     class="cls-2"
     x1="354"
     y1="37"
     x2="368"
     y2="37"
     id="line48" />
  <line
     class="cls-2"
     x1="347"
     y1="104"
     x2="347"
     y2="90"
     id="line50" />
  <line
     class="cls-2"
     x1="347"
     y1="69"
     x2="347"
     y2="55"
     id="line52" />
  <line
     class="cls-2"
     x1="192"
     y1="41"
     x2="192"
     y2="27"
     id="line54" />
  <line
     class="cls-2"
     x1="383.96"
     y1="130"
     x2="383.96"
     y2="116"
     id="line58" />
  <line
     class="cls-2"
     x1="383.96"
     y1="94"
     x2="383.96"
     y2="80"
     id="line60" />
  <line
     class="cls-2"
     x1="383.96"
     y1="58"
     x2="383.96"
     y2="44"
     id="line62" />
  <line
     class="cls-2"
     x1="383.96"
     y1="23"
     x2="383.96"
     y2="9"
     id="line64" />
  <polygon
     class="cls-4"
     points="328.26 26 303 26 303 12 328.26 12 335 18.73 328.26 26"
     id="polygon96" />
  <path
     class="cls-3"
     d="M132.89,22a9,9,0,1,1-9-9A8.95,8.95,0,0,1,132.89,22Z"
     id="path98" />
  <path
     class="cls-4"
     d="M204,106V96h4s-2.25-24,30-24c10,0,22,14,22,14s14,0,16,12v8Z"
     id="path102" />
  <path
     class="cls-13"
     d="M256.43,88c-4.37-4.88-12.74-12-18.43-12-9.92,0-17.14,2.38-21.49,7.09A16.48,16.48,0,0,0,213.4,88Z"
     id="path104" />
  <rect
     class="cls-14"
     x="234"
     y="72"
     width="4"
     height="20"
     id="rect106" />
  <circle
     class="cls-15"
     cx="220"
     cy="104"
     r="8"
     id="circle108" />
  <circle
     class="cls-13"
     cx="220"
     cy="104"
     r="4"
     id="circle110" />
  <circle
     class="cls-15"
     cx="260"
     cy="104"
     r="8"
     id="circle112" />
  <circle
     class="cls-13"
     cx="260"
     cy="104"
     r="4"
     id="circle114" />
  <path
     id="path506"
     style="fill:#fffffc;fill-opacity:1;fill-rule:nonzero;stroke:none;stroke-width:0.02060067"
     d="m 172.14681,31.982878 c 0,0.762202 -0.61801,1.380236 -1.38024,1.380236 v 0 c -0.76429,0 -1.38232,-0.618034 -1.38232,-1.380236 v -8.501899 c 0,-0.762225 0.61803,-1.38026 1.38232,-1.38026 v 0 c 0.76223,0 1.38024,0.618035 1.38024,1.38026 v 8.501899"
     inkscape:connector-curvature="0" />
  <path
     id="path508"
     style="fill:#fffffc;fill-opacity:1;fill-rule:nonzero;stroke:none;stroke-width:0.02060067"
     d="m 172.14681,47.25828 c 0,0.76222 -0.61801,1.380231 -1.38024,1.380231 v 0 c -0.76429,0 -1.38232,-0.618011 -1.38232,-1.380231 v -8.501913 c 0,-0.76222 0.61803,-1.382319 1.38232,-1.382319 v 0 c 0.76223,0 1.38024,0.620099 1.38024,1.382319 v 8.501913"
     inkscape:connector-curvature="0" />
  <path
     id="path510"
     style="fill:#fffffc;fill-opacity:1;fill-rule:nonzero;stroke:none;stroke-width:0.02060067"
     d="M 118.81578,134.05343 H 146.1158 V 122.0175 h -27.30002 z"
     inkscape:connector-curvature="0" />
  <path
     id="path512"
     style="fill:#fffffc;fill-opacity:1;fill-rule:nonzero;stroke:none;stroke-width:0.02060067"
     d="m 158.26196,12.612042 c 0,2.422654 -10.28386,4.383824 -22.96975,4.383824 -12.6859,0 -22.96975,-1.96117 -22.96975,-4.383824 0,-2.42057 10.28385,-4.3838241 22.96975,-4.3838241 12.68589,0 22.96975,1.9632541 22.96975,4.3838241"
     inkscape:connector-curvature="0" />
  <path
     id="path514"
     style="fill:#244b7a;fill-opacity:1;fill-rule:nonzero;stroke:none;stroke-width:0.02060067"
     d="m 124.22759,130.1222 c -1.14128,0 -2.06831,-0.92538 -2.06831,-2.06831 0,-1.14043 0.92703,-2.06479 2.06831,-2.06479 1.14126,0 2.06831,0.92436 2.06831,2.06479 0,1.14293 -0.92705,2.06831 -2.06831,2.06831 z m 9.03134,3.10681 c -2.85939,0 -5.17284,-2.31737 -5.17284,-5.17512 0,-2.85648 2.31345,-5.17201 5.17284,-5.17201 0.29252,0 0.57887,0.0304 0.85903,0.0772 v -2.99616 l -15.56585,-13.57414 -11.80009,-83.649432 27.36594,-3.415611 v -4.940038 h -16.49495 c -1.14953,0 -2.08065,-0.929076 -2.08065,-2.080668 0,-1.147446 0.93112,-2.076545 2.08065,-2.076545 h 16.49495 V 5.284367 H 104.0451 c -4.869995,0 -8.854159,3.9862441 -8.854159,8.854162 V 127.49295 c 0,4.87288 3.984164,8.8519 8.854159,8.84695 h 30.07286 v -3.18773 c -0.28016,0.0459 -0.56651,0.0769 -0.85903,0.0769"
     inkscape:connector-curvature="0" />
  <path
     id="path516"
     style="fill:#1a3551;fill-opacity:1;fill-rule:nonzero;stroke:none;stroke-width:0.02060067"
     d="m 142.29025,130.1222 c -1.14334,0 -2.06831,-0.92538 -2.06831,-2.06831 0,-1.14043 0.92497,-2.06479 2.06831,-2.06479 1.14128,0 2.06625,0.92436 2.06625,2.06479 0,1.14293 -0.92497,2.06831 -2.06625,2.06831 z M 162.47067,5.2843911 H 134.11796 V 10.22649 h 14.77687 c 1.14953,0 2.08067,0.9291 2.08067,2.076546 0,1.151591 -0.93114,2.080667 -2.08067,2.080667 h -14.77687 v 4.940038 l 27.848,3.565981 -3.17662,93.785178 -24.67138,3.28807 v 2.99616 c 2.44736,0.41037 4.31377,2.53203 4.31377,5.09476 0,2.56396 -1.86641,4.68728 -4.31377,5.09828 v 3.18773 h 28.35271 c 4.87824,0 8.85418,-3.98129 8.85418,-8.85355 V 14.138554 c 0,-4.874098 -3.98418,-8.8541629 -8.85418,-8.8541629"
     inkscape:connector-curvature="0" />
  <path
     id="path518"
     style="fill:#f04a52;fill-opacity:1;fill-rule:nonzero;stroke:none;stroke-width:0.02060067"
     d="m 165.1673,20.914134 c 0,-1.077435 -0.87965,-1.957074 -1.95706,-1.957074 h -59.79347 c -1.0774,0 -1.95911,0.879639 -1.95911,1.957074 V 31.27009 H 165.1673 V 20.914134"
     inkscape:connector-curvature="0" />
  <path
     id="path520"
     style="fill:#fffffc;fill-opacity:1;fill-rule:nonzero;stroke:none;stroke-width:0.02060067"
     d="m 104.45506,29.224441 h 44.66206 v -8.409758 h -44.66206 z"
     inkscape:connector-curvature="0" />
  <path
     id="path522"
     style="fill:#fffffc;fill-opacity:1;fill-rule:nonzero;stroke:none;stroke-width:0.02060067"
     d="m 157.82934,25.164042 c -0.21836,0 -0.37287,0.158633 -0.37287,0.381125 0,0.218346 0.15039,0.3811 0.37287,0.3811 0.22661,0 0.37699,-0.162754 0.37699,-0.3811 -0.003,-0.222492 -0.15038,-0.381125 -0.37699,-0.381125"
     inkscape:connector-curvature="0" />
  <path
     id="path524"
     style="fill:#fffffc;fill-opacity:1;fill-rule:nonzero;stroke:none;stroke-width:0.02060067"
     d="m 157.74489,23.509817 c 0.21011,0.0084 0.30695,0.102986 0.30695,0.25133 0,0.142129 -0.10915,0.276047 -0.24309,0.436717 -0.18954,0.226611 -0.25958,0.44498 -0.24721,0.659232 l 0.003,0.109168 h 0.55828 v -0.07621 c -0.003,-0.189533 0.0577,-0.352262 0.21425,-0.525316 0.15861,-0.175112 0.35638,-0.38522 0.35638,-0.70455 0,-0.348143 -0.25133,-0.655088 -0.80548,-0.655088 -0.29871,0 -0.55004,0.08445 -0.70249,0.17303 l 0.14421,0.45734 c 0.10915,-0.07621 0.27604,-0.125652 0.41407,-0.125652"
     inkscape:connector-curvature="0" />
  <path
     id="path526"
     style="fill:#fffffc;fill-opacity:1;fill-rule:nonzero;stroke:none;stroke-width:0.02060067"
     d="m 155.4376,24.337959 c 0,-1.380235 1.12275,-2.502988 2.50299,-2.502988 1.38025,0 2.50298,1.122753 2.50298,2.502988 0,1.380237 -1.12273,2.50299 -2.50298,2.50299 -1.38024,0 -2.50299,-1.122753 -2.50299,-2.50299 z m 5.98861,0 c 0,-1.924116 -1.55947,-3.485645 -3.48562,-3.485645 -1.92411,0 -3.48564,1.561529 -3.48564,3.485645 0,1.924092 1.56153,3.485621 3.48564,3.485621 0.24926,0 0.49029,-0.02678 0.72309,-0.07621 l 1.21336,2.012691 1.34729,-0.811662 -1.12892,-1.870536 c 0.80961,-0.638634 1.3308,-1.62747 1.3308,-2.739898"
     inkscape:connector-curvature="0" />
  <path
     id="path528"
     style="fill:#ebe4e9;fill-opacity:1;fill-rule:nonzero;stroke:none;stroke-width:0.02060067"
     d="m 156.13185,31.27009 h -8.33298 l 4.56512,4.194291 3.76786,-4.194291"
     inkscape:connector-curvature="0" />
  <path
     id="path530"
     style="fill:#ebe4e9;fill-opacity:1;fill-rule:nonzero;stroke:none;stroke-width:0.02060067"
     d="m 130.37482,59.933863 20.91999,-23.282878 -5.85676,-5.380895 h -3.22402 l -19.02061,22.065373 7.1814,6.5984"
     inkscape:connector-curvature="0" />
  <path
     id="path532"
     style="fill:#ebe4e9;fill-opacity:1;fill-rule:nonzero;stroke:none;stroke-width:0.02060067"
     d="m 159.60306,42.114286 0.57476,0.492354 -21.43912,25.01128 4.03568,3.708115 22.39292,-24.920653 V 31.27009 h -5.8135 l -5.22434,5.815551 5.4736,5.028645"
     inkscape:connector-curvature="0" />
  <path
     id="path534"
     style="fill:#ebe4e9;fill-opacity:1;fill-rule:nonzero;stroke:none;stroke-width:0.02060067"
     d="m 118.2225,31.27009 h -16.76484 v 17.755724 l 0.87347,0.78489 15.89137,-18.540614"
     inkscape:connector-curvature="0" />
  <path
     id="path536"
     style="fill:#ebe4e9;fill-opacity:1;fill-rule:nonzero;stroke:none;stroke-width:0.02060067"
     d="m 152.92021,80.645777 -1.07742,1.180425 -0.002,-0.0024 -6.06894,7.021328 19.39551,17.43045 V 49.991584 l -20.62748,22.955326 8.38036,7.69848"
     inkscape:connector-curvature="0" />
  <path
     id="path538"
     style="fill:#ebe4e9;fill-opacity:1;fill-rule:nonzero;stroke:none;stroke-width:0.02060067"
     d="M 122.01508,52.253923 140.10452,31.27009 h -19.77869 l -9.3177,10.870968 11.00695,10.112865"
     inkscape:connector-curvature="0" />
  <path
     id="path540"
     style="fill:#ebe4e9;fill-opacity:1;fill-rule:nonzero;stroke:none;stroke-width:0.02060067"
     d="m 143.47274,74.135965 -2.03948,2.268144 c 1.06918,1.295762 1.71193,2.956179 1.71193,4.762859 0,1.545059 -0.46971,2.980937 -1.27311,4.175761 l 2.70897,2.434776 6.08338,-7.034909 -7.19169,-6.606631"
     inkscape:connector-curvature="0" />
  <path
     id="path542"
     style="fill:#ebe4e9;fill-opacity:1;fill-rule:nonzero;stroke:none;stroke-width:0.02060067"
     d="m 124.66226,69.877795 6.16579,5.539542 c 1.30402,-1.091862 2.98296,-1.753122 4.81437,-1.753122 1.46677,0 2.83466,0.426436 3.9924,1.155678 l 2.07244,-2.305213 -10.63612,-9.770875 -6.40888,7.13399"
     inkscape:connector-curvature="0" />
  <path
     id="path544"
     style="fill:#ebe4e9;fill-opacity:1;fill-rule:nonzero;stroke:none;stroke-width:0.02060067"
     d="m 120.97062,53.46526 -11.00281,-10.110812 -6.44802,7.523359 11.08935,9.966591 6.36148,-7.379138"
     inkscape:connector-curvature="0" />
  <path
     id="path546"
     style="fill:#ebe4e9;fill-opacity:1;fill-rule:nonzero;stroke:none;stroke-width:0.02060067"
     d="m 135.64242,88.670765 c -1.52238,0 -2.93766,-0.456304 -4.12014,-1.237078 l -3.09628,3.44505 7.511,6.9002 7.0784,-8.187541 -2.77903,-2.497609 c -1.27106,0.987184 -2.86554,1.576978 -4.59395,1.576978"
     inkscape:connector-curvature="0" />
  <path
     id="path548"
     style="fill:#ebe4e9;fill-opacity:1;fill-rule:nonzero;stroke:none;stroke-width:0.02060067"
     d="m 137.56241,66.536367 20.38023,-23.777298 -4.88234,-4.484759 -20.92,23.280827 5.42211,4.98123"
     inkscape:connector-curvature="0" />
  <path
     id="path550"
     style="fill:#ebe4e9;fill-opacity:1;fill-rule:nonzero;stroke:none;stroke-width:0.02060067"
     d="m 101.95825,52.698912 -0.50059,0.585045 v 22.815244 l 11.58583,-13.43988 -11.08524,-9.960409"
     inkscape:connector-curvature="0" />
  <path
     id="path552"
     style="fill:#ebe4e9;fill-opacity:1;fill-rule:nonzero;stroke:none;stroke-width:0.02060067"
     d="m 115.7978,61.911513 7.08045,6.363563 6.42947,-7.152569 -7.15873,-6.577782 -6.35119,7.366788"
     inkscape:connector-curvature="0" />
  <path
     id="path554"
     style="fill:#ebe4e9;fill-opacity:1;fill-rule:nonzero;stroke:none;stroke-width:0.02060067"
     d="m 137.11331,98.860276 22.96975,21.102694 h 3.12718 c 1.07741,0 1.95706,-0.88044 1.95706,-1.95706 v -8.50847 l -20.96531,-18.838094 -7.08868,8.20093"
     inkscape:connector-curvature="0" />
  <path
     id="path556"
     style="fill:#ebe4e9;fill-opacity:1;fill-rule:nonzero;stroke:none;stroke-width:0.02060067"
     d="m 132.91489,85.882462 c 0.80343,0.465581 1.73458,0.733382 2.72753,0.733382 1.12068,0 2.16514,-0.341964 3.03242,-0.92497 0.66952,-0.449081 1.23398,-1.046524 1.64806,-1.740749 0.48617,-0.813739 0.76633,-1.765483 0.76633,-2.783157 0,-1.198965 -0.38934,-2.30933 -1.05063,-3.211656 -0.47587,-0.648901 -1.09183,-1.190697 -1.80461,-1.578012 -0.77048,-0.420232 -1.65424,-0.657144 -2.59157,-0.657144 -1.22369,0 -2.35465,0.405819 -3.26727,1.089773 -0.64274,0.484122 -1.1763,1.106248 -1.55535,1.823156 -0.39965,0.758104 -0.62626,1.619208 -0.62626,2.533883 0,1.147447 0.35639,2.210447 0.96206,3.088053 0.45733,0.663324 1.06094,1.221621 1.75929,1.627441"
     inkscape:connector-curvature="0" />
  <path
     id="path558"
     style="fill:#ebe4e9;fill-opacity:1;fill-rule:nonzero;stroke:none;stroke-width:0.02060067"
     d="m 119.03622,84.421886 1.07742,-1.180424 6.54689,6.015592 3.09629,-3.444627 c -1.01151,-1.279308 -1.61924,-2.892337 -1.61924,-4.645459 0,-1.442046 0.41203,-2.791389 1.12069,-3.936771 l -6.19874,-5.570442 -21.60187,24.038098 v 9.575197 l 17.74336,-20.698734 -0.1648,-0.15243"
     inkscape:connector-curvature="0" />
  <path
     id="path560"
     style="fill:#ebe4e9;fill-opacity:1;fill-rule:nonzero;stroke:none;stroke-width:0.02060067"
     d="m 118.86936,119.96297 h 38.85286 l -21.65337,-19.89385 -17.19949,19.89385"
     inkscape:connector-curvature="0" />
  <path
     id="path562"
     style="fill:#ebe4e9;fill-opacity:1;fill-rule:nonzero;stroke:none;stroke-width:0.02060067"
     d="m 120.37731,85.655844 -18.91965,22.072406 v 9.57477 l 24.13575,-26.856899 -5.2161,-4.790277"
     inkscape:connector-curvature="0" />
  <path
     id="path564"
     style="fill:#ebe4e9;fill-opacity:1;fill-rule:nonzero;stroke:none;stroke-width:0.02060067"
     d="M 127.35683,92.067818 102.498,119.73226 c 0.27399,0.14668 0.58711,0.23071 0.91877,0.23071 h 13.34101 l 18.13272,-20.974566 -7.53367,-6.920586"
     inkscape:connector-curvature="0" />
  <path
     id="path566"
     style="fill:#ebe4e9;fill-opacity:1;fill-rule:nonzero;stroke:none;stroke-width:0.02060067"
     d="m 114.23215,63.728488 -12.77449,14.818086 v 13.56596 l 19.81991,-22.055499 -7.04542,-6.328547"
     inkscape:connector-curvature="0" />
  <path
     id="path568"
     style="fill:#ffffff;fill-opacity:1;fill-rule:nonzero;stroke:none;stroke-width:0.02060067"
     d="m 101.45766,52.249806 v 1.034151 l 0.50059,-0.585045 -0.50059,-0.449106"
     inkscape:connector-curvature="0" />
  <path
     id="path570"
     style="fill:#ffffff;fill-opacity:1;fill-rule:nonzero;stroke:none;stroke-width:0.02060067"
     d="m 138.7387,67.61792 21.43912,-25.01128 -0.57476,-0.492354 -5.4736,-5.028645 -1.06916,1.188669 4.88234,4.484759 -20.38023,23.777298 -5.42211,-4.98123 -1.06916,1.188668 10.63612,9.770875 1.06712,-1.188645 -4.03568,-3.708115"
     inkscape:connector-curvature="0" />
  <path
     id="path572"
     style="fill:#ffffff;fill-opacity:1;fill-rule:nonzero;stroke:none;stroke-width:0.02060067"
     d="m 113.04349,62.659321 -11.58583,13.43988 v 2.447373 l 12.77449,-14.818086 -1.18866,-1.069167"
     inkscape:connector-curvature="0" />
  <path
     id="path574"
     style="fill:#ffffff;fill-opacity:1;fill-rule:nonzero;stroke:none;stroke-width:0.02060067"
     d="m 152.36399,35.464381 -4.56512,-4.194291 h -2.36082 l 5.85676,5.380895 1.06918,-1.186604"
     inkscape:connector-curvature="0" />
  <path
     id="path576"
     style="fill:#ffffff;fill-opacity:1;fill-rule:nonzero;stroke:none;stroke-width:0.02060067"
     d="m 103.51979,50.877807 6.44802,-7.523359 11.00281,10.110812 -6.36148,7.379138 1.18866,1.067115 6.35119,-7.366788 7.15873,6.577782 1.0671,-1.188644 -7.1814,-6.5984 19.02061,-22.065373 h -2.10951 l -18.08944,20.983833 -11.00695,-10.112865 9.3177,-10.870968 h -2.10333 l -15.89137,18.540614 1.18866,1.067103"
     inkscape:connector-curvature="0" />
  <path
     id="path578"
     style="fill:#ffffff;fill-opacity:1;fill-rule:nonzero;stroke:none;stroke-width:0.02060067"
     d="m 144.20199,90.659346 -1.18659,-1.06795 -7.0784,8.187541 -7.511,-6.9002 -1.06917,1.189081 7.53367,6.920586 -18.13272,20.974566 h 2.11158 l 17.19949,-19.89385 21.65337,19.89385 h 2.36084 l -22.96975,-21.102694 7.08868,-8.20093"
     inkscape:connector-curvature="0" />
  <path
     id="path580"
     style="fill:#ffffff;fill-opacity:1;fill-rule:nonzero;stroke:none;stroke-width:0.02060067"
     d="m 125.59341,90.446121 1.06712,-1.189067 -6.54689,-6.015592 -1.07742,1.180424 0.1648,0.15243 -17.74336,20.698734 v 2.4552 l 18.91965,-22.072406 5.2161,4.790277"
     inkscape:connector-curvature="0" />
  <path
     id="path582"
     style="fill:#ffffff;fill-opacity:1;fill-rule:nonzero;stroke:none;stroke-width:0.02060067"
     d="m 151.84279,81.826202 1.07742,-1.180425 -8.38036,-7.698482 -1.06711,1.18867 7.19169,6.606631 -6.08338,7.034909 1.19073,1.067948 6.06895,-7.021329 0.002,0.0024"
     inkscape:connector-curvature="0" />
  <path
     id="path584"
     style="fill:#eaa510;fill-opacity:1;fill-rule:nonzero;stroke:none;stroke-width:0.02060067"
     d="m 140.3229,83.950125 c -0.41408,0.694225 -0.97854,1.291668 -1.64806,1.740749 -0.86728,0.583006 -1.91174,0.92497 -3.03242,0.92497 -0.99295,0 -1.9241,-0.267801 -2.72753,-0.733382 -0.69835,-0.40582 -1.30196,-0.964117 -1.75929,-1.627441 -0.60567,-0.877606 -0.96206,-1.940606 -0.96206,-3.088053 0,-0.914675 0.22661,-1.775779 0.62626,-2.533883 0.37905,-0.716908 0.91261,-1.339034 1.55535,-1.823156 0.91262,-0.683954 2.04358,-1.089773 3.26727,-1.089773 0.93733,0 1.82109,0.236912 2.59157,0.657144 0.71278,0.387315 1.32874,0.929111 1.80461,1.578012 0.66129,0.902326 1.05063,2.012691 1.05063,3.211656 0,1.017674 -0.28016,1.969418 -0.76633,2.783157 z m 4.21695,-11.00283 20.62745,-22.955325 v -3.586588 l -22.39292,24.920653 -1.06712,1.188645 -2.07244,2.305213 c -1.15774,-0.729242 -2.52563,-1.155678 -3.9924,-1.155678 -1.83141,0 -3.51035,0.66126 -4.81437,1.753122 l -6.16579,-5.539542 6.40888,-7.13399 1.06916,-1.188668 20.92,-23.280827 1.06916,-1.188669 5.22434,-5.815551 h -3.22195 l -3.76786,4.194291 -1.06918,1.186604 -20.91999,23.282878 -1.0671,1.188644 -6.42947,7.152569 -7.08045,-6.363563 -1.18866,-1.067115 -11.08935,-9.966591 -1.18866,-1.067103 -0.87347,-0.78489 v 3.223992 l 0.50059,0.449106 11.08524,9.960409 1.18866,1.069167 7.04542,6.328547 -19.81991,22.055499 v 3.585319 l 21.60187,-24.038098 6.19874,5.570442 c -0.70866,1.145382 -1.12069,2.494725 -1.12069,3.936771 0,1.753122 0.60773,3.366151 1.61924,4.645459 l -3.09629,3.444627 -1.06712,1.189067 -24.13575,26.856899 v 0.70289 c 0,0.74534 0.42438,1.39632 1.04034,1.72635 l 24.85883,-27.664442 1.06917,-1.189081 3.09628,-3.44505 c 1.18248,0.780774 2.59776,1.237078 4.12014,1.237078 1.72841,0 3.32289,-0.589794 4.59395,-1.576978 l 2.77903,2.497609 1.18659,1.06795 20.96531,18.838094 v -3.22154 l -19.39552,-17.430447 -1.19073,-1.067948 -2.70897,-2.434776 c 0.8034,-1.194824 1.27311,-2.630702 1.27311,-4.175761 0,-1.80668 -0.64275,-3.467097 -1.71193,-4.762859 l 2.03948,-2.268144 1.06711,-1.18867"
     inkscape:connector-curvature="0" />
  <path
     id="path586"
     style="fill:#f04a52;fill-opacity:1;fill-rule:nonzero;stroke:none;stroke-width:0.02060067"
     d="m 130.74564,106.60879 c -1.03004,0 -1.86436,-0.83452 -1.86436,-1.86456 0,-1.02983 0.83432,-1.86396 1.86436,-1.86396 1.03003,0 1.86436,0.83413 1.86436,1.86396 0,1.03004 -0.83433,1.86456 -1.86436,1.86456 z m 0.41201,-6.22964 h -0.59742 c -2.57095,0.13 -4.7876,2.85052 -4.00477,5.38419 0.42437,1.20702 1.06093,2.29617 1.78402,3.33156 0.25545,0.36441 0.5212,0.72226 0.79106,1.07597 0.23896,0.31231 0.48413,0.62131 0.72721,0.92888 0.31725,0.4015 0.63449,0.80097 0.94558,1.20226 h 0.12978 c 0.30695,-0.40624 0.62214,-0.8094 0.93938,-1.21359 0.24309,-0.30963 0.48617,-0.61904 0.72515,-0.93156 0.26987,-0.35126 0.53355,-0.70538 0.78695,-1.06671 0.75604,-1.07472 1.41938,-2.20735 1.83346,-3.47614 0.6345,-2.51497 -1.54711,-5.10486 -4.0604,-5.23486"
     inkscape:connector-curvature="0" />
  <path
     id="path588"
     style="fill:#f04a52;fill-opacity:1;fill-rule:nonzero;stroke:none;stroke-width:0.02060067"
     d="m 109.13554,41.362362 c -1.03004,0 -1.86437,-0.834331 -1.86437,-1.864367 0,-1.030021 0.83433,-1.864377 1.86437,-1.864377 1.03003,0 1.86435,0.834356 1.86435,1.864377 0,1.030036 -0.83432,1.864367 -1.86435,1.864367 z m 0.41201,-6.229645 h -0.59742 c -2.57097,0.131832 -4.7876,2.851134 -4.00477,5.385018 0.42438,1.207184 1.06092,2.294892 1.78401,3.331107 0.25545,0.364647 0.5212,0.723088 0.79314,1.075373 0.23689,0.313127 0.48205,0.622128 0.72513,0.929074 0.31725,0.401729 0.63451,0.801367 0.94558,1.203095 h 0.12979 c 0.30695,-0.407909 0.62212,-0.809611 0.93938,-1.21339 0.2431,-0.309 0.48618,-0.620075 0.72514,-0.933216 0.26988,-0.350209 0.53356,-0.704533 0.78695,-1.065027 0.75604,-1.075385 1.41937,-2.208406 1.83346,-3.477407 0.6345,-2.515355 -1.54505,-5.102795 -4.06039,-5.234627"
     inkscape:connector-curvature="0" />
</svg>
